{
.appVersion = "1357";
DisplayStrings = (
"b.\012b,\012e.\012e,\012f.\012f,\012¿f\012f?\012f!\012g.\012g,\012j.\012j,\012k/endash \012o.\012o,\012p.\012p,\012q.\012r.\012r,\012r-\012s.\012s,\012s-\012t-\012v.\012v,\012w.\012w,\012y.\012y,\012y-y\012A-A\012D.\012D,\012F.\012F,\012F;\012F:\012F-\012J.\012J,\012J;\012J:\012J-J\012K-\012-M\012O.\012O,\012P.\012P,\012P-\012R-\012T.\012T,\012T;\012T:\012T-T\012U.\012U,\012U-\012V.\012V,\012V;\012V:\012V-V\012¡V\012W.\012W,\012W;\012W:\012W-W\012X-X\012Y.\012Y,\012Y;\012Y:\012Y-Y\012-Z\012\012",

glyphs = (
{
glyphname = .notdef;
lastChange = "2021-11-10 00:37:30 +0000";
layers = (
{
background = {
paths = (
{
closed = 1;
nodes = (
"48 5 LINE",
"457 5 LINE",
"465 13 LINE",
"465 607 LINE",
"457 616 LINE",
"48 616 LINE",
"40 606 LINE",
"40 14 LINE"
);
},
{
closed = 1;
nodes = (
"57 600 LINE",
"449 600 LINE",
"449 21 LINE",
"57 21 LINE"
);
},
{
closed = 1;
nodes = (
"91 53 LINE",
"416 53 LINE",
"416 566 LINE",
"91 566 LINE"
);
},
{
closed = 1;
nodes = (
"141 151 LINE",
"228 312 LINE",
"141 470 LINE",
"159 504 LINE",
"247 345 LINE",
"336 504 LINE",
"354 470 LINE",
"266 310 LINE",
"354 151 LINE",
"336 117 LINE",
"247 276 LINE",
"159 117 LINE"
);
}
);
};
layerId = "6B4F01CB-8044-4D82-912B-2C5A8D883AAC";
paths = (
{
closed = 1;
nodes = (
"457 5 LINE",
"465 13 LINE",
"465 607 LINE",
"457 616 LINE",
"48 616 LINE",
"40 606 LINE",
"40 14 LINE",
"48 5 LINE"
);
},
{
closed = 1;
nodes = (
"141 151 LINE",
"228 312 LINE",
"141 470 LINE",
"159 504 LINE",
"247 345 LINE",
"336 504 LINE",
"354 470 LINE",
"266 310 LINE",
"354 151 LINE",
"336 117 LINE",
"247 276 LINE",
"159 117 LINE"
);
},
{
closed = 1;
nodes = (
"57 21 LINE",
"57 600 LINE",
"449 600 LINE",
"449 21 LINE"
);
},
{
closed = 1;
nodes = (
"416 53 LINE",
"416 566 LINE",
"91 566 LINE",
"91 53 LINE"
);
}
);
width = 505;
}
);
note = .notdef;
},
{
glyphname = A;
lastChange = "2021-11-15 12:52:57 +0000";
layers = (
{
anchors = (
{
name = bottom;
position = "{583, 0}";
},
{
name = ogonek;
position = "{1049, 10}";
},
{
name = top;
position = "{1196, 673}";
}
);
background = {
paths = (
{
closed = 1;
nodes = (
"1112 606 OFFCURVE",
"1100 622 OFFCURVE",
"1090 614 CURVE SMOOTH",
"1029 566 OFFCURVE",
"754 353 OFFCURVE",
"694 301 CURVE SMOOTH",
"565 188 OFFCURVE",
"359 39 OFFCURVE",
"201 39 CURVE SMOOTH",
"-107 39 OFFCURVE",
"46 353 OFFCURVE",
"380 353 CURVE SMOOTH",
"449 353 OFFCURVE",
"506 333 OFFCURVE",
"556 288 CURVE SMOOTH",
"565 279 OFFCURVE",
"586 254 OFFCURVE",
"600 254 CURVE SMOOTH",
"620 254 OFFCURVE",
"628 274 OFFCURVE",
"630 283 CURVE SMOOTH",
"653 393 OFFCURVE",
"441 419 OFFCURVE",
"374 419 CURVE SMOOTH",
"191 419 OFFCURVE",
"-15 322 OFFCURVE",
"-49 162 CURVE SMOOTH",
"-80 15 OFFCURVE",
"77 -34 OFFCURVE",
"186 -34 CURVE SMOOTH",
"362 -34 OFFCURVE",
"549 85 OFFCURVE",
"664 183 CURVE",
"836 183 LINE SMOOTH",
"849 183 OFFCURVE",
"849 203 OFFCURVE",
"836 203 CURVE SMOOTH",
"660 203 LINE SMOOTH",
"659 203 OFFCURVE",
"654 201 OFFCURVE",
"654 201 CURVE",
"540 103 OFFCURVE",
"356 -14 OFFCURVE",
"186 -14 CURVE SMOOTH",
"74 -14 OFFCURVE",
"-55 35 OFFCURVE",
"-29 158 CURVE SMOOTH",
"2 304 OFFCURVE",
"195 399 OFFCURVE",
"374 399 CURVE SMOOTH",
"427 399 OFFCURVE",
"629 377 OFFCURVE",
"610 288 CURVE SMOOTH",
"608 279 OFFCURVE",
"604 274 OFFCURVE",
"601 274 CURVE",
"596 276 OFFCURVE",
"590 283 OFFCURVE",
"586 286 CURVE",
"527 345 OFFCURVE",
"469 373 OFFCURVE",
"380 373 CURVE SMOOTH",
"249 373 OFFCURVE",
"47 305 OFFCURVE",
"20 176 CURVE SMOOTH",
"-6 51 OFFCURVE",
"107 19 OFFCURVE",
"201 19 CURVE SMOOTH",
"368 19 OFFCURVE",
"579 174 OFFCURVE",
"707 286 CURVE SMOOTH",
"767 338 OFFCURVE",
"1042 550 OFFCURVE",
"1102 598 CURVE SMOOTH"
);
},
{
closed = 1;
nodes = (
"1092 62 OFFCURVE",
"1081 79 OFFCURVE",
"1070 72 CURVE SMOOTH",
"1023 41 OFFCURVE",
"971 15 OFFCURVE",
"922 15 CURVE SMOOTH",
"875 15 OFFCURVE",
"807 42 OFFCURVE",
"836 131 CURVE SMOOTH",
"840 144 OFFCURVE",
"821 150 OFFCURVE",
"817 137 CURVE SMOOTH",
"782 28 OFFCURVE",
"871 -5 OFFCURVE",
"922 -5 CURVE SMOOTH",
"977 -5 OFFCURVE",
"1033 24 OFFCURVE",
"1081 55 CURVE SMOOTH"
);
},
{
closed = 1;
nodes = (
"998 470 OFFCURVE",
"985 485 OFFCURVE",
"975 477 CURVE SMOOTH",
"907 418 OFFCURVE",
"805 333 OFFCURVE",
"759 295 CURVE SMOOTH",
"748 286 OFFCURVE",
"761 271 OFFCURVE",
"771 279 CURVE SMOOTH",
"818 318 OFFCURVE",
"920 402 OFFCURVE",
"988 461 CURVE SMOOTH"
);
},
{
closed = 1;
nodes = (
"1101 522 OFFCURVE",
"1087 536 OFFCURVE",
"1078 527 CURVE SMOOTH",
"1043 495 OFFCURVE",
"970 401 OFFCURVE",
"902 309 CURVE SMOOTH",
"879 277 OFFCURVE",
"859 264 OFFCURVE",
"833 258 CURVE SMOOTH",
"796 249 OFFCURVE",
"754 253 OFFCURVE",
"717 253 CURVE SMOOTH",
"703 253 OFFCURVE",
"703 233 OFFCURVE",
"717 233 CURVE SMOOTH",
"799 233 OFFCURVE",
"862 220 OFFCURVE",
"918 297 CURVE SMOOTH",
"986 389 OFFCURVE",
"1058 481 OFFCURVE",
"1091 513 CURVE SMOOTH"
);
},
{
closed = 1;
nodes = (
"1181 196 OFFCURVE",
"1167 211 OFFCURVE",
"1158 199 CURVE SMOOTH",
"1107 134 OFFCURVE",
"1020 90 OFFCURVE",
"964 90 CURVE SMOOTH",
"816 90 OFFCURVE",
"1141 500 OFFCURVE",
"1165 530 CURVE SMOOTH",
"1173 540 OFFCURVE",
"1157 553 OFFCURVE",
"1149 542 CURVE SMOOTH",
"1086 462 OFFCURVE",
"1004 347 OFFCURVE",
"965 280 CURVE SMOOTH",
"940 238 OFFCURVE",
"847 70 OFFCURVE",
"964 70 CURVE SMOOTH",
"1029 70 OFFCURVE",
"1122 119 OFFCURVE",
"1173 186 CURVE SMOOTH"
);
},
{
closed = 1;
nodes = (
"1253 721 OFFCURVE",
"833 721 OFFCURVE",
"791 721 CURVE SMOOTH",
"596 721 OFFCURVE",
"400 670 OFFCURVE",
"375 554 CURVE SMOOTH",
"372 538 OFFCURVE",
"376 514 OFFCURVE",
"398 514 CURVE SMOOTH",
"412 514 OFFCURVE",
"424 523 OFFCURVE",
"433 533 CURVE SMOOTH",
"531 631 OFFCURVE",
"637 642 OFFCURVE",
"766 642 CURVE SMOOTH",
"929 642 OFFCURVE",
"995 622 OFFCURVE",
"1033 610 CURVE SMOOTH",
"1045 606 OFFCURVE",
"1051 626 OFFCURVE",
"1039 630 CURVE SMOOTH",
"999 642 OFFCURVE",
"931 662 OFFCURVE",
"766 662 CURVE SMOOTH",
"652 662 OFFCURVE",
"524 654 OFFCURVE",
"426 555 CURVE SMOOTH",
"420 548 OFFCURVE",
"407 534 OFFCURVE",
"398 534 CURVE SMOOTH",
"393 534 OFFCURVE",
"394 547 OFFCURVE",
"395 550 CURVE SMOOTH",
"416 648 OFFCURVE",
"591 701 OFFCURVE",
"791 701 CURVE SMOOTH",
"830 701 OFFCURVE",
"1222 695 OFFCURVE",
"1185 601 CURVE SMOOTH",
"1180 588 OFFCURVE",
"1198 581 OFFCURVE",
"1203 593 CURVE SMOOTH"
);
}
);
};
layerId = "6B4F01CB-8044-4D82-912B-2C5A8D883AAC";
paths = (
{
closed = 1;
nodes = (
"362 -34 OFFCURVE",
"549 85 OFFCURVE",
"664 183 CURVE",
"836 183 LINE SMOOTH",
"843 183 OFFCURVE",
"846 188 OFFCURVE",
"846 193 CURVE SMOOTH",
"846 198 OFFCURVE",
"843 203 OFFCURVE",
"836 203 CURVE SMOOTH",
"660 203 LINE SMOOTH",
"659 203 OFFCURVE",
"654 201 OFFCURVE",
"654 201 CURVE",
"540 103 OFFCURVE",
"356 -14 OFFCURVE",
"186 -14 CURVE SMOOTH",
"84 -14 OFFCURVE",
"-32 27 OFFCURVE",
"-32 127 CURVE SMOOTH",
"-32 137 OFFCURVE",
"-31 147 OFFCURVE",
"-29 158 CURVE SMOOTH",
"2 304 OFFCURVE",
"195 399 OFFCURVE",
"374 399 CURVE SMOOTH",
"425 399 OFFCURVE",
"611 379 OFFCURVE",
"611 300 CURVE SMOOTH",
"611 296 OFFCURVE",
"611 292 OFFCURVE",
"610 288 CURVE SMOOTH",
"608 279 OFFCURVE",
"604 274 OFFCURVE",
"601 274 CURVE",
"596 276 OFFCURVE",
"590 283 OFFCURVE",
"586 286 CURVE",
"527 345 OFFCURVE",
"469 373 OFFCURVE",
"380 373 CURVE SMOOTH",
"249 373 OFFCURVE",
"47 305 OFFCURVE",
"20 176 CURVE SMOOTH",
"17 164 OFFCURVE",
"16 152 OFFCURVE",
"16 142 CURVE SMOOTH",
"16 45 OFFCURVE",
"116 19 OFFCURVE",
"201 19 CURVE SMOOTH",
"368 19 OFFCURVE",
"579 174 OFFCURVE",
"707 286 CURVE SMOOTH",
"767 338 OFFCURVE",
"1042 550 OFFCURVE",
"1102 598 CURVE SMOOTH",
"1105 600 OFFCURVE",
"1106 603 OFFCURVE",
"1106 605 CURVE SMOOTH",
"1106 611 OFFCURVE",
"1101 616 OFFCURVE",
"1096 616 CURVE SMOOTH",
"1094 616 OFFCURVE",
"1092 616 OFFCURVE",
"1090 614 CURVE SMOOTH",
"1029 566 OFFCURVE",
"754 353 OFFCURVE",
"694 301 CURVE SMOOTH",
"565 188 OFFCURVE",
"359 39 OFFCURVE",
"201 39 CURVE SMOOTH",
"85 39 OFFCURVE",
"34 84 OFFCURVE",
"34 139 CURVE SMOOTH",
"34 231 OFFCURVE",
"172 353 OFFCURVE",
"380 353 CURVE SMOOTH",
"449 353 OFFCURVE",
"506 333 OFFCURVE",
"556 288 CURVE SMOOTH",
"565 279 OFFCURVE",
"586 254 OFFCURVE",
"600 254 CURVE SMOOTH",
"620 254 OFFCURVE",
"628 274 OFFCURVE",
"630 283 CURVE SMOOTH",
"631 289 OFFCURVE",
"632 294 OFFCURVE",
"632 299 CURVE SMOOTH",
"632 396 OFFCURVE",
"438 419 OFFCURVE",
"374 419 CURVE SMOOTH",
"191 419 OFFCURVE",
"-15 322 OFFCURVE",
"-49 162 CURVE SMOOTH",
"-52 149 OFFCURVE",
"-53 137 OFFCURVE",
"-53 126 CURVE SMOOTH",
"-53 7 OFFCURVE",
"87 -34 OFFCURVE",
"186 -34 CURVE SMOOTH"
);
},
{
closed = 1;
nodes = (
"977 -5 OFFCURVE",
"1033 24 OFFCURVE",
"1081 55 CURVE SMOOTH",
"1084 57 OFFCURVE",
"1085 60 OFFCURVE",
"1085 63 CURVE SMOOTH",
"1085 68 OFFCURVE",
"1081 74 OFFCURVE",
"1075 74 CURVE SMOOTH",
"1074 74 OFFCURVE",
"1072 73 OFFCURVE",
"1070 72 CURVE SMOOTH",
"1023 41 OFFCURVE",
"971 15 OFFCURVE",
"922 15 CURVE SMOOTH",
"883 15 OFFCURVE",
"829 34 OFFCURVE",
"829 92 CURVE SMOOTH",
"829 103 OFFCURVE",
"831 116 OFFCURVE",
"836 131 CURVE SMOOTH",
"838 139 OFFCURVE",
"832 144 OFFCURVE",
"826 144 CURVE SMOOTH",
"822 144 OFFCURVE",
"819 142 OFFCURVE",
"817 137 CURVE SMOOTH",
"811 120 OFFCURVE",
"809 105 OFFCURVE",
"809 91 CURVE SMOOTH",
"809 18 OFFCURVE",
"879 -5 OFFCURVE",
"922 -5 CURVE SMOOTH"
);
},
{
closed = 1;
nodes = (
"818 318 OFFCURVE",
"920 402 OFFCURVE",
"988 461 CURVE SMOOTH",
"990 463 OFFCURVE",
"992 466 OFFCURVE",
"992 468 CURVE SMOOTH",
"992 474 OFFCURVE",
"987 479 OFFCURVE",
"981 479 CURVE SMOOTH",
"979 479 OFFCURVE",
"977 479 OFFCURVE",
"975 477 CURVE SMOOTH",
"907 418 OFFCURVE",
"805 333 OFFCURVE",
"759 295 CURVE SMOOTH",
"756 293 OFFCURVE",
"755 290 OFFCURVE",
"755 287 CURVE SMOOTH",
"755 282 OFFCURVE",
"760 277 OFFCURVE",
"765 277 CURVE SMOOTH",
"767 277 OFFCURVE",
"769 277 OFFCURVE",
"771 279 CURVE SMOOTH"
);
},
{
closed = 1;
nodes = (
"738 233 OFFCURVE",
"757 232 OFFCURVE",
"776 232 CURVE SMOOTH",
"830 232 OFFCURVE",
"876 239 OFFCURVE",
"918 297 CURVE SMOOTH",
"986 389 OFFCURVE",
"1058 481 OFFCURVE",
"1091 513 CURVE SMOOTH",
"1099 520 OFFCURVE",
"1092 530 OFFCURVE",
"1085 530 CURVE SMOOTH",
"1082 530 OFFCURVE",
"1080 529 OFFCURVE",
"1078 527 CURVE SMOOTH",
"1043 495 OFFCURVE",
"970 401 OFFCURVE",
"902 309 CURVE SMOOTH",
"879 277 OFFCURVE",
"859 264 OFFCURVE",
"833 258 CURVE SMOOTH",
"813 253 OFFCURVE",
"792 252 OFFCURVE",
"772 252 CURVE SMOOTH",
"753 252 OFFCURVE",
"734 253 OFFCURVE",
"717 253 CURVE SMOOTH",
"710 253 OFFCURVE",
"707 248 OFFCURVE",
"707 243 CURVE SMOOTH",
"707 238 OFFCURVE",
"710 233 OFFCURVE",
"717 233 CURVE SMOOTH"
);
},
{
closed = 1;
nodes = (
"1029 70 OFFCURVE",
"1122 119 OFFCURVE",
"1173 186 CURVE SMOOTH",
"1179 193 OFFCURVE",
"1173 203 OFFCURVE",
"1166 203 CURVE SMOOTH",
"1163 203 OFFCURVE",
"1160 202 OFFCURVE",
"1158 199 CURVE SMOOTH",
"1107 134 OFFCURVE",
"1020 90 OFFCURVE",
"964 90 CURVE SMOOTH",
"937 90 OFFCURVE",
"926 104 OFFCURVE",
"926 127 CURVE SMOOTH",
"926 228 OFFCURVE",
"1145 506 OFFCURVE",
"1165 530 CURVE SMOOTH",
"1171 537 OFFCURVE",
"1164 546 OFFCURVE",
"1157 546 CURVE SMOOTH",
"1154 546 OFFCURVE",
"1151 545 OFFCURVE",
"1149 542 CURVE SMOOTH",
"1086 462 OFFCURVE",
"1004 347 OFFCURVE",
"965 280 CURVE SMOOTH",
"949 253 OFFCURVE",
"906 177 OFFCURVE",
"906 124 CURVE SMOOTH",
"906 93 OFFCURVE",
"921 70 OFFCURVE",
"964 70 CURVE SMOOTH"
);
},
{
closed = 1;
nodes = (
"412 514 OFFCURVE",
"424 523 OFFCURVE",
"433 533 CURVE SMOOTH",
"531 631 OFFCURVE",
"637 642 OFFCURVE",
"766 642 CURVE SMOOTH",
"929 642 OFFCURVE",
"995 622 OFFCURVE",
"1033 610 CURVE SMOOTH",
"1040 608 OFFCURVE",
"1046 614 OFFCURVE",
"1046 621 CURVE SMOOTH",
"1046 625 OFFCURVE",
"1044 628 OFFCURVE",
"1039 630 CURVE SMOOTH",
"999 642 OFFCURVE",
"931 662 OFFCURVE",
"766 662 CURVE SMOOTH",
"652 662 OFFCURVE",
"524 654 OFFCURVE",
"426 555 CURVE SMOOTH",
"420 548 OFFCURVE",
"407 534 OFFCURVE",
"398 534 CURVE SMOOTH",
"395 534 OFFCURVE",
"394 539 OFFCURVE",
"394 543 CURVE SMOOTH",
"394 546 OFFCURVE",
"395 549 OFFCURVE",
"395 550 CURVE SMOOTH",
"416 648 OFFCURVE",
"591 701 OFFCURVE",
"791 701 CURVE SMOOTH",
"828 701 OFFCURVE",
"1187 696 OFFCURVE",
"1187 613 CURVE SMOOTH",
"1187 609 OFFCURVE",
"1187 605 OFFCURVE",
"1185 601 CURVE SMOOTH",
"1182 593 OFFCURVE",
"1188 587 OFFCURVE",
"1194 587 CURVE SMOOTH",
"1198 587 OFFCURVE",
"1201 589 OFFCURVE",
"1203 593 CURVE SMOOTH",
"1206 600 OFFCURVE",
"1207 607 OFFCURVE",
"1207 613 CURVE SMOOTH",
"1207 721 OFFCURVE",
"831 721 OFFCURVE",
"791 721 CURVE SMOOTH",
"596 721 OFFCURVE",
"400 670 OFFCURVE",
"375 554 CURVE SMOOTH",
"372 538 OFFCURVE",
"376 514 OFFCURVE",
"398 514 CURVE SMOOTH"
);
}
);
width = 1166;
}
);
note = A;
unicode = 0041;
},
{
glyphname = AE;
lastChange = "2021-11-15 12:52:57 +0000";
layers = (
{
anchors = (
{
name = bottom;
position = "{677, 0}";
},
{
name = top;
position = "{1307, 691}";
}
);
background = {
paths = (
{
closed = 1;
nodes = (
"1401 609 OFFCURVE",
"1321 610 OFFCURVE",
"1247 626 CURVE SMOOTH",
"1094 659 OFFCURVE",
"680 790 OFFCURVE",
"612 590 CURVE SMOOTH",
"610 584 OFFCURVE",
"588 566 OFFCURVE",
"583 573 CURVE SMOOTH",
"582 574 OFFCURVE",
"580 578 OFFCURVE",
"583 590 CURVE SMOOTH",
"631 815 OFFCURVE",
"1006 721 OFFCURVE",
"1158 686 CURVE SMOOTH",
"1243 667 OFFCURVE",
"1373 626 OFFCURVE",
"1452 677 CURVE SMOOTH",
"1489 701 OFFCURVE",
"1503 668 OFFCURVE",
"1468 648 CURVE SMOOTH"
);
},
{
closed = 1;
nodes = (
"1112 606 OFFCURVE",
"1100 622 OFFCURVE",
"1090 614 CURVE SMOOTH",
"1029 566 OFFCURVE",
"754 353 OFFCURVE",
"694 301 CURVE SMOOTH",
"565 188 OFFCURVE",
"359 39 OFFCURVE",
"201 39 CURVE SMOOTH",
"-107 39 OFFCURVE",
"46 353 OFFCURVE",
"380 353 CURVE SMOOTH",
"449 353 OFFCURVE",
"506 333 OFFCURVE",
"556 288 CURVE SMOOTH",
"565 279 OFFCURVE",
"586 254 OFFCURVE",
"600 254 CURVE SMOOTH",
"620 254 OFFCURVE",
"628 274 OFFCURVE",
"630 283 CURVE SMOOTH",
"653 393 OFFCURVE",
"441 419 OFFCURVE",
"374 419 CURVE SMOOTH",
"191 419 OFFCURVE",
"-15 322 OFFCURVE",
"-49 162 CURVE SMOOTH",
"-80 15 OFFCURVE",
"77 -34 OFFCURVE",
"186 -34 CURVE SMOOTH",
"362 -34 OFFCURVE",
"549 85 OFFCURVE",
"664 183 CURVE",
"836 183 LINE SMOOTH",
"849 183 OFFCURVE",
"849 203 OFFCURVE",
"836 203 CURVE SMOOTH",
"660 203 LINE SMOOTH",
"659 203 OFFCURVE",
"654 201 OFFCURVE",
"654 201 CURVE",
"540 103 OFFCURVE",
"356 -14 OFFCURVE",
"186 -14 CURVE SMOOTH",
"74 -14 OFFCURVE",
"-55 35 OFFCURVE",
"-29 158 CURVE SMOOTH",
"2 304 OFFCURVE",
"195 399 OFFCURVE",
"374 399 CURVE SMOOTH",
"427 399 OFFCURVE",
"629 377 OFFCURVE",
"610 288 CURVE SMOOTH",
"608 279 OFFCURVE",
"604 274 OFFCURVE",
"601 274 CURVE",
"596 276 OFFCURVE",
"590 283 OFFCURVE",
"586 286 CURVE",
"527 345 OFFCURVE",
"469 373 OFFCURVE",
"380 373 CURVE SMOOTH",
"13 373 OFFCURVE",
"-132 19 OFFCURVE",
"201 19 CURVE SMOOTH",
"368 19 OFFCURVE",
"579 174 OFFCURVE",
"707 286 CURVE SMOOTH",
"767 338 OFFCURVE",
"1042 550 OFFCURVE",
"1102 598 CURVE SMOOTH"
);
},
{
closed = 1;
nodes = (
"998 470 OFFCURVE",
"985 485 OFFCURVE",
"975 477 CURVE SMOOTH",
"907 418 OFFCURVE",
"805 333 OFFCURVE",
"759 295 CURVE SMOOTH",
"748 286 OFFCURVE",
"761 271 OFFCURVE",
"771 279 CURVE SMOOTH",
"818 318 OFFCURVE",
"920 402 OFFCURVE",
"988 461 CURVE SMOOTH"
);
},
{
closed = 1;
nodes = (
"1447 365 OFFCURVE",
"1410 344 OFFCURVE",
"1397 340 CURVE SMOOTH",
"1302 310 OFFCURVE",
"1066 310 OFFCURVE",
"1012 311 CURVE SMOOTH",
"1010 311 OFFCURVE",
"1005 309 OFFCURVE",
"1004 308 CURVE SMOOTH",
"971 270 OFFCURVE",
"804 74 OFFCURVE",
"936 51 CURVE SMOOTH",
"999 40 OFFCURVE",
"1238 81 OFFCURVE",
"1290 102 CURVE SMOOTH",
"1303 107 OFFCURVE",
"1309 106 OFFCURVE",
"1311 105 CURVE",
"1316 91 OFFCURVE",
"1296 71 OFFCURVE",
"1284 67 CURVE SMOOTH",
"1174 27 OFFCURVE",
"1003 11 OFFCURVE",
"905 11 CURVE SMOOTH",
"780 11 OFFCURVE",
"787 70 OFFCURVE",
"829 150 CURVE SMOOTH",
"835 162 OFFCURVE",
"817 171 OFFCURVE",
"811 159 CURVE SMOOTH",
"799 136 OFFCURVE",
"789 114 OFFCURVE",
"784 96 CURVE SMOOTH",
"760 7 OFFCURVE",
"847 -9 OFFCURVE",
"905 -9 CURVE SMOOTH",
"1004 -9 OFFCURVE",
"1177 8 OFFCURVE",
"1291 49 CURVE SMOOTH",
"1341 67 OFFCURVE",
"1351 148 OFFCURVE",
"1282 120 CURVE SMOOTH",
"1235 101 OFFCURVE",
"998 60 OFFCURVE",
"939 70 CURVE SMOOTH",
"912 75 OFFCURVE",
"900 87 OFFCURVE",
"908 118 CURVE SMOOTH",
"925 179 OFFCURVE",
"969 236 OFFCURVE",
"1016 291 CURVE",
"1077 290 OFFCURVE",
"1307 291 OFFCURVE",
"1403 321 CURVE SMOOTH",
"1476 344 OFFCURVE",
"1486 426 OFFCURVE",
"1419 402 CURVE SMOOTH",
"1338 374 OFFCURVE",
"1146 379 OFFCURVE",
"1056 379 CURVE SMOOTH",
"1042 379 OFFCURVE",
"1042 359 OFFCURVE",
"1056 359 CURVE SMOOTH",
"1149 359 OFFCURVE",
"1341 354 OFFCURVE",
"1425 383 CURVE SMOOTH",
"1439 388 OFFCURVE",
"1444 386 OFFCURVE",
"1444 386 CURVE"
);
},
{
closed = 1;
nodes = (
"1281 572 OFFCURVE",
"1224 621 OFFCURVE",
"1186 598 CURVE SMOOTH",
"1147 575 OFFCURVE",
"975 398 OFFCURVE",
"935 347 CURVE SMOOTH",
"860 250 OFFCURVE",
"825 253 OFFCURVE",
"717 253 CURVE SMOOTH",
"703 253 OFFCURVE",
"703 233 OFFCURVE",
"717 233 CURVE SMOOTH",
"831 233 OFFCURVE",
"871 232 OFFCURVE",
"951 335 CURVE SMOOTH",
"991 386 OFFCURVE",
"1161 560 OFFCURVE",
"1197 581 CURVE SMOOTH",
"1213 591 OFFCURVE",
"1248 572 OFFCURVE",
"1229 556 CURVE SMOOTH",
"1182 519 OFFCURVE",
"1133 457 OFFCURVE",
"1087 413 CURVE SMOOTH",
"1077 404 OFFCURVE",
"1091 390 OFFCURVE",
"1101 399 CURVE SMOOTH",
"1136 432 OFFCURVE",
"1160 459 OFFCURVE",
"1182 482 CURVE SMOOTH",
"1203 505 OFFCURVE",
"1220 524 OFFCURVE",
"1241 540 CURVE SMOOTH"
);
},
{
closed = 1;
nodes = (
"1537 665 OFFCURVE",
"1501 732 OFFCURVE",
"1442 694 CURVE SMOOTH",
"1391 662 OFFCURVE",
"1315 672 OFFCURVE",
"1259 684 CURVE SMOOTH",
"1078 722 OFFCURVE",
"620 863 OFFCURVE",
"563 594 CURVE SMOOTH",
"560 580 OFFCURVE",
"561 569 OFFCURVE",
"567 560 CURVE SMOOTH",
"584 538 OFFCURVE",
"624 563 OFFCURVE",
"631 584 CURVE SMOOTH",
"693 764 OFFCURVE",
"1102 637 OFFCURVE",
"1243 607 CURVE SMOOTH",
"1322 590 OFFCURVE",
"1406 590 OFFCURVE",
"1478 631 CURVE SMOOTH"
);
}
);
};
layerId = "6B4F01CB-8044-4D82-912B-2C5A8D883AAC";
paths = (
{
closed = 1;
nodes = (
"362 -34 OFFCURVE",
"549 85 OFFCURVE",
"664 183 CURVE",
"836 183 LINE SMOOTH",
"843 183 OFFCURVE",
"846 188 OFFCURVE",
"846 193 CURVE SMOOTH",
"846 198 OFFCURVE",
"843 203 OFFCURVE",
"836 203 CURVE SMOOTH",
"660 203 LINE SMOOTH",
"659 203 OFFCURVE",
"654 201 OFFCURVE",
"654 201 CURVE",
"540 103 OFFCURVE",
"356 -14 OFFCURVE",
"186 -14 CURVE SMOOTH",
"84 -14 OFFCURVE",
"-32 27 OFFCURVE",
"-32 127 CURVE SMOOTH",
"-32 137 OFFCURVE",
"-31 147 OFFCURVE",
"-29 158 CURVE SMOOTH",
"2 304 OFFCURVE",
"195 399 OFFCURVE",
"374 399 CURVE SMOOTH",
"425 399 OFFCURVE",
"611 379 OFFCURVE",
"611 300 CURVE SMOOTH",
"611 296 OFFCURVE",
"611 292 OFFCURVE",
"610 288 CURVE SMOOTH",
"608 279 OFFCURVE",
"604 274 OFFCURVE",
"601 274 CURVE",
"596 276 OFFCURVE",
"590 283 OFFCURVE",
"586 286 CURVE",
"527 345 OFFCURVE",
"469 373 OFFCURVE",
"380 373 CURVE SMOOTH",
"156 373 OFFCURVE",
"14 241 OFFCURVE",
"14 138 CURVE SMOOTH",
"14 73 OFFCURVE",
"72 19 OFFCURVE",
"201 19 CURVE SMOOTH",
"368 19 OFFCURVE",
"579 174 OFFCURVE",
"707 286 CURVE SMOOTH",
"767 338 OFFCURVE",
"1042 550 OFFCURVE",
"1102 598 CURVE SMOOTH",
"1105 600 OFFCURVE",
"1106 603 OFFCURVE",
"1106 605 CURVE SMOOTH",
"1106 611 OFFCURVE",
"1101 616 OFFCURVE",
"1096 616 CURVE SMOOTH",
"1094 616 OFFCURVE",
"1092 616 OFFCURVE",
"1090 614 CURVE SMOOTH",
"1029 566 OFFCURVE",
"754 353 OFFCURVE",
"694 301 CURVE SMOOTH",
"565 188 OFFCURVE",
"359 39 OFFCURVE",
"201 39 CURVE SMOOTH",
"85 39 OFFCURVE",
"34 84 OFFCURVE",
"34 139 CURVE SMOOTH",
"34 231 OFFCURVE",
"172 353 OFFCURVE",
"380 353 CURVE SMOOTH",
"449 353 OFFCURVE",
"506 333 OFFCURVE",
"556 288 CURVE SMOOTH",
"565 279 OFFCURVE",
"586 254 OFFCURVE",
"600 254 CURVE SMOOTH",
"620 254 OFFCURVE",
"628 274 OFFCURVE",
"630 283 CURVE SMOOTH",
"631 289 OFFCURVE",
"632 294 OFFCURVE",
"632 299 CURVE SMOOTH",
"632 396 OFFCURVE",
"438 419 OFFCURVE",
"374 419 CURVE SMOOTH",
"191 419 OFFCURVE",
"-15 322 OFFCURVE",
"-49 162 CURVE SMOOTH",
"-52 149 OFFCURVE",
"-53 137 OFFCURVE",
"-53 126 CURVE SMOOTH",
"-53 7 OFFCURVE",
"87 -34 OFFCURVE",
"186 -34 CURVE SMOOTH"
);
},
{
closed = 1;
nodes = (
"818 318 OFFCURVE",
"920 402 OFFCURVE",
"988 461 CURVE SMOOTH",
"990 463 OFFCURVE",
"992 466 OFFCURVE",
"992 468 CURVE SMOOTH",
"992 474 OFFCURVE",
"987 479 OFFCURVE",
"981 479 CURVE SMOOTH",
"979 479 OFFCURVE",
"977 479 OFFCURVE",
"975 477 CURVE SMOOTH",
"907 418 OFFCURVE",
"805 333 OFFCURVE",
"759 295 CURVE SMOOTH",
"756 293 OFFCURVE",
"755 290 OFFCURVE",
"755 287 CURVE SMOOTH",
"755 282 OFFCURVE",
"760 277 OFFCURVE",
"765 277 CURVE SMOOTH",
"767 277 OFFCURVE",
"769 277 OFFCURVE",
"771 279 CURVE SMOOTH"
);
},
{
closed = 1;
nodes = (
"1004 -9 OFFCURVE",
"1177 8 OFFCURVE",
"1291 49 CURVE SMOOTH",
"1316 58 OFFCURVE",
"1331 83 OFFCURVE",
"1331 102 CURVE SMOOTH",
"1331 115 OFFCURVE",
"1324 126 OFFCURVE",
"1307 126 CURVE SMOOTH",
"1300 126 OFFCURVE",
"1292 124 OFFCURVE",
"1282 120 CURVE SMOOTH",
"1240 103 OFFCURVE",
"1046 68 OFFCURVE",
"963 68 CURVE SMOOTH",
"954 68 OFFCURVE",
"945 69 OFFCURVE",
"939 70 CURVE SMOOTH",
"918 74 OFFCURVE",
"906 82 OFFCURVE",
"906 101 CURVE SMOOTH",
"906 106 OFFCURVE",
"906 112 OFFCURVE",
"908 118 CURVE SMOOTH",
"925 179 OFFCURVE",
"969 236 OFFCURVE",
"1016 291 CURVE",
"1048 291 LINE SMOOTH",
"1135 291 OFFCURVE",
"1320 295 OFFCURVE",
"1403 321 CURVE SMOOTH",
"1443 334 OFFCURVE",
"1464 364 OFFCURVE",
"1464 384 CURVE SMOOTH",
"1464 397 OFFCURVE",
"1456 406 OFFCURVE",
"1441 406 CURVE SMOOTH",
"1435 406 OFFCURVE",
"1427 405 OFFCURVE",
"1419 402 CURVE SMOOTH",
"1359 381 OFFCURVE",
"1239 379 OFFCURVE",
"1144 379 CURVE SMOOTH",
"1056 379 LINE SMOOTH",
"1049 379 OFFCURVE",
"1046 374 OFFCURVE",
"1046 369 CURVE SMOOTH",
"1046 364 OFFCURVE",
"1049 359 OFFCURVE",
"1056 359 CURVE SMOOTH",
"1144 359 LINE SMOOTH",
"1240 359 OFFCURVE",
"1363 361 OFFCURVE",
"1425 383 CURVE SMOOTH",
"1433 386 OFFCURVE",
"1438 386 OFFCURVE",
"1441 386 CURVE SMOOTH",
"1444 386 LINE",
"1447 365 OFFCURVE",
"1410 344 OFFCURVE",
"1397 340 CURVE SMOOTH",
"1317 315 OFFCURVE",
"1136 311 OFFCURVE",
"1049 311 CURVE SMOOTH",
"1012 311 LINE SMOOTH",
"1010 311 OFFCURVE",
"1005 309 OFFCURVE",
"1004 308 CURVE SMOOTH",
"980 281 OFFCURVE",
"886 170 OFFCURVE",
"886 103 CURVE SMOOTH",
"886 71 OFFCURVE",
"906 49 OFFCURVE",
"964 49 CURVE SMOOTH",
"1051 49 OFFCURVE",
"1244 83 OFFCURVE",
"1290 102 CURVE SMOOTH",
"1298 105 OFFCURVE",
"1303 106 OFFCURVE",
"1306 106 CURVE SMOOTH",
"1309 106 OFFCURVE",
"1310 105 OFFCURVE",
"1311 105 CURVE",
"1316 91 OFFCURVE",
"1296 71 OFFCURVE",
"1284 67 CURVE SMOOTH",
"1174 27 OFFCURVE",
"1003 11 OFFCURVE",
"905 11 CURVE SMOOTH",
"829 11 OFFCURVE",
"802 33 OFFCURVE",
"802 68 CURVE SMOOTH",
"802 91 OFFCURVE",
"813 119 OFFCURVE",
"829 150 CURVE SMOOTH",
"833 158 OFFCURVE",
"826 165 OFFCURVE",
"820 165 CURVE SMOOTH",
"816 165 OFFCURVE",
"813 163 OFFCURVE",
"811 159 CURVE SMOOTH",
"799 136 OFFCURVE",
"789 114 OFFCURVE",
"784 96 CURVE SMOOTH",
"781 86 OFFCURVE",
"780 76 OFFCURVE",
"780 68 CURVE SMOOTH",
"780 3 OFFCURVE",
"854 -9 OFFCURVE",
"905 -9 CURVE SMOOTH"
);
},
{
closed = 1;
nodes = (
"831 233 OFFCURVE",
"871 232 OFFCURVE",
"951 335 CURVE SMOOTH",
"991 386 OFFCURVE",
"1161 560 OFFCURVE",
"1197 581 CURVE SMOOTH",
"1200 583 OFFCURVE",
"1204 584 OFFCURVE",
"1208 584 CURVE SMOOTH",
"1221 584 OFFCURVE",
"1235 576 OFFCURVE",
"1235 566 CURVE SMOOTH",
"1235 563 OFFCURVE",
"1233 559 OFFCURVE",
"1229 556 CURVE SMOOTH",
"1182 519 OFFCURVE",
"1133 457 OFFCURVE",
"1087 413 CURVE SMOOTH",
"1079 406 OFFCURVE",
"1086 396 OFFCURVE",
"1094 396 CURVE SMOOTH",
"1096 396 OFFCURVE",
"1099 397 OFFCURVE",
"1101 399 CURVE SMOOTH",
"1136 432 OFFCURVE",
"1160 459 OFFCURVE",
"1182 482 CURVE SMOOTH",
"1203 505 OFFCURVE",
"1220 524 OFFCURVE",
"1241 540 CURVE SMOOTH",
"1251 548 OFFCURVE",
"1255 556 OFFCURVE",
"1255 565 CURVE SMOOTH",
"1255 585 OFFCURVE",
"1231 604 OFFCURVE",
"1208 604 CURVE SMOOTH",
"1200 604 OFFCURVE",
"1193 602 OFFCURVE",
"1186 598 CURVE SMOOTH",
"1147 575 OFFCURVE",
"975 398 OFFCURVE",
"935 347 CURVE SMOOTH",
"860 250 OFFCURVE",
"825 253 OFFCURVE",
"717 253 CURVE SMOOTH",
"710 253 OFFCURVE",
"707 248 OFFCURVE",
"707 243 CURVE SMOOTH",
"707 238 OFFCURVE",
"710 233 OFFCURVE",
"717 233 CURVE SMOOTH"
);
},
{
closed = 1;
nodes = (
"582 574 OFFCURVE",
"580 578 OFFCURVE",
"583 590 CURVE SMOOTH",
"607 703 OFFCURVE",
"714 736 OFFCURVE",
"833 736 CURVE SMOOTH",
"951 736 OFFCURVE",
"1082 703 OFFCURVE",
"1158 686 CURVE SMOOTH",
"1213 674 OFFCURVE",
"1286 652 OFFCURVE",
"1353 652 CURVE SMOOTH",
"1389 652 OFFCURVE",
"1424 659 OFFCURVE",
"1452 677 CURVE SMOOTH",
"1461 683 OFFCURVE",
"1469 685 OFFCURVE",
"1475 685 CURVE SMOOTH",
"1483 685 OFFCURVE",
"1488 680 OFFCURVE",
"1488 674 CURVE SMOOTH",
"1488 666 OFFCURVE",
"1482 656 OFFCURVE",
"1468 648 CURVE SMOOTH",
"1428 625 OFFCURVE",
"1383 616 OFFCURVE",
"1337 616 CURVE SMOOTH",
"1307 616 OFFCURVE",
"1277 620 OFFCURVE",
"1247 626 CURVE SMOOTH",
"1157 645 OFFCURVE",
"977 699 OFFCURVE",
"830 699 CURVE SMOOTH",
"727 699 OFFCURVE",
"640 672 OFFCURVE",
"612 590 CURVE SMOOTH",
"610 584 OFFCURVE",
"588 566 OFFCURVE",
"583 573 CURVE SMOOTH"
);
},
{
closed = 1;
nodes = (
"572 554 OFFCURVE",
"578 551 OFFCURVE",
"585 551 CURVE SMOOTH",
"604 551 OFFCURVE",
"626 569 OFFCURVE",
"631 584 CURVE SMOOTH",
"656 655 OFFCURVE",
"735 679 OFFCURVE",
"830 679 CURVE SMOOTH",
"975 679 OFFCURVE",
"1158 625 OFFCURVE",
"1243 607 CURVE SMOOTH",
"1274 600 OFFCURVE",
"1306 596 OFFCURVE",
"1337 596 CURVE SMOOTH",
"1386 596 OFFCURVE",
"1434 606 OFFCURVE",
"1478 631 CURVE SMOOTH",
"1499 643 OFFCURVE",
"1508 660 OFFCURVE",
"1508 674 CURVE SMOOTH",
"1508 691 OFFCURVE",
"1495 705 OFFCURVE",
"1475 705 CURVE SMOOTH",
"1466 705 OFFCURVE",
"1454 702 OFFCURVE",
"1442 694 CURVE SMOOTH",
"1417 678 OFFCURVE",
"1385 673 OFFCURVE",
"1352 673 CURVE SMOOTH",
"1320 673 OFFCURVE",
"1287 678 OFFCURVE",
"1259 684 CURVE SMOOTH",
"1161 704 OFFCURVE",
"983 755 OFFCURVE",
"831 755 CURVE SMOOTH",
"701 755 OFFCURVE",
"589 718 OFFCURVE",
"563 594 CURVE SMOOTH",
"562 589 OFFCURVE",
"561 584 OFFCURVE",
"561 580 CURVE SMOOTH",
"561 572 OFFCURVE",
"563 566 OFFCURVE",
"567 560 CURVE SMOOTH"
);
}
);
width = 1354;
}
);
note = AE;
unicode = 00C6;
},
{
glyphname = B;
lastChange = "2021-11-15 12:52:57 +0000";
layers = (
{
background = {
paths = (
{
closed = 1;
nodes = (
"1113 245 OFFCURVE",
"1066 292 OFFCURVE",
"1002 314 CURVE SMOOTH",
"939 335 OFFCURVE",
"855 335 OFFCURVE",
"800 319 CURVE",
"799 318 OFFCURVE",
"795 315 OFFCURVE",
"794 315 CURVE",
"682 165 OFFCURVE",
"478 -14 OFFCURVE",
"260 -14 CURVE SMOOTH",
"148 -14 OFFCURVE",
"19 35 OFFCURVE",
"45 158 CURVE SMOOTH",
"77 305 OFFCURVE",
"243 399 OFFCURVE",
"374 399 CURVE SMOOTH",
"426 399 OFFCURVE",
"578 374 OFFCURVE",
"584 304 CURVE",
"581 298 OFFCURVE",
"574 292 OFFCURVE",
"568 289 CURVE",
"548 329 OFFCURVE",
"446 373 OFFCURVE",
"362 373 CURVE SMOOTH",
"281 373 OFFCURVE",
"121 304 OFFCURVE",
"94 176 CURVE SMOOTH",
"67 51 OFFCURVE",
"181 19 OFFCURVE",
"275 19 CURVE SMOOTH",
"442 19 OFFCURVE",
"648 217 OFFCURVE",
"751 351 CURVE SMOOTH",
"798 413 OFFCURVE",
"893 534 OFFCURVE",
"932 594 CURVE SMOOTH",
"939 605 OFFCURVE",
"924 616 OFFCURVE",
"916 604 CURVE SMOOTH",
"878 546 OFFCURVE",
"782 425 OFFCURVE",
"735 363 CURVE SMOOTH",
"632 228 OFFCURVE",
"432 39 OFFCURVE",
"275 39 CURVE SMOOTH",
"-39 39 OFFCURVE",
"152 353 OFFCURVE",
"362 353 CURVE SMOOTH",
"451 353 OFFCURVE",
"546 304 OFFCURVE",
"552 278 CURVE SMOOTH",
"559 251 OFFCURVE",
"605 285 OFFCURVE",
"604 304 CURVE SMOOTH",
"599 390 OFFCURVE",
"438 419 OFFCURVE",
"374 419 CURVE SMOOTH",
"236 419 OFFCURVE",
"59 321 OFFCURVE",
"25 162 CURVE SMOOTH",
"-6 15 OFFCURVE",
"150 -34 OFFCURVE",
"260 -34 CURVE SMOOTH",
"486 -34 OFFCURVE",
"695 150 OFFCURVE",
"808 300 CURVE",
"860 315 OFFCURVE",
"938 315 OFFCURVE",
"996 295 CURVE SMOOTH",
"1216 219 OFFCURVE",
"893 -48 OFFCURVE",
"734 109 CURVE SMOOTH",
"725 118 OFFCURVE",
"711 104 OFFCURVE",
"720 95 CURVE SMOOTH",
"808 7 OFFCURVE",
"1016 29 OFFCURVE",
"1078 168 CURVE SMOOTH"
);
},
{
closed = 1;
nodes = (
"1203 284 OFFCURVE",
"1128 347 OFFCURVE",
"1012 361 CURVE SMOOTH",
"998 363 OFFCURVE",
"996 343 OFFCURVE",
"1009 341 CURVE SMOOTH",
"1120 327 OFFCURVE",
"1179 272 OFFCURVE",
"1151 174 CURVE SMOOTH",
"1095 -22 OFFCURVE",
"783 -29 OFFCURVE",
"671 82 CURVE SMOOTH",
"662 91 OFFCURVE",
"647 77 OFFCURVE",
"657 68 CURVE SMOOTH",
"774 -49 OFFCURVE",
"1108 -48 OFFCURVE",
"1170 168 CURVE SMOOTH"
);
},
{
closed = 1;
nodes = (
"1232 611 OFFCURVE",
"1182 664 OFFCURVE",
"1112 692 CURVE SMOOTH",
"957 753 OFFCURVE",
"490 742 OFFCURVE",
"449 554 CURVE SMOOTH",
"446 538 OFFCURVE",
"449 514 OFFCURVE",
"472 514 CURVE SMOOTH",
"486 514 OFFCURVE",
"497 523 OFFCURVE",
"507 533 CURVE SMOOTH",
"592 619 OFFCURVE",
"765 646 OFFCURVE",
"874 647 CURVE SMOOTH",
"1248 651 OFFCURVE",
"1103 396 OFFCURVE",
"916 390 CURVE SMOOTH",
"903 390 OFFCURVE",
"903 370 OFFCURVE",
"917 370 CURVE SMOOTH",
"1130 377 OFFCURVE",
"1275 671 OFFCURVE",
"874 667 CURVE SMOOTH",
"733 666 OFFCURVE",
"569 625 OFFCURVE",
"500 555 CURVE SMOOTH",
"494 548 OFFCURVE",
"481 534 OFFCURVE",
"472 534 CURVE SMOOTH",
"466 534 OFFCURVE",
"468 547 OFFCURVE",
"469 550 CURVE SMOOTH",
"492 659 OFFCURVE",
"698 708 OFFCURVE",
"890 705 CURVE SMOOTH",
"1001 703 OFFCURVE",
"1230 692 OFFCURVE",
"1193 519 CURVE SMOOTH",
"1182 466 OFFCURVE",
"1139 417 OFFCURVE",
"1094 400 CURVE SMOOTH",
"1082 396 OFFCURVE",
"1089 377 OFFCURVE",
"1101 382 CURVE SMOOTH",
"1153 401 OFFCURVE",
"1199 456 OFFCURVE",
"1212 515 CURVE SMOOTH"
);
},
{
closed = 1;
nodes = (
"1001 592 OFFCURVE",
"985 603 OFFCURVE",
"977 592 CURVE SMOOTH",
"932 523 OFFCURVE",
"873 435 OFFCURVE",
"848 394 CURVE SMOOTH",
"841 383 OFFCURVE",
"858 372 OFFCURVE",
"865 384 CURVE SMOOTH",
"890 425 OFFCURVE",
"949 513 OFFCURVE",
"994 581 CURVE SMOOTH"
);
}
);
};
layerId = "6B4F01CB-8044-4D82-912B-2C5A8D883AAC";
paths = (
{
closed = 1;
nodes = (
"486 -34 OFFCURVE",
"695 150 OFFCURVE",
"808 300 CURVE",
"832 307 OFFCURVE",
"862 311 OFFCURVE",
"893 311 CURVE SMOOTH",
"928 311 OFFCURVE",
"965 306 OFFCURVE",
"996 295 CURVE SMOOTH",
"1049 277 OFFCURVE",
"1071 248 OFFCURVE",
"1071 216 CURVE SMOOTH",
"1071 144 OFFCURVE",
"962 60 OFFCURVE",
"855 60 CURVE SMOOTH",
"812 60 OFFCURVE",
"769 74 OFFCURVE",
"734 109 CURVE SMOOTH",
"727 116 OFFCURVE",
"717 109 OFFCURVE",
"717 102 CURVE SMOOTH",
"717 99 OFFCURVE",
"718 97 OFFCURVE",
"720 95 CURVE SMOOTH",
"755 60 OFFCURVE",
"808 43 OFFCURVE",
"864 43 CURVE SMOOTH",
"950 43 OFFCURVE",
"1040 84 OFFCURVE",
"1078 168 CURVE SMOOTH",
"1086 186 OFFCURVE",
"1090 203 OFFCURVE",
"1090 217 CURVE SMOOTH",
"1090 266 OFFCURVE",
"1051 297 OFFCURVE",
"1002 314 CURVE SMOOTH",
"968 325 OFFCURVE",
"929 330 OFFCURVE",
"891 330 CURVE SMOOTH",
"858 330 OFFCURVE",
"826 326 OFFCURVE",
"800 319 CURVE",
"799 318 OFFCURVE",
"795 315 OFFCURVE",
"794 315 CURVE",
"682 165 OFFCURVE",
"478 -14 OFFCURVE",
"260 -14 CURVE SMOOTH",
"158 -14 OFFCURVE",
"42 27 OFFCURVE",
"42 127 CURVE SMOOTH",
"42 137 OFFCURVE",
"43 147 OFFCURVE",
"45 158 CURVE SMOOTH",
"77 305 OFFCURVE",
"243 399 OFFCURVE",
"374 399 CURVE SMOOTH",
"426 399 OFFCURVE",
"578 374 OFFCURVE",
"584 304 CURVE",
"581 298 OFFCURVE",
"574 292 OFFCURVE",
"568 289 CURVE",
"548 329 OFFCURVE",
"446 373 OFFCURVE",
"362 373 CURVE SMOOTH",
"281 373 OFFCURVE",
"121 304 OFFCURVE",
"94 176 CURVE SMOOTH",
"91 163 OFFCURVE",
"90 152 OFFCURVE",
"90 141 CURVE SMOOTH",
"90 45 OFFCURVE",
"191 19 OFFCURVE",
"275 19 CURVE SMOOTH",
"442 19 OFFCURVE",
"648 217 OFFCURVE",
"751 351 CURVE SMOOTH",
"798 413 OFFCURVE",
"893 534 OFFCURVE",
"932 594 CURVE SMOOTH",
"937 602 OFFCURVE",
"931 609 OFFCURVE",
"925 609 CURVE SMOOTH",
"922 609 OFFCURVE",
"918 608 OFFCURVE",
"916 604 CURVE SMOOTH",
"878 546 OFFCURVE",
"782 425 OFFCURVE",
"735 363 CURVE SMOOTH",
"632 228 OFFCURVE",
"432 39 OFFCURVE",
"275 39 CURVE SMOOTH",
"155 39 OFFCURVE",
"109 84 OFFCURVE",
"109 141 CURVE SMOOTH",
"109 233 OFFCURVE",
"232 353 OFFCURVE",
"362 353 CURVE SMOOTH",
"451 353 OFFCURVE",
"546 304 OFFCURVE",
"552 278 CURVE SMOOTH",
"554 271 OFFCURVE",
"558 268 OFFCURVE",
"564 268 CURVE SMOOTH",
"580 268 OFFCURVE",
"605 290 OFFCURVE",
"604 304 CURVE SMOOTH",
"599 390 OFFCURVE",
"438 419 OFFCURVE",
"374 419 CURVE SMOOTH",
"236 419 OFFCURVE",
"59 321 OFFCURVE",
"25 162 CURVE SMOOTH",
"22 149 OFFCURVE",
"21 137 OFFCURVE",
"21 126 CURVE SMOOTH",
"21 7 OFFCURVE",
"160 -34 OFFCURVE",
"260 -34 CURVE SMOOTH"
);
},
{
closed = 1;
nodes = (
"706 19 OFFCURVE",
"795 -10 OFFCURVE",
"885 -10 CURVE SMOOTH",
"1008 -10 OFFCURVE",
"1134 43 OFFCURVE",
"1170 168 CURVE SMOOTH",
"1175 187 OFFCURVE",
"1178 204 OFFCURVE",
"1178 220 CURVE SMOOTH",
"1178 303 OFFCURVE",
"1109 349 OFFCURVE",
"1012 361 CURVE SMOOTH",
"1004 362 OFFCURVE",
"1000 357 OFFCURVE",
"1000 351 CURVE SMOOTH",
"1000 347 OFFCURVE",
"1003 342 OFFCURVE",
"1009 341 CURVE SMOOTH",
"1102 329 OFFCURVE",
"1158 289 OFFCURVE",
"1158 219 CURVE SMOOTH",
"1158 205 OFFCURVE",
"1156 190 OFFCURVE",
"1151 174 CURVE SMOOTH",
"1118 60 OFFCURVE",
"999 10 OFFCURVE",
"883 10 CURVE SMOOTH",
"800 10 OFFCURVE",
"718 36 OFFCURVE",
"671 82 CURVE SMOOTH",
"664 89 OFFCURVE",
"654 82 OFFCURVE",
"654 75 CURVE SMOOTH",
"654 72 OFFCURVE",
"655 70 OFFCURVE",
"657 68 CURVE SMOOTH"
);
},
{
closed = 1;
nodes = (
"890 425 OFFCURVE",
"949 513 OFFCURVE",
"994 581 CURVE SMOOTH",
"999 589 OFFCURVE",
"992 597 OFFCURVE",
"985 597 CURVE SMOOTH",
"982 597 OFFCURVE",
"979 595 OFFCURVE",
"977 592 CURVE SMOOTH",
"932 523 OFFCURVE",
"873 435 OFFCURVE",
"848 394 CURVE SMOOTH",
"843 386 OFFCURVE",
"850 379 OFFCURVE",
"857 379 CURVE SMOOTH",
"860 379 OFFCURVE",
"863 380 OFFCURVE",
"865 384 CURVE SMOOTH"
);
},
{
closed = 1;
nodes = (
"1032 374 OFFCURVE",
"1127 461 OFFCURVE",
"1127 540 CURVE SMOOTH",
"1127 607 OFFCURVE",
"1060 667 OFFCURVE",
"882 667 CURVE SMOOTH",
"739 667 OFFCURVE",
"570 626 OFFCURVE",
"500 555 CURVE SMOOTH",
"494 548 OFFCURVE",
"481 534 OFFCURVE",
"472 534 CURVE SMOOTH",
"469 534 OFFCURVE",
"468 538 OFFCURVE",
"468 542 CURVE SMOOTH",
"468 545 OFFCURVE",
"469 549 OFFCURVE",
"469 550 CURVE SMOOTH",
"491 656 OFFCURVE",
"686 705 OFFCURVE",
"873 705 CURVE SMOOTH",
"969 705 OFFCURVE",
"1197 702 OFFCURVE",
"1197 555 CURVE SMOOTH",
"1197 544 OFFCURVE",
"1196 532 OFFCURVE",
"1193 519 CURVE SMOOTH",
"1182 466 OFFCURVE",
"1139 417 OFFCURVE",
"1094 400 CURVE SMOOTH",
"1090 398 OFFCURVE",
"1088 395 OFFCURVE",
"1088 391 CURVE SMOOTH",
"1088 386 OFFCURVE",
"1092 381 OFFCURVE",
"1097 381 CURVE SMOOTH",
"1098 381 OFFCURVE",
"1100 381 OFFCURVE",
"1101 382 CURVE",
"1153 401 OFFCURVE",
"1199 456 OFFCURVE",
"1212 515 CURVE SMOOTH",
"1215 529 OFFCURVE",
"1216 543 OFFCURVE",
"1216 556 CURVE SMOOTH",
"1216 626 OFFCURVE",
"1171 668 OFFCURVE",
"1112 692 CURVE SMOOTH",
"1059 713 OFFCURVE",
"971 725 OFFCURVE",
"875 725 CURVE SMOOTH",
"689 725 OFFCURVE",
"476 678 OFFCURVE",
"449 554 CURVE SMOOTH",
"446 538 OFFCURVE",
"449 514 OFFCURVE",
"472 514 CURVE SMOOTH",
"486 514 OFFCURVE",
"497 523 OFFCURVE",
"507 533 CURVE SMOOTH",
"594 621 OFFCURVE",
"775 647 OFFCURVE",
"883 647 CURVE SMOOTH",
"1046 647 OFFCURVE",
"1107 596 OFFCURVE",
"1107 539 CURVE SMOOTH",
"1107 470 OFFCURVE",
"1018 393 OFFCURVE",
"916 390 CURVE SMOOTH",
"910 390 OFFCURVE",
"906 385 OFFCURVE",
"906 380 CURVE SMOOTH",
"906 375 OFFCURVE",
"910 370 OFFCURVE",
"917 370 CURVE SMOOTH"
);
}
);
width = 1220;
}
);
note = B;
unicode = 0042;
},
{
glyphname = C;
lastChange = "2021-11-15 12:52:57 +0000";
layers = (
{
anchors = (
{
name = bottom;
position = "{228, -33}";
},
{
name = top;
position = "{605, 736}";
}
);
background = {
paths = (
{
closed = 1;
nodes = (
"930 716 OFFCURVE",
"822 401 OFFCURVE",
"550 401 CURVE SMOOTH",
"484 401 OFFCURVE",
"386 425 OFFCURVE",
"379 493 CURVE SMOOTH",
"378 506 OFFCURVE",
"358 504 OFFCURVE",
"359 491 CURVE SMOOTH",
"368 404 OFFCURVE",
"487 381 OFFCURVE",
"550 381 CURVE SMOOTH",
"851 381 OFFCURVE",
"956 736 OFFCURVE",
"605 736 CURVE SMOOTH",
"342 736 OFFCURVE",
"8 485 OFFCURVE",
"8 201 CURVE SMOOTH",
"8 59 OFFCURVE",
"103 -29 OFFCURVE",
"242 -29 CURVE SMOOTH",
"371 -29 OFFCURVE",
"510 32 OFFCURVE",
"569 155 CURVE SMOOTH",
"574 166 OFFCURVE",
"591 208 OFFCURVE",
"591 222 CURVE SMOOTH",
"591 243 OFFCURVE",
"582 252 OFFCURVE",
"562 252 CURVE SMOOTH",
"525 252 OFFCURVE",
"519 226 OFFCURVE",
"507 199 CURVE SMOOTH",
"474 123 OFFCURVE",
"338 49 OFFCURVE",
"258 49 CURVE SMOOTH",
"163 49 OFFCURVE",
"107 109 OFFCURVE",
"107 203 CURVE SMOOTH",
"107 417 OFFCURVE",
"391 666 OFFCURVE",
"598 666 CURVE SMOOTH",
"882 666 OFFCURVE",
"736 444 OFFCURVE",
"558 444 CURVE SMOOTH",
"514 444 OFFCURVE",
"423 477 OFFCURVE",
"415 517 CURVE SMOOTH",
"413 530 OFFCURVE",
"393 527 OFFCURVE",
"395 514 CURVE SMOOTH",
"405 456 OFFCURVE",
"515 424 OFFCURVE",
"558 424 CURVE SMOOTH",
"766 424 OFFCURVE",
"908 686 OFFCURVE",
"598 686 CURVE SMOOTH",
"382 686 OFFCURVE",
"87 430 OFFCURVE",
"87 203 CURVE SMOOTH",
"87 98 OFFCURVE",
"151 29 OFFCURVE",
"258 29 CURVE SMOOTH",
"346 29 OFFCURVE",
"461 97 OFFCURVE",
"512 166 CURVE SMOOTH",
"529 190 OFFCURVE",
"531 232 OFFCURVE",
"562 232 CURVE SMOOTH",
"565 232 OFFCURVE",
"568 232 OFFCURVE",
"570 230 CURVE",
"570 230 OFFCURVE",
"571 229 OFFCURVE",
"571 222 CURVE SMOOTH",
"571 213 OFFCURVE",
"556 175 OFFCURVE",
"551 164 CURVE SMOOTH",
"495 50 OFFCURVE",
"366 -9 OFFCURVE",
"242 -9 CURVE SMOOTH",
"113 -9 OFFCURVE",
"28 71 OFFCURVE",
"28 201 CURVE SMOOTH",
"28 470 OFFCURVE",
"350 716 OFFCURVE",
"605 716 CURVE SMOOTH"
);
}
);
};
layerId = "6B4F01CB-8044-4D82-912B-2C5A8D883AAC";
paths = (
{
closed = 1;
nodes = (
"371 -29 OFFCURVE",
"510 32 OFFCURVE",
"569 155 CURVE SMOOTH",
"574 166 OFFCURVE",
"591 208 OFFCURVE",
"591 222 CURVE SMOOTH",
"591 243 OFFCURVE",
"582 252 OFFCURVE",
"562 252 CURVE SMOOTH",
"525 252 OFFCURVE",
"519 226 OFFCURVE",
"507 199 CURVE SMOOTH",
"474 123 OFFCURVE",
"338 49 OFFCURVE",
"258 49 CURVE SMOOTH",
"163 49 OFFCURVE",
"107 109 OFFCURVE",
"107 203 CURVE SMOOTH",
"107 417 OFFCURVE",
"391 666 OFFCURVE",
"598 666 CURVE SMOOTH",
"714 666 OFFCURVE",
"758 629 OFFCURVE",
"758 586 CURVE SMOOTH",
"758 522 OFFCURVE",
"664 444 OFFCURVE",
"558 444 CURVE SMOOTH",
"514 444 OFFCURVE",
"423 477 OFFCURVE",
"415 517 CURVE SMOOTH",
"414 523 OFFCURVE",
"410 525 OFFCURVE",
"405 525 CURVE SMOOTH",
"400 525 OFFCURVE",
"395 522 OFFCURVE",
"395 516 CURVE SMOOTH",
"395 514 LINE SMOOTH",
"395 455 OFFCURVE",
"515 424 OFFCURVE",
"558 424 CURVE SMOOTH",
"679 424 OFFCURVE",
"778 513 OFFCURVE",
"778 587 CURVE SMOOTH",
"778 640 OFFCURVE",
"727 686 OFFCURVE",
"598 686 CURVE SMOOTH",
"382 686 OFFCURVE",
"87 430 OFFCURVE",
"87 203 CURVE SMOOTH",
"87 98 OFFCURVE",
"151 29 OFFCURVE",
"258 29 CURVE SMOOTH",
"346 29 OFFCURVE",
"461 97 OFFCURVE",
"512 166 CURVE SMOOTH",
"529 190 OFFCURVE",
"531 232 OFFCURVE",
"562 232 CURVE SMOOTH",
"565 232 OFFCURVE",
"568 232 OFFCURVE",
"570 230 CURVE",
"570 230 OFFCURVE",
"571 229 OFFCURVE",
"571 222 CURVE SMOOTH",
"571 213 OFFCURVE",
"556 175 OFFCURVE",
"551 164 CURVE SMOOTH",
"495 50 OFFCURVE",
"366 -9 OFFCURVE",
"242 -9 CURVE SMOOTH",
"113 -9 OFFCURVE",
"28 71 OFFCURVE",
"28 201 CURVE SMOOTH",
"28 470 OFFCURVE",
"350 716 OFFCURVE",
"605 716 CURVE SMOOTH",
"746 716 OFFCURVE",
"805 657 OFFCURVE",
"805 590 CURVE SMOOTH",
"805 502 OFFCURVE",
"704 401 OFFCURVE",
"550 401 CURVE SMOOTH",
"484 401 OFFCURVE",
"386 425 OFFCURVE",
"379 493 CURVE SMOOTH",
"379 499 OFFCURVE",
"374 502 OFFCURVE",
"369 502 CURVE SMOOTH",
"364 502 OFFCURVE",
"359 498 OFFCURVE",
"359 492 CURVE SMOOTH",
"359 491 LINE SMOOTH",
"359 404 OFFCURVE",
"487 381 OFFCURVE",
"550 381 CURVE SMOOTH",
"719 381 OFFCURVE",
"826 492 OFFCURVE",
"826 590 CURVE SMOOTH",
"826 667 OFFCURVE",
"759 736 OFFCURVE",
"605 736 CURVE SMOOTH",
"342 736 OFFCURVE",
"8 485 OFFCURVE",
"8 201 CURVE SMOOTH",
"8 59 OFFCURVE",
"103 -29 OFFCURVE",
"242 -29 CURVE SMOOTH"
);
}
);
width = 720;
}
);
note = C;
unicode = 0043;
},
{
glyphname = D;
lastChange = "2021-11-15 12:52:57 +0000";
layers = (
{
anchors = (
{
name = bottom;
position = "{580, 0}";
},
{
name = center;
position = "{651, 328}";
},
{
name = top;
position = "{981, 713}";
}
);
background = {
paths = (
{
closed = 1;
nodes = (
"856 592 OFFCURVE",
"839 603 OFFCURVE",
"832 592 CURVE SMOOTH",
"787 524 OFFCURVE",
"730 434 OFFCURVE",
"703 395 CURVE SMOOTH",
"524 143 OFFCURVE",
"332 -14 OFFCURVE",
"114 -14 CURVE SMOOTH",
"88 -14 OFFCURVE",
"124 19 OFFCURVE",
"129 19 CURVE SMOOTH",
"297 19 OFFCURVE",
"497 203 OFFCURVE",
"605 351 CURVE SMOOTH",
"651 414 OFFCURVE",
"748 534 OFFCURVE",
"787 594 CURVE SMOOTH",
"794 605 OFFCURVE",
"778 616 OFFCURVE",
"770 604 CURVE SMOOTH",
"732 546 OFFCURVE",
"635 426 OFFCURVE",
"589 363 CURVE SMOOTH",
"481 215 OFFCURVE",
"286 39 OFFCURVE",
"129 39 CURVE SMOOTH",
"98 39 OFFCURVE",
"57 -34 OFFCURVE",
"114 -34 CURVE SMOOTH",
"342 -34 OFFCURVE",
"540 131 OFFCURVE",
"719 383 CURVE SMOOTH",
"747 423 OFFCURVE",
"803 512 OFFCURVE",
"848 581 CURVE SMOOTH"
);
},
{
closed = 1;
nodes = (
"1199 627 OFFCURVE",
"970 737 OFFCURVE",
"712 737 CURVE SMOOTH",
"17 737 OFFCURVE",
"-179 149 OFFCURVE",
"178 149 CURVE SMOOTH",
"267 149 OFFCURVE",
"373 199 OFFCURVE",
"454 290 CURVE SMOOTH",
"498 340 OFFCURVE",
"602 495 OFFCURVE",
"558 563 CURVE SMOOTH",
"544 584 OFFCURVE",
"492 573 OFFCURVE",
"503 543 CURVE SMOOTH",
"513 517 OFFCURVE",
"470 402 OFFCURVE",
"404 328 CURVE SMOOTH",
"346 262 OFFCURVE",
"256 222 OFFCURVE",
"187 222 CURVE SMOOTH",
"106 222 OFFCURVE",
"75 266 OFFCURVE",
"87 325 CURVE SMOOTH",
"117 467 OFFCURVE",
"326 660 OFFCURVE",
"704 660 CURVE SMOOTH",
"916 660 OFFCURVE",
"1080 567 OFFCURVE",
"1035 357 CURVE SMOOTH",
"997 178 OFFCURVE",
"734 -2 OFFCURVE",
"557 111 CURVE SMOOTH",
"546 118 OFFCURVE",
"535 102 OFFCURVE",
"546 95 CURVE SMOOTH",
"740 -29 OFFCURVE",
"1014 166 OFFCURVE",
"1054 353 CURVE SMOOTH",
"1103 583 OFFCURVE",
"919 680 OFFCURVE",
"704 680 CURVE SMOOTH",
"321 680 OFFCURVE",
"101 483 OFFCURVE",
"68 329 CURVE SMOOTH",
"52 256 OFFCURVE",
"95 202 OFFCURVE",
"187 202 CURVE SMOOTH",
"262 202 OFFCURVE",
"358 245 OFFCURVE",
"419 314 CURVE SMOOTH",
"484 388 OFFCURVE",
"537 512 OFFCURVE",
"522 551 CURVE",
"525 554 OFFCURVE",
"539 555 OFFCURVE",
"541 552 CURVE SMOOTH",
"575 499 OFFCURVE",
"488 358 OFFCURVE",
"439 303 CURVE SMOOTH",
"361 216 OFFCURVE",
"260 169 OFFCURVE",
"178 169 CURVE SMOOTH",
"-151 169 OFFCURVE",
"51 717 OFFCURVE",
"712 717 CURVE SMOOTH",
"969 717 OFFCURVE",
"1175 609 OFFCURVE",
"1121 355 CURVE SMOOTH",
"1070 113 OFFCURVE",
"709 -92 OFFCURVE",
"514 73 CURVE SMOOTH",
"504 81 OFFCURVE",
"491 66 OFFCURVE",
"501 57 CURVE SMOOTH",
"713 -122 OFFCURVE",
"1088 101 OFFCURVE",
"1141 351 CURVE SMOOTH"
);
}
);
};
layerId = "6B4F01CB-8044-4D82-912B-2C5A8D883AAC";
paths = (
{
closed = 1;
nodes = (
"554 12 OFFCURVE",
"618 -8 OFFCURVE",
"685 -8 CURVE SMOOTH",
"882 -8 OFFCURVE",
"1101 164 OFFCURVE",
"1141 351 CURVE SMOOTH",
"1147 380 OFFCURVE",
"1150 408 OFFCURVE",
"1150 433 CURVE SMOOTH",
"1150 649 OFFCURVE",
"943 737 OFFCURVE",
"712 737 CURVE SMOOTH",
"245 737 OFFCURVE",
"3 471 OFFCURVE",
"3 297 CURVE SMOOTH",
"3 212 OFFCURVE",
"61 149 OFFCURVE",
"178 149 CURVE SMOOTH",
"267 149 OFFCURVE",
"373 199 OFFCURVE",
"454 290 CURVE SMOOTH",
"491 332 OFFCURVE",
"569 446 OFFCURVE",
"569 522 CURVE SMOOTH",
"569 538 OFFCURVE",
"565 552 OFFCURVE",
"558 563 CURVE SMOOTH",
"553 570 OFFCURVE",
"543 574 OFFCURVE",
"533 574 CURVE SMOOTH",
"517 574 OFFCURVE",
"501 566 OFFCURVE",
"501 551 CURVE SMOOTH",
"501 548 OFFCURVE",
"502 546 OFFCURVE",
"503 543 CURVE SMOOTH",
"504 540 OFFCURVE",
"504 537 OFFCURVE",
"504 533 CURVE SMOOTH",
"504 495 OFFCURVE",
"464 395 OFFCURVE",
"404 328 CURVE SMOOTH",
"346 262 OFFCURVE",
"256 222 OFFCURVE",
"187 222 CURVE SMOOTH",
"117 222 OFFCURVE",
"85 255 OFFCURVE",
"85 302 CURVE SMOOTH",
"85 309 OFFCURVE",
"85 317 OFFCURVE",
"87 325 CURVE SMOOTH",
"117 467 OFFCURVE",
"326 660 OFFCURVE",
"704 660 CURVE SMOOTH",
"892 660 OFFCURVE",
"1042 587 OFFCURVE",
"1042 423 CURVE SMOOTH",
"1042 403 OFFCURVE",
"1040 381 OFFCURVE",
"1035 357 CURVE SMOOTH",
"1005 217 OFFCURVE",
"837 76 OFFCURVE",
"681 76 CURVE SMOOTH",
"638 76 OFFCURVE",
"595 87 OFFCURVE",
"557 111 CURVE SMOOTH",
"549 116 OFFCURVE",
"541 109 OFFCURVE",
"541 103 CURVE SMOOTH",
"541 100 OFFCURVE",
"543 97 OFFCURVE",
"546 95 CURVE SMOOTH",
"588 68 OFFCURVE",
"635 56 OFFCURVE",
"682 56 CURVE SMOOTH",
"849 56 OFFCURVE",
"1023 207 OFFCURVE",
"1054 353 CURVE SMOOTH",
"1059 378 OFFCURVE",
"1062 402 OFFCURVE",
"1062 424 CURVE SMOOTH",
"1062 603 OFFCURVE",
"895 680 OFFCURVE",
"704 680 CURVE SMOOTH",
"321 680 OFFCURVE",
"101 483 OFFCURVE",
"68 329 CURVE SMOOTH",
"66 319 OFFCURVE",
"65 309 OFFCURVE",
"65 300 CURVE SMOOTH",
"65 242 OFFCURVE",
"108 202 OFFCURVE",
"187 202 CURVE SMOOTH",
"262 202 OFFCURVE",
"358 245 OFFCURVE",
"419 314 CURVE SMOOTH",
"476 379 OFFCURVE",
"525 484 OFFCURVE",
"525 534 CURVE SMOOTH",
"525 541 OFFCURVE",
"524 546 OFFCURVE",
"522 551 CURVE",
"524 553 OFFCURVE",
"529 554 OFFCURVE",
"534 554 CURVE SMOOTH",
"537 554 OFFCURVE",
"540 553 OFFCURVE",
"541 552 CURVE SMOOTH",
"546 544 OFFCURVE",
"549 533 OFFCURVE",
"549 521 CURVE SMOOTH",
"549 457 OFFCURVE",
"480 349 OFFCURVE",
"439 303 CURVE SMOOTH",
"361 216 OFFCURVE",
"260 169 OFFCURVE",
"178 169 CURVE SMOOTH",
"74 169 OFFCURVE",
"23 224 OFFCURVE",
"23 299 CURVE SMOOTH",
"23 461 OFFCURVE",
"260 717 OFFCURVE",
"712 717 CURVE SMOOTH",
"941 717 OFFCURVE",
"1130 631 OFFCURVE",
"1130 433 CURVE SMOOTH",
"1130 408 OFFCURVE",
"1127 383 OFFCURVE",
"1121 355 CURVE SMOOTH",
"1083 174 OFFCURVE",
"871 13 OFFCURVE",
"685 13 CURVE SMOOTH",
"623 13 OFFCURVE",
"563 32 OFFCURVE",
"514 73 CURVE SMOOTH",
"507 79 OFFCURVE",
"497 72 OFFCURVE",
"497 65 CURVE SMOOTH",
"497 62 OFFCURVE",
"498 59 OFFCURVE",
"501 57 CURVE SMOOTH"
);
},
{
closed = 1;
nodes = (
"342 -34 OFFCURVE",
"540 131 OFFCURVE",
"719 383 CURVE SMOOTH",
"747 423 OFFCURVE",
"803 512 OFFCURVE",
"848 581 CURVE SMOOTH",
"854 589 OFFCURVE",
"847 597 OFFCURVE",
"840 597 CURVE SMOOTH",
"837 597 OFFCURVE",
"834 595 OFFCURVE",
"832 592 CURVE SMOOTH",
"787 524 OFFCURVE",
"730 434 OFFCURVE",
"703 395 CURVE SMOOTH",
"524 143 OFFCURVE",
"332 -14 OFFCURVE",
"114 -14 CURVE SMOOTH",
"107 -14 OFFCURVE",
"105 -12 OFFCURVE",
"105 -8 CURVE SMOOTH",
"105 1 OFFCURVE",
"125 19 OFFCURVE",
"129 19 CURVE SMOOTH",
"297 19 OFFCURVE",
"497 203 OFFCURVE",
"605 351 CURVE SMOOTH",
"651 414 OFFCURVE",
"748 534 OFFCURVE",
"787 594 CURVE SMOOTH",
"792 602 OFFCURVE",
"786 609 OFFCURVE",
"779 609 CURVE SMOOTH",
"776 609 OFFCURVE",
"772 608 OFFCURVE",
"770 604 CURVE SMOOTH",
"732 546 OFFCURVE",
"635 426 OFFCURVE",
"589 363 CURVE SMOOTH",
"481 215 OFFCURVE",
"286 39 OFFCURVE",
"129 39 CURVE SMOOTH",
"109 39 OFFCURVE",
"86 9 OFFCURVE",
"86 -12 CURVE SMOOTH",
"86 -24 OFFCURVE",
"93 -34 OFFCURVE",
"114 -34 CURVE SMOOTH"
);
}
);
width = 1159;
}
);
note = D;
unicode = 0044;
},
{
color = 1;
glyphname = Eth;
lastChange = "2021-11-15 13:00:00 +0000";
layers = (
{
anchors = (
{
name = bottom;
position = "{580, 0}";
},
{
name = center;
position = "{651, 328}";
},
{
name = top;
position = "{981, 713}";
}
);
background = {
components = (
{
name = D;
},
{
name = strokeshortcomb;
}
);
};
components = (
{
name = D;
}
);
layerId = "6B4F01CB-8044-4D82-912B-2C5A8D883AAC";
paths = (
{
closed = 1;
nodes = (
"880 315 OFFCURVE",
"890 332 OFFCURVE",
"890 347 CURVE SMOOTH",
"890 362 OFFCURVE",
"880 378 OFFCURVE",
"858 378 CURVE SMOOTH",
"736 378 LINE SMOOTH",
"730 378 OFFCURVE",
"727 374 OFFCURVE",
"727 369 CURVE SMOOTH",
"727 365 OFFCURVE",
"730 361 OFFCURVE",
"736 361 CURVE SMOOTH",
"858 361 LINE SMOOTH",
"868 361 OFFCURVE",
"872 355 OFFCURVE",
"872 347 CURVE SMOOTH",
"872 339 OFFCURVE",
"868 333 OFFCURVE",
"858 333 CURVE SMOOTH",
"709 333 LINE SMOOTH",
"703 333 OFFCURVE",
"700 329 OFFCURVE",
"700 324 CURVE SMOOTH",
"700 320 OFFCURVE",
"703 315 OFFCURVE",
"709 315 CURVE SMOOTH",
"858 315 LINE SMOOTH"
);
},
{
closed = 1;
nodes = (
"544 315 OFFCURVE",
"547 319 OFFCURVE",
"547 324 CURVE SMOOTH",
"547 328 OFFCURVE",
"544 332 OFFCURVE",
"538 332 CURVE SMOOTH",
"535 332 LINE SMOOTH",
"526 332 OFFCURVE",
"521 338 OFFCURVE",
"521 346 CURVE SMOOTH",
"521 355 OFFCURVE",
"525 360 OFFCURVE",
"535 360 CURVE SMOOTH",
"559 360 LINE SMOOTH",
"565 360 OFFCURVE",
"568 364 OFFCURVE",
"568 369 CURVE SMOOTH",
"568 373 OFFCURVE",
"565 378 OFFCURVE",
"559 378 CURVE SMOOTH",
"535 378 LINE SMOOTH",
"515 378 OFFCURVE",
"505 361 OFFCURVE",
"504 346 CURVE SMOOTH",
"504 332 OFFCURVE",
"515 315 OFFCURVE",
"535 315 CURVE SMOOTH",
"538 315 LINE SMOOTH"
);
}
);
width = 1159;
}
);
unicode = 00D0;
},
{
glyphname = E;
lastChange = "2021-11-15 12:52:57 +0000";
layers = (
{
anchors = (
{
name = bottom;
position = "{293, -2}";
},
{
name = ogonek;
position = "{551, 49}";
},
{
name = top;
position = "{605, 672}";
},
{
name = topleft;
position = "{20, 750}";
}
);
background = {
paths = (
{
closed = 1;
nodes = (
"707 365 OFFCURVE",
"669 344 OFFCURVE",
"657 340 CURVE SMOOTH",
"562 310 OFFCURVE",
"325 310 OFFCURVE",
"271 311 CURVE SMOOTH",
"270 311 OFFCURVE",
"264 309 OFFCURVE",
"263 308 CURVE SMOOTH",
"231 270 OFFCURVE",
"64 74 OFFCURVE",
"195 51 CURVE SMOOTH",
"258 40 OFFCURVE",
"498 82 OFFCURVE",
"549 102 CURVE SMOOTH",
"563 108 OFFCURVE",
"569 106 OFFCURVE",
"570 105 CURVE",
"575 91 OFFCURVE",
"556 71 OFFCURVE",
"544 67 CURVE SMOOTH",
"433 27 OFFCURVE",
"263 11 OFFCURVE",
"164 11 CURVE SMOOTH",
"102 11 OFFCURVE",
"46 27 OFFCURVE",
"63 91 CURVE SMOOTH",
"79 151 OFFCURVE",
"130 227 OFFCURVE",
"179 288 CURVE SMOOTH",
"187 298 OFFCURVE",
"172 311 OFFCURVE",
"164 300 CURVE SMOOTH",
"98 217 OFFCURVE",
"-75 -9 OFFCURVE",
"164 -9 CURVE SMOOTH",
"264 -9 OFFCURVE",
"437 8 OFFCURVE",
"551 49 CURVE SMOOTH",
"601 67 OFFCURVE",
"611 148 OFFCURVE",
"542 120 CURVE SMOOTH",
"494 101 OFFCURVE",
"257 60 OFFCURVE",
"199 70 CURVE SMOOTH",
"172 75 OFFCURVE",
"160 87 OFFCURVE",
"168 118 CURVE SMOOTH",
"184 179 OFFCURVE",
"228 236 OFFCURVE",
"276 291 CURVE",
"337 290 OFFCURVE",
"566 291 OFFCURVE",
"663 321 CURVE SMOOTH",
"736 344 OFFCURVE",
"746 426 OFFCURVE",
"678 402 CURVE SMOOTH",
"598 374 OFFCURVE",
"405 379 OFFCURVE",
"315 379 CURVE SMOOTH",
"302 379 OFFCURVE",
"302 359 OFFCURVE",
"315 359 CURVE SMOOTH",
"409 359 OFFCURVE",
"601 354 OFFCURVE",
"685 383 CURVE SMOOTH",
"699 388 OFFCURVE",
"703 386 OFFCURVE",
"704 386 CURVE"
);
},
{
closed = 1;
nodes = (
"541 572 OFFCURVE",
"484 621 OFFCURVE",
"446 598 CURVE SMOOTH",
"402 572 OFFCURVE",
"280 434 OFFCURVE",
"239 388 CURVE",
"208 393 OFFCURVE",
"177 397 OFFCURVE",
"144 397 CURVE SMOOTH",
"57 397 OFFCURVE",
"46 303 OFFCURVE",
"146 303 CURVE SMOOTH",
"159 303 OFFCURVE",
"159 323 OFFCURVE",
"146 323 CURVE SMOOTH",
"72 323 OFFCURVE",
"85 377 OFFCURVE",
"144 377 CURVE SMOOTH",
"178 377 OFFCURVE",
"210 372 OFFCURVE",
"241 368 CURVE SMOOTH",
"243 368 OFFCURVE",
"249 370 OFFCURVE",
"250 371 CURVE SMOOTH",
"289 415 OFFCURVE",
"414 556 OFFCURVE",
"456 581 CURVE SMOOTH",
"473 591 OFFCURVE",
"508 572 OFFCURVE",
"488 556 CURVE SMOOTH",
"441 519 OFFCURVE",
"392 457 OFFCURVE",
"346 413 CURVE SMOOTH",
"337 404 OFFCURVE",
"350 390 OFFCURVE",
"360 399 CURVE SMOOTH",
"395 432 OFFCURVE",
"420 459 OFFCURVE",
"441 482 CURVE SMOOTH",
"462 505 OFFCURVE",
"480 524 OFFCURVE",
"501 540 CURVE SMOOTH"
);
},
{
closed = 1;
nodes = (
"796 664 OFFCURVE",
"761 732 OFFCURVE",
"701 694 CURVE SMOOTH",
"680 680 OFFCURVE",
"642 670 OFFCURVE",
"585 673 CURVE SMOOTH",
"451 680 OFFCURVE",
"361 776 OFFCURVE",
"220 764 CURVE SMOOTH",
"45 748 OFFCURVE",
"-82 563 OFFCURVE",
"4 396 CURVE SMOOTH",
"10 384 OFFCURVE",
"28 393 OFFCURVE",
"22 405 CURVE SMOOTH",
"-57 557 OFFCURVE",
"59 729 OFFCURVE",
"222 744 CURVE SMOOTH",
"324 753 OFFCURVE",
"395 703 OFFCURVE",
"485 673 CURVE SMOOTH",
"550 651 OFFCURVE",
"652 639 OFFCURVE",
"712 677 CURVE SMOOTH",
"749 701 OFFCURVE",
"762 668 OFFCURVE",
"728 648 CURVE SMOOTH",
"689 625 OFFCURVE",
"634 612 OFFCURVE",
"567 616 CURVE SMOOTH",
"439 625 OFFCURVE",
"354 714 OFFCURVE",
"213 701 CURVE SMOOTH",
"77 689 OFFCURVE",
"0 542 OFFCURVE",
"63 403 CURVE SMOOTH",
"68 391 OFFCURVE",
"86 399 OFFCURVE",
"81 411 CURVE SMOOTH",
"22 540 OFFCURVE",
"95 670 OFFCURVE",
"215 681 CURVE SMOOTH",
"315 690 OFFCURVE",
"384 644 OFFCURVE",
"473 615 CURVE SMOOTH",
"557 587 OFFCURVE",
"659 585 OFFCURVE",
"738 631 CURVE SMOOTH"
);
}
);
};
layerId = "6B4F01CB-8044-4D82-912B-2C5A8D883AAC";
paths = (
{
closed = 1;
nodes = (
"6 392 OFFCURVE",
"9 390 OFFCURVE",
"13 390 CURVE SMOOTH",
"18 390 OFFCURVE",
"23 394 OFFCURVE",
"23 400 CURVE SMOOTH",
"23 402 OFFCURVE",
"23 403 OFFCURVE",
"22 405 CURVE SMOOTH",
"4 439 OFFCURVE",
"-4 473 OFFCURVE",
"-4 507 CURVE SMOOTH",
"-4 632 OFFCURVE",
"107 745 OFFCURVE",
"246 745 CURVE SMOOTH",
"336 745 OFFCURVE",
"402 701 OFFCURVE",
"485 673 CURVE SMOOTH",
"520 661 OFFCURVE",
"565 652 OFFCURVE",
"608 652 CURVE SMOOTH",
"647 652 OFFCURVE",
"684 659 OFFCURVE",
"712 677 CURVE SMOOTH",
"721 683 OFFCURVE",
"729 685 OFFCURVE",
"735 685 CURVE SMOOTH",
"743 685 OFFCURVE",
"748 680 OFFCURVE",
"748 674 CURVE SMOOTH",
"748 666 OFFCURVE",
"742 656 OFFCURVE",
"728 648 CURVE SMOOTH",
"694 628 OFFCURVE",
"647 615 OFFCURVE",
"591 615 CURVE SMOOTH",
"583 615 OFFCURVE",
"575 616 OFFCURVE",
"567 616 CURVE SMOOTH",
"448 624 OFFCURVE",
"366 702 OFFCURVE",
"241 702 CURVE SMOOTH",
"232 702 OFFCURVE",
"223 702 OFFCURVE",
"213 701 CURVE SMOOTH",
"110 692 OFFCURVE",
"41 605 OFFCURVE",
"41 503 CURVE SMOOTH",
"41 471 OFFCURVE",
"48 437 OFFCURVE",
"63 403 CURVE SMOOTH",
"65 399 OFFCURVE",
"68 397 OFFCURVE",
"71 397 CURVE SMOOTH",
"77 397 OFFCURVE",
"82 401 OFFCURVE",
"82 407 CURVE SMOOTH",
"82 408 OFFCURVE",
"82 410 OFFCURVE",
"81 411 CURVE",
"67 442 OFFCURVE",
"60 474 OFFCURVE",
"60 503 CURVE SMOOTH",
"60 596 OFFCURVE",
"124 673 OFFCURVE",
"215 681 CURVE SMOOTH",
"224 682 OFFCURVE",
"232 682 OFFCURVE",
"240 682 CURVE SMOOTH",
"327 682 OFFCURVE",
"392 641 OFFCURVE",
"473 615 CURVE SMOOTH",
"511 602 OFFCURVE",
"553 595 OFFCURVE",
"594 595 CURVE SMOOTH",
"645 595 OFFCURVE",
"695 606 OFFCURVE",
"738 631 CURVE SMOOTH",
"759 643 OFFCURVE",
"768 659 OFFCURVE",
"768 674 CURVE SMOOTH",
"768 691 OFFCURVE",
"755 705 OFFCURVE",
"735 705 CURVE SMOOTH",
"725 705 OFFCURVE",
"713 702 OFFCURVE",
"701 694 CURVE SMOOTH",
"683 682 OFFCURVE",
"651 672 OFFCURVE",
"605 672 CURVE SMOOTH",
"468 672 OFFCURVE",
"379 765 OFFCURVE",
"244 765 CURVE SMOOTH",
"97 765 OFFCURVE",
"-24 643 OFFCURVE",
"-24 507 CURVE SMOOTH",
"-24 471 OFFCURVE",
"-15 433 OFFCURVE",
"4 396 CURVE SMOOTH"
);
},
{
closed = 1;
nodes = (
"264 -9 OFFCURVE",
"437 8 OFFCURVE",
"551 49 CURVE SMOOTH",
"576 58 OFFCURVE",
"591 83 OFFCURVE",
"591 102 CURVE SMOOTH",
"591 115 OFFCURVE",
"584 126 OFFCURVE",
"567 126 CURVE SMOOTH",
"560 126 OFFCURVE",
"552 124 OFFCURVE",
"542 120 CURVE SMOOTH",
"499 103 OFFCURVE",
"305 68 OFFCURVE",
"223 68 CURVE SMOOTH",
"213 68 OFFCURVE",
"205 69 OFFCURVE",
"199 70 CURVE SMOOTH",
"178 74 OFFCURVE",
"166 82 OFFCURVE",
"166 101 CURVE SMOOTH",
"166 106 OFFCURVE",
"166 112 OFFCURVE",
"168 118 CURVE SMOOTH",
"184 179 OFFCURVE",
"228 236 OFFCURVE",
"276 291 CURVE",
"308 291 LINE SMOOTH",
"395 291 OFFCURVE",
"579 295 OFFCURVE",
"663 321 CURVE SMOOTH",
"703 333 OFFCURVE",
"724 363 OFFCURVE",
"724 384 CURVE SMOOTH",
"724 397 OFFCURVE",
"716 406 OFFCURVE",
"700 406 CURVE SMOOTH",
"694 406 OFFCURVE",
"687 405 OFFCURVE",
"678 402 CURVE SMOOTH",
"619 381 OFFCURVE",
"499 379 OFFCURVE",
"404 379 CURVE SMOOTH",
"315 379 LINE SMOOTH",
"309 379 OFFCURVE",
"305 374 OFFCURVE",
"305 369 CURVE SMOOTH",
"305 364 OFFCURVE",
"309 359 OFFCURVE",
"315 359 CURVE SMOOTH",
"403 359 LINE SMOOTH",
"500 359 OFFCURVE",
"623 361 OFFCURVE",
"685 383 CURVE SMOOTH",
"693 386 OFFCURVE",
"697 386 OFFCURVE",
"700 386 CURVE SMOOTH",
"704 386 LINE",
"707 365 OFFCURVE",
"669 344 OFFCURVE",
"657 340 CURVE SMOOTH",
"577 315 OFFCURVE",
"395 311 OFFCURVE",
"308 311 CURVE SMOOTH",
"271 311 LINE SMOOTH",
"270 311 OFFCURVE",
"264 309 OFFCURVE",
"263 308 CURVE SMOOTH",
"240 281 OFFCURVE",
"146 170 OFFCURVE",
"146 102 CURVE SMOOTH",
"146 71 OFFCURVE",
"166 49 OFFCURVE",
"223 49 CURVE SMOOTH",
"310 49 OFFCURVE",
"504 84 OFFCURVE",
"549 102 CURVE SMOOTH",
"557 105 OFFCURVE",
"562 106 OFFCURVE",
"565 106 CURVE SMOOTH",
"568 106 OFFCURVE",
"570 105 OFFCURVE",
"570 105 CURVE",
"575 91 OFFCURVE",
"556 71 OFFCURVE",
"544 67 CURVE SMOOTH",
"433 27 OFFCURVE",
"263 11 OFFCURVE",
"164 11 CURVE SMOOTH",
"110 11 OFFCURVE",
"60 23 OFFCURVE",
"60 69 CURVE SMOOTH",
"60 76 OFFCURVE",
"61 83 OFFCURVE",
"63 91 CURVE SMOOTH",
"79 151 OFFCURVE",
"130 227 OFFCURVE",
"179 288 CURVE SMOOTH",
"185 295 OFFCURVE",
"178 304 OFFCURVE",
"171 304 CURVE SMOOTH",
"169 304 OFFCURVE",
"166 303 OFFCURVE",
"164 300 CURVE SMOOTH",
"123 249 OFFCURVE",
"42 143 OFFCURVE",
"42 69 CURVE SMOOTH",
"42 24 OFFCURVE",
"73 -9 OFFCURVE",
"164 -9 CURVE SMOOTH"
);
},
{
closed = 1;
nodes = (
"153 303 OFFCURVE",
"156 308 OFFCURVE",
"156 313 CURVE SMOOTH",
"156 318 OFFCURVE",
"153 323 OFFCURVE",
"146 323 CURVE SMOOTH",
"111 323 OFFCURVE",
"95 335 OFFCURVE",
"95 348 CURVE SMOOTH",
"95 362 OFFCURVE",
"113 377 OFFCURVE",
"144 377 CURVE SMOOTH",
"178 377 OFFCURVE",
"210 372 OFFCURVE",
"241 368 CURVE SMOOTH",
"243 368 OFFCURVE",
"249 370 OFFCURVE",
"250 371 CURVE SMOOTH",
"289 415 OFFCURVE",
"414 556 OFFCURVE",
"456 581 CURVE SMOOTH",
"459 583 OFFCURVE",
"463 584 OFFCURVE",
"467 584 CURVE SMOOTH",
"480 584 OFFCURVE",
"494 576 OFFCURVE",
"494 566 CURVE SMOOTH",
"494 563 OFFCURVE",
"492 559 OFFCURVE",
"488 556 CURVE SMOOTH",
"441 519 OFFCURVE",
"392 457 OFFCURVE",
"346 413 CURVE SMOOTH",
"339 406 OFFCURVE",
"345 396 OFFCURVE",
"353 396 CURVE SMOOTH",
"355 396 OFFCURVE",
"358 397 OFFCURVE",
"360 399 CURVE SMOOTH",
"395 432 OFFCURVE",
"420 459 OFFCURVE",
"441 482 CURVE SMOOTH",
"462 505 OFFCURVE",
"480 524 OFFCURVE",
"501 540 CURVE SMOOTH",
"511 548 OFFCURVE",
"515 556 OFFCURVE",
"515 565 CURVE SMOOTH",
"515 585 OFFCURVE",
"491 604 OFFCURVE",
"468 604 CURVE SMOOTH",
"460 604 OFFCURVE",
"453 602 OFFCURVE",
"446 598 CURVE SMOOTH",
"402 572 OFFCURVE",
"280 434 OFFCURVE",
"239 388 CURVE",
"208 393 OFFCURVE",
"177 397 OFFCURVE",
"144 397 CURVE SMOOTH",
"99 397 OFFCURVE",
"75 372 OFFCURVE",
"75 348 CURVE SMOOTH",
"75 325 OFFCURVE",
"97 303 OFFCURVE",
"146 303 CURVE SMOOTH"
);
}
);
width = 733;
}
);
note = E;
unicode = 0045;
},
{
glyphname = F;
lastChange = "2021-11-15 12:52:57 +0000";
layers = (
{
background = {
paths = (
{
closed = 1;
nodes = (
"1049 368 OFFCURVE",
"1018 345 OFFCURVE",
"1006 340 CURVE SMOOTH",
"939 310 OFFCURVE",
"772 310 OFFCURVE",
"733 311 CURVE SMOOTH",
"723 311 OFFCURVE",
"706 278 OFFCURVE",
"664 232 CURVE SMOOTH",
"576 140 OFFCURVE",
"412 -2 OFFCURVE",
"205 -2 CURVE SMOOTH",
"126 -2 OFFCURVE",
"39 32 OFFCURVE",
"57 115 CURVE SMOOTH",
"78 215 OFFCURVE",
"212 283 OFFCURVE",
"337 283 CURVE SMOOTH",
"371 283 OFFCURVE",
"456 272 OFFCURVE",
"489 241 CURVE SMOOTH",
"518 214 OFFCURVE",
"493 173 OFFCURVE",
"459 205 CURVE SMOOTH",
"439 224 OFFCURVE",
"398 253 OFFCURVE",
"334 253 CURVE SMOOTH",
"108 253 OFFCURVE",
"18 35 OFFCURVE",
"231 35 CURVE SMOOTH",
"333 35 OFFCURVE",
"504 120 OFFCURVE",
"624 266 CURVE SMOOTH",
"632 276 OFFCURVE",
"617 289 OFFCURVE",
"608 278 CURVE SMOOTH",
"490 136 OFFCURVE",
"325 55 OFFCURVE",
"231 55 CURVE SMOOTH",
"42 55 OFFCURVE",
"142 233 OFFCURVE",
"334 233 CURVE SMOOTH",
"391 233 OFFCURVE",
"428 207 OFFCURVE",
"445 191 CURVE SMOOTH",
"498 141 OFFCURVE",
"552 210 OFFCURVE",
"503 256 CURVE SMOOTH",
"463 293 OFFCURVE",
"371 303 OFFCURVE",
"337 303 CURVE SMOOTH",
"209 303 OFFCURVE",
"61 234 OFFCURVE",
"37 119 CURVE SMOOTH",
"14 12 OFFCURVE",
"129 -22 OFFCURVE",
"205 -22 CURVE SMOOTH",
"330 -22 OFFCURVE",
"538 36 OFFCURVE",
"738 291 CURVE",
"783 290 OFFCURVE",
"945 291 OFFCURVE",
"1014 322 CURVE SMOOTH",
"1082 352 OFFCURVE",
"1078 429 OFFCURVE",
"1021 402 CURVE SMOOTH",
"949 367 OFFCURVE",
"866 375 OFFCURVE",
"789 375 CURVE SMOOTH",
"776 375 OFFCURVE",
"776 355 OFFCURVE",
"789 355 CURVE SMOOTH",
"869 355 OFFCURVE",
"955 347 OFFCURVE",
"1030 384 CURVE SMOOTH",
"1041 389 OFFCURVE",
"1044 387 OFFCURVE",
"1044 387 CURVE"
);
},
{
closed = 1;
nodes = (
"890 592 OFFCURVE",
"874 605 OFFCURVE",
"866 594 CURVE SMOOTH",
"837 557 OFFCURVE",
"756 456 OFFCURVE",
"693 376 CURVE",
"625 384 OFFCURVE",
"561 411 OFFCURVE",
"491 404 CURVE SMOOTH",
"446 400 OFFCURVE",
"455 336 OFFCURVE",
"474 322 CURVE SMOOTH",
"505 299 OFFCURVE",
"608 297 OFFCURVE",
"647 294 CURVE SMOOTH",
"661 293 OFFCURVE",
"662 313 OFFCURVE",
"649 314 CURVE SMOOTH",
"616 317 OFFCURVE",
"511 320 OFFCURVE",
"486 338 CURVE SMOOTH",
"471 349 OFFCURVE",
"478 383 OFFCURVE",
"493 384 CURVE SMOOTH",
"527 387 OFFCURVE",
"566 381 OFFCURVE",
"603 374 CURVE SMOOTH",
"611 372 OFFCURVE",
"697 349 OFFCURVE",
"706 360 CURVE SMOOTH",
"768 440 OFFCURVE",
"852 544 OFFCURVE",
"882 582 CURVE SMOOTH"
);
},
{
closed = 1;
nodes = (
"1064 624 OFFCURVE",
"1046 647 OFFCURVE",
"1021 665 CURVE SMOOTH",
"929 729 OFFCURVE",
"719 755 OFFCURVE",
"615 755 CURVE SMOOTH",
"531 755 OFFCURVE",
"352 748 OFFCURVE",
"245 687 CURVE SMOOTH",
"193 657 OFFCURVE",
"139 604 OFFCURVE",
"139 540 CURVE SMOOTH",
"139 459 OFFCURVE",
"205 469 OFFCURVE",
"205 520 CURVE SMOOTH",
"205 559 OFFCURVE",
"240 600 OFFCURVE",
"274 623 CURVE SMOOTH",
"405 710 OFFCURVE",
"760 704 OFFCURVE",
"890 621 CURVE SMOOTH",
"901 614 OFFCURVE",
"912 630 OFFCURVE",
"900 637 CURVE SMOOTH",
"765 724 OFFCURVE",
"401 731 OFFCURVE",
"262 639 CURVE SMOOTH",
"227 616 OFFCURVE",
"185 570 OFFCURVE",
"185 520 CURVE SMOOTH",
"185 492 OFFCURVE",
"159 490 OFFCURVE",
"159 540 CURVE SMOOTH",
"159 593 OFFCURVE",
"204 640 OFFCURVE",
"255 669 CURVE SMOOTH",
"357 728 OFFCURVE",
"530 735 OFFCURVE",
"615 735 CURVE SMOOTH",
"707 735 OFFCURVE",
"820 719 OFFCURVE",
"906 693 CURVE SMOOTH",
"932 685 OFFCURVE",
"1050 648 OFFCURVE",
"1038 602 CURVE SMOOTH",
"1033 584 OFFCURVE",
"1022 581 OFFCURVE",
"1009 583 CURVE SMOOTH",
"984 587 OFFCURVE",
"962 615 OFFCURVE",
"952 602 CURVE",
"952 602 OFFCURVE",
"833 450 OFFCURVE",
"804 411 CURVE SMOOTH",
"796 400 OFFCURVE",
"812 388 OFFCURVE",
"820 399 CURVE SMOOTH",
"845 433 OFFCURVE",
"937 551 OFFCURVE",
"961 582 CURVE",
"992 562 OFFCURVE",
"1043 545 OFFCURVE",
"1057 597 CURVE SMOOTH"
);
}
);
};
layerId = "6B4F01CB-8044-4D82-912B-2C5A8D883AAC";
paths = (
{
closed = 1;
nodes = (
"330 -22 OFFCURVE",
"538 36 OFFCURVE",
"738 291 CURVE",
"783 290 OFFCURVE",
"945 291 OFFCURVE",
"1014 322 CURVE SMOOTH",
"1048 337 OFFCURVE",
"1064 365 OFFCURVE",
"1064 384 CURVE SMOOTH",
"1064 398 OFFCURVE",
"1057 408 OFFCURVE",
"1042 408 CURVE SMOOTH",
"1036 408 OFFCURVE",
"1029 406 OFFCURVE",
"1021 402 CURVE SMOOTH",
"972 378 OFFCURVE",
"917 374 OFFCURVE",
"863 374 CURVE SMOOTH",
"838 374 OFFCURVE",
"813 375 OFFCURVE",
"789 375 CURVE SMOOTH",
"783 375 OFFCURVE",
"779 370 OFFCURVE",
"779 365 CURVE SMOOTH",
"779 360 OFFCURVE",
"783 355 OFFCURVE",
"789 355 CURVE SMOOTH",
"813 355 OFFCURVE",
"838 354 OFFCURVE",
"863 354 CURVE SMOOTH",
"920 354 OFFCURVE",
"978 358 OFFCURVE",
"1030 384 CURVE SMOOTH",
"1036 387 OFFCURVE",
"1040 387 OFFCURVE",
"1042 387 CURVE SMOOTH",
"1044 387 LINE",
"1049 368 OFFCURVE",
"1018 345 OFFCURVE",
"1006 340 CURVE SMOOTH",
"939 310 OFFCURVE",
"772 310 OFFCURVE",
"733 311 CURVE SMOOTH",
"723 311 OFFCURVE",
"706 278 OFFCURVE",
"664 232 CURVE SMOOTH",
"576 140 OFFCURVE",
"412 -2 OFFCURVE",
"205 -2 CURVE SMOOTH",
"133 -2 OFFCURVE",
"55 26 OFFCURVE",
"55 94 CURVE SMOOTH",
"55 100 OFFCURVE",
"55 108 OFFCURVE",
"57 115 CURVE SMOOTH",
"78 215 OFFCURVE",
"212 283 OFFCURVE",
"337 283 CURVE SMOOTH",
"379 283 OFFCURVE",
"501 266 OFFCURVE",
"501 214 CURVE SMOOTH",
"501 203 OFFCURVE",
"494 193 OFFCURVE",
"483 193 CURVE SMOOTH",
"476 193 OFFCURVE",
"468 197 OFFCURVE",
"459 205 CURVE SMOOTH",
"439 224 OFFCURVE",
"398 253 OFFCURVE",
"334 253 CURVE SMOOTH",
"197 253 OFFCURVE",
"110 173 OFFCURVE",
"110 110 CURVE SMOOTH",
"110 69 OFFCURVE",
"147 35 OFFCURVE",
"231 35 CURVE SMOOTH",
"333 35 OFFCURVE",
"504 120 OFFCURVE",
"624 266 CURVE SMOOTH",
"630 273 OFFCURVE",
"623 282 OFFCURVE",
"616 282 CURVE SMOOTH",
"613 282 OFFCURVE",
"610 281 OFFCURVE",
"608 278 CURVE SMOOTH",
"490 136 OFFCURVE",
"325 55 OFFCURVE",
"231 55 CURVE SMOOTH",
"160 55 OFFCURVE",
"130 80 OFFCURVE",
"130 111 CURVE SMOOTH",
"130 163 OFFCURVE",
"214 233 OFFCURVE",
"334 233 CURVE SMOOTH",
"391 233 OFFCURVE",
"428 207 OFFCURVE",
"445 191 CURVE SMOOTH",
"458 179 OFFCURVE",
"471 174 OFFCURVE",
"482 174 CURVE SMOOTH",
"505 174 OFFCURVE",
"522 193 OFFCURVE",
"522 216 CURVE SMOOTH",
"522 229 OFFCURVE",
"517 243 OFFCURVE",
"503 256 CURVE SMOOTH",
"463 293 OFFCURVE",
"371 303 OFFCURVE",
"337 303 CURVE SMOOTH",
"209 303 OFFCURVE",
"61 234 OFFCURVE",
"37 119 CURVE SMOOTH",
"35 110 OFFCURVE",
"34 101 OFFCURVE",
"34 92 CURVE SMOOTH",
"34 6 OFFCURVE",
"136 -22 OFFCURVE",
"205 -22 CURVE SMOOTH"
);
},
{
closed = 1;
nodes = (
"654 293 OFFCURVE",
"658 299 OFFCURVE",
"658 304 CURVE SMOOTH",
"658 309 OFFCURVE",
"655 314 OFFCURVE",
"649 314 CURVE SMOOTH",
"616 317 OFFCURVE",
"511 320 OFFCURVE",
"486 338 CURVE SMOOTH",
"480 342 OFFCURVE",
"478 350 OFFCURVE",
"478 358 CURVE SMOOTH",
"478 370 OFFCURVE",
"484 383 OFFCURVE",
"493 384 CURVE SMOOTH",
"527 387 OFFCURVE",
"566 381 OFFCURVE",
"603 374 CURVE",
"609 372 OFFCURVE",
"667 357 OFFCURVE",
"693 357 CURVE SMOOTH",
"700 357 OFFCURVE",
"704 358 OFFCURVE",
"706 360 CURVE SMOOTH",
"768 440 OFFCURVE",
"852 544 OFFCURVE",
"882 582 CURVE SMOOTH",
"888 589 OFFCURVE",
"881 598 OFFCURVE",
"874 598 CURVE SMOOTH",
"871 598 OFFCURVE",
"868 597 OFFCURVE",
"866 594 CURVE SMOOTH",
"837 557 OFFCURVE",
"756 456 OFFCURVE",
"693 376 CURVE",
"633 383 OFFCURVE",
"575 405 OFFCURVE",
"514 405 CURVE SMOOTH",
"507 405 OFFCURVE",
"499 405 OFFCURVE",
"491 404 CURVE SMOOTH",
"467 402 OFFCURVE",
"458 383 OFFCURVE",
"458 363 CURVE SMOOTH",
"458 346 OFFCURVE",
"465 329 OFFCURVE",
"474 322 CURVE SMOOTH",
"505 299 OFFCURVE",
"608 297 OFFCURVE",
"647 294 CURVE SMOOTH"
);
},
{
closed = 1;
nodes = (
"845 433 OFFCURVE",
"937 551 OFFCURVE",
"961 582 CURVE",
"977 572 OFFCURVE",
"998 562 OFFCURVE",
"1016 562 CURVE SMOOTH",
"1034 562 OFFCURVE",
"1050 571 OFFCURVE",
"1057 597 CURVE SMOOTH",
"1058 601 OFFCURVE",
"1059 605 OFFCURVE",
"1059 609 CURVE SMOOTH",
"1059 631 OFFCURVE",
"1042 650 OFFCURVE",
"1021 665 CURVE SMOOTH",
"929 729 OFFCURVE",
"719 755 OFFCURVE",
"615 755 CURVE SMOOTH",
"531 755 OFFCURVE",
"352 748 OFFCURVE",
"245 687 CURVE SMOOTH",
"193 657 OFFCURVE",
"139 604 OFFCURVE",
"139 540 CURVE SMOOTH",
"139 498 OFFCURVE",
"157 480 OFFCURVE",
"174 480 CURVE SMOOTH",
"190 480 OFFCURVE",
"205 495 OFFCURVE",
"205 520 CURVE SMOOTH",
"205 559 OFFCURVE",
"240 600 OFFCURVE",
"274 623 CURVE SMOOTH",
"338 665 OFFCURVE",
"455 686 OFFCURVE",
"574 686 CURVE SMOOTH",
"698 686 OFFCURVE",
"823 663 OFFCURVE",
"890 621 CURVE SMOOTH",
"898 616 OFFCURVE",
"905 622 OFFCURVE",
"905 629 CURVE SMOOTH",
"905 632 OFFCURVE",
"904 635 OFFCURVE",
"900 637 CURVE SMOOTH",
"831 682 OFFCURVE",
"701 705 OFFCURVE",
"573 705 CURVE SMOOTH",
"451 705 OFFCURVE",
"330 684 OFFCURVE",
"262 639 CURVE SMOOTH",
"227 616 OFFCURVE",
"185 570 OFFCURVE",
"185 520 CURVE SMOOTH",
"185 508 OFFCURVE",
"180 500 OFFCURVE",
"174 500 CURVE SMOOTH",
"167 500 OFFCURVE",
"159 512 OFFCURVE",
"159 540 CURVE SMOOTH",
"159 593 OFFCURVE",
"204 640 OFFCURVE",
"255 669 CURVE SMOOTH",
"357 728 OFFCURVE",
"530 735 OFFCURVE",
"615 735 CURVE SMOOTH",
"707 735 OFFCURVE",
"820 719 OFFCURVE",
"906 693 CURVE SMOOTH",
"932 685 OFFCURVE",
"1050 648 OFFCURVE",
"1038 602 CURVE SMOOTH",
"1034 587 OFFCURVE",
"1026 582 OFFCURVE",
"1015 582 CURVE SMOOTH",
"1013 582 OFFCURVE",
"1011 583 OFFCURVE",
"1009 583 CURVE SMOOTH",
"984 587 OFFCURVE",
"962 615 OFFCURVE",
"952 602 CURVE",
"952 602 OFFCURVE",
"833 450 OFFCURVE",
"804 411 CURVE SMOOTH",
"798 403 OFFCURVE",
"805 395 OFFCURVE",
"812 395 CURVE SMOOTH",
"815 395 OFFCURVE",
"818 396 OFFCURVE",
"820 399 CURVE SMOOTH"
);
}
);
width = 990;
}
);
note = F;
unicode = 0046;
},
{
glyphname = G;
lastChange = "2021-11-15 12:52:57 +0000";
layers = (
{
anchors = (
{
name = bottom;
position = "{215, -281}";
},
{
name = top;
position = "{662, 736}";
}
);
background = {
paths = (
{
closed = 1;
nodes = (
"832 406 OFFCURVE",
"759 434 OFFCURVE",
"718 387 CURVE SMOOTH",
"610 261 OFFCURVE",
"421 49 OFFCURVE",
"258 49 CURVE SMOOTH",
"163 49 OFFCURVE",
"107 109 OFFCURVE",
"107 203 CURVE SMOOTH",
"107 417 OFFCURVE",
"391 666 OFFCURVE",
"598 666 CURVE SMOOTH",
"882 666 OFFCURVE",
"736 444 OFFCURVE",
"558 444 CURVE SMOOTH",
"514 444 OFFCURVE",
"423 477 OFFCURVE",
"415 517 CURVE SMOOTH",
"413 530 OFFCURVE",
"393 527 OFFCURVE",
"395 514 CURVE SMOOTH",
"405 456 OFFCURVE",
"515 424 OFFCURVE",
"558 424 CURVE SMOOTH",
"766 424 OFFCURVE",
"908 686 OFFCURVE",
"598 686 CURVE SMOOTH",
"382 686 OFFCURVE",
"87 430 OFFCURVE",
"87 203 CURVE SMOOTH",
"87 98 OFFCURVE",
"151 29 OFFCURVE",
"258 29 CURVE SMOOTH",
"433 29 OFFCURVE",
"628 251 OFFCURVE",
"734 373 CURVE SMOOTH",
"747 389 OFFCURVE",
"765 392 OFFCURVE",
"774 386 CURVE SMOOTH",
"782 381 OFFCURVE",
"791 363 OFFCURVE",
"771 319 CURVE SMOOTH",
"707 180 OFFCURVE",
"528 -79 OFFCURVE",
"379 -197 CURVE SMOOTH",
"328 -238 OFFCURVE",
"252 -267 OFFCURVE",
"190 -268 CURVE SMOOTH",
"130 -269 OFFCURVE",
"87 -244 OFFCURVE",
"91 -178 CURVE SMOOTH",
"93 -138 OFFCURVE",
"118 -123 OFFCURVE",
"133 -177 CURVE SMOOTH",
"151 -240 OFFCURVE",
"205 -236 OFFCURVE",
"251 -217 CURVE SMOOTH",
"396 -156 OFFCURVE",
"584 87 OFFCURVE",
"668 212 CURVE SMOOTH",
"675 223 OFFCURVE",
"659 234 OFFCURVE",
"651 223 CURVE SMOOTH",
"601 148 OFFCURVE",
"473 -22 OFFCURVE",
"354 -125 CURVE SMOOTH",
"319 -156 OFFCURVE",
"179 -267 OFFCURVE",
"152 -171 CURVE SMOOTH",
"138 -119 OFFCURVE",
"76 -92 OFFCURVE",
"71 -176 CURVE SMOOTH",
"67 -259 OFFCURVE",
"124 -289 OFFCURVE",
"191 -288 CURVE SMOOTH",
"257 -287 OFFCURVE",
"337 -256 OFFCURVE",
"391 -213 CURVE SMOOTH",
"544 -92 OFFCURVE",
"724 169 OFFCURVE",
"789 311 CURVE SMOOTH"
);
},
{
closed = 1;
nodes = (
"930 716 OFFCURVE",
"822 401 OFFCURVE",
"550 401 CURVE SMOOTH",
"484 401 OFFCURVE",
"386 425 OFFCURVE",
"379 493 CURVE SMOOTH",
"378 506 OFFCURVE",
"358 504 OFFCURVE",
"359 491 CURVE SMOOTH",
"368 404 OFFCURVE",
"487 381 OFFCURVE",
"550 381 CURVE SMOOTH",
"851 381 OFFCURVE",
"956 736 OFFCURVE",
"605 736 CURVE SMOOTH",
"342 736 OFFCURVE",
"8 485 OFFCURVE",
"8 201 CURVE SMOOTH",
"8 59 OFFCURVE",
"103 -29 OFFCURVE",
"242 -29 CURVE SMOOTH",
"336 -29 OFFCURVE",
"436 4 OFFCURVE",
"506 69 CURVE SMOOTH",
"516 78 OFFCURVE",
"502 93 OFFCURVE",
"492 84 CURVE SMOOTH",
"427 22 OFFCURVE",
"332 -9 OFFCURVE",
"242 -9 CURVE SMOOTH",
"113 -9 OFFCURVE",
"28 71 OFFCURVE",
"28 201 CURVE SMOOTH",
"28 470 OFFCURVE",
"350 716 OFFCURVE",
"605 716 CURVE SMOOTH"
);
}
);
};
layerId = "6B4F01CB-8044-4D82-912B-2C5A8D883AAC";
paths = (
{
closed = 1;
nodes = (
"254 -288 OFFCURVE",
"336 -257 OFFCURVE",
"391 -213 CURVE SMOOTH",
"544 -92 OFFCURVE",
"724 169 OFFCURVE",
"789 311 CURVE SMOOTH",
"798 332 OFFCURVE",
"802 349 OFFCURVE",
"802 363 CURVE SMOOTH",
"802 394 OFFCURVE",
"784 409 OFFCURVE",
"762 409 CURVE SMOOTH",
"747 409 OFFCURVE",
"731 402 OFFCURVE",
"718 387 CURVE SMOOTH",
"610 261 OFFCURVE",
"421 49 OFFCURVE",
"258 49 CURVE SMOOTH",
"163 49 OFFCURVE",
"107 109 OFFCURVE",
"107 203 CURVE SMOOTH",
"107 417 OFFCURVE",
"391 666 OFFCURVE",
"598 666 CURVE SMOOTH",
"714 666 OFFCURVE",
"758 629 OFFCURVE",
"758 586 CURVE SMOOTH",
"758 522 OFFCURVE",
"664 444 OFFCURVE",
"558 444 CURVE SMOOTH",
"514 444 OFFCURVE",
"423 477 OFFCURVE",
"415 517 CURVE SMOOTH",
"414 523 OFFCURVE",
"410 525 OFFCURVE",
"405 525 CURVE SMOOTH",
"400 525 OFFCURVE",
"395 522 OFFCURVE",
"395 516 CURVE SMOOTH",
"395 514 LINE SMOOTH",
"395 455 OFFCURVE",
"515 424 OFFCURVE",
"558 424 CURVE SMOOTH",
"679 424 OFFCURVE",
"778 513 OFFCURVE",
"778 587 CURVE SMOOTH",
"778 640 OFFCURVE",
"727 686 OFFCURVE",
"598 686 CURVE SMOOTH",
"382 686 OFFCURVE",
"87 430 OFFCURVE",
"87 203 CURVE SMOOTH",
"87 98 OFFCURVE",
"151 29 OFFCURVE",
"258 29 CURVE SMOOTH",
"433 29 OFFCURVE",
"628 251 OFFCURVE",
"734 373 CURVE SMOOTH",
"743 384 OFFCURVE",
"754 389 OFFCURVE",
"763 389 CURVE SMOOTH",
"768 389 OFFCURVE",
"771 388 OFFCURVE",
"774 386 CURVE SMOOTH",
"778 383 OFFCURVE",
"783 377 OFFCURVE",
"783 364 CURVE SMOOTH",
"783 353 OFFCURVE",
"780 339 OFFCURVE",
"771 319 CURVE SMOOTH",
"707 180 OFFCURVE",
"528 -79 OFFCURVE",
"379 -197 CURVE SMOOTH",
"327 -239 OFFCURVE",
"249 -268 OFFCURVE",
"186 -268 CURVE SMOOTH",
"131 -268 OFFCURVE",
"91 -245 OFFCURVE",
"91 -186 CURVE SMOOTH",
"91 -160 OFFCURVE",
"99 -142 OFFCURVE",
"109 -142 CURVE SMOOTH",
"117 -142 OFFCURVE",
"126 -152 OFFCURVE",
"133 -177 CURVE SMOOTH",
"144 -216 OFFCURVE",
"169 -229 OFFCURVE",
"197 -229 CURVE SMOOTH",
"215 -229 OFFCURVE",
"233 -224 OFFCURVE",
"251 -217 CURVE SMOOTH",
"396 -156 OFFCURVE",
"584 87 OFFCURVE",
"668 212 CURVE SMOOTH",
"673 220 OFFCURVE",
"666 228 OFFCURVE",
"659 228 CURVE SMOOTH",
"656 228 OFFCURVE",
"653 226 OFFCURVE",
"651 223 CURVE SMOOTH",
"601 148 OFFCURVE",
"473 -22 OFFCURVE",
"354 -125 CURVE SMOOTH",
"329 -147 OFFCURVE",
"251 -209 OFFCURVE",
"199 -209 CURVE SMOOTH",
"177 -209 OFFCURVE",
"160 -199 OFFCURVE",
"152 -171 CURVE SMOOTH",
"145 -143 OFFCURVE",
"123 -122 OFFCURVE",
"104 -122 CURVE SMOOTH",
"86 -122 OFFCURVE",
"71 -139 OFFCURVE",
"71 -184 CURVE SMOOTH",
"71 -260 OFFCURVE",
"124 -288 OFFCURVE",
"188 -288 CURVE SMOOTH"
);
},
{
closed = 1;
nodes = (
"336 -29 OFFCURVE",
"436 4 OFFCURVE",
"506 69 CURVE SMOOTH",
"508 71 OFFCURVE",
"510 74 OFFCURVE",
"510 76 CURVE SMOOTH",
"510 82 OFFCURVE",
"505 87 OFFCURVE",
"499 87 CURVE SMOOTH",
"497 87 OFFCURVE",
"494 86 OFFCURVE",
"492 84 CURVE SMOOTH",
"427 22 OFFCURVE",
"332 -9 OFFCURVE",
"242 -9 CURVE SMOOTH",
"113 -9 OFFCURVE",
"28 71 OFFCURVE",
"28 201 CURVE SMOOTH",
"28 470 OFFCURVE",
"350 716 OFFCURVE",
"605 716 CURVE SMOOTH",
"746 716 OFFCURVE",
"805 657 OFFCURVE",
"805 590 CURVE SMOOTH",
"805 502 OFFCURVE",
"704 401 OFFCURVE",
"550 401 CURVE SMOOTH",
"484 401 OFFCURVE",
"386 425 OFFCURVE",
"379 493 CURVE SMOOTH",
"379 499 OFFCURVE",
"374 502 OFFCURVE",
"369 502 CURVE SMOOTH",
"364 502 OFFCURVE",
"359 498 OFFCURVE",
"359 492 CURVE SMOOTH",
"359 491 LINE SMOOTH",
"359 404 OFFCURVE",
"487 381 OFFCURVE",
"550 381 CURVE SMOOTH",
"719 381 OFFCURVE",
"826 492 OFFCURVE",
"826 590 CURVE SMOOTH",
"826 667 OFFCURVE",
"759 736 OFFCURVE",
"605 736 CURVE SMOOTH",
"342 736 OFFCURVE",
"8 485 OFFCURVE",
"8 201 CURVE SMOOTH",
"8 59 OFFCURVE",
"103 -29 OFFCURVE",
"242 -29 CURVE SMOOTH"
);
}
);
width = 733;
}
);
note = G;
unicode = 0047;
},
{
glyphname = H;
lastChange = "2021-11-15 12:52:57 +0000";
layers = (
{
anchors = (
{
name = bottom;
position = "{611, 0}";
},
{
name = center;
position = "{611, 375}";
},
{
name = top;
position = "{1231, 750}";
},
{
name = topleft;
position = "{20, 750}";
}
);
background = {
paths = (
{
closed = 1;
nodes = (
"1064 624 OFFCURVE",
"1046 647 OFFCURVE",
"1021 665 CURVE SMOOTH",
"929 729 OFFCURVE",
"719 755 OFFCURVE",
"615 755 CURVE SMOOTH",
"531 755 OFFCURVE",
"352 748 OFFCURVE",
"245 687 CURVE SMOOTH",
"193 657 OFFCURVE",
"139 604 OFFCURVE",
"139 540 CURVE SMOOTH",
"139 459 OFFCURVE",
"205 469 OFFCURVE",
"205 520 CURVE SMOOTH",
"205 559 OFFCURVE",
"240 600 OFFCURVE",
"274 623 CURVE SMOOTH",
"402 708 OFFCURVE",
"745 703 OFFCURVE",
"881 626 CURVE",
"772 460 OFFCURVE",
"479 40 OFFCURVE",
"277 22 CURVE SMOOTH",
"-31 -6 OFFCURVE",
"2 312 OFFCURVE",
"338 342 CURVE SMOOTH",
"414 349 OFFCURVE",
"471 329 OFFCURVE",
"511 309 CURVE SMOOTH",
"535 297 OFFCURVE",
"555 282 OFFCURVE",
"578 270 CURVE SMOOTH",
"602 257 OFFCURVE",
"619 276 OFFCURVE",
"615 300 CURVE SMOOTH",
"600 403 OFFCURVE",
"389 414 OFFCURVE",
"313 407 CURVE SMOOTH",
"132 391 OFFCURVE",
"-43 277 OFFCURVE",
"-19 117 CURVE SMOOTH",
"2 -27 OFFCURVE",
"171 -61 OFFCURVE",
"282 -51 CURVE SMOOTH",
"460 -36 OFFCURVE",
"676 189 OFFCURVE",
"755 294 CURVE SMOOTH",
"763 305 OFFCURVE",
"747 317 OFFCURVE",
"739 306 CURVE SMOOTH",
"660 200 OFFCURVE",
"449 -16 OFFCURVE",
"280 -31 CURVE SMOOTH",
"169 -41 OFFCURVE",
"18 -5 OFFCURVE",
"0 120 CURVE SMOOTH",
"-21 261 OFFCURVE",
"135 372 OFFCURVE",
"315 387 CURVE SMOOTH",
"379 393 OFFCURVE",
"582 384 OFFCURVE",
"595 297 CURVE SMOOTH",
"595 295 OFFCURVE",
"596 286 OFFCURVE",
"592 286 CURVE",
"585 288 OFFCURVE",
"578 293 OFFCURVE",
"572 297 CURVE SMOOTH",
"497 345 OFFCURVE",
"429 370 OFFCURVE",
"336 362 CURVE SMOOTH",
"-29 329 OFFCURVE",
"-55 -28 OFFCURVE",
"278 2 CURVE SMOOTH",
"494 21 OFFCURVE",
"789 451 OFFCURVE",
"903 623 CURVE SMOOTH",
"906 628 OFFCURVE",
"905 635 OFFCURVE",
"900 637 CURVE",
"765 724 OFFCURVE",
"401 731 OFFCURVE",
"262 639 CURVE SMOOTH",
"227 616 OFFCURVE",
"185 570 OFFCURVE",
"185 520 CURVE SMOOTH",
"185 492 OFFCURVE",
"159 490 OFFCURVE",
"159 540 CURVE SMOOTH",
"159 593 OFFCURVE",
"204 640 OFFCURVE",
"255 669 CURVE SMOOTH",
"357 728 OFFCURVE",
"530 735 OFFCURVE",
"615 735 CURVE SMOOTH",
"707 735 OFFCURVE",
"820 719 OFFCURVE",
"906 693 CURVE SMOOTH",
"932 685 OFFCURVE",
"1050 648 OFFCURVE",
"1038 602 CURVE SMOOTH",
"1033 584 OFFCURVE",
"1022 581 OFFCURVE",
"1009 583 CURVE SMOOTH",
"984 587 OFFCURVE",
"961 616 OFFCURVE",
"951 601 CURVE",
"951 601 OFFCURVE",
"862 461 OFFCURVE",
"804 379 CURVE SMOOTH",
"798 371 OFFCURVE",
"802 363 OFFCURVE",
"812 363 CURVE SMOOTH",
"995 363 LINE SMOOTH",
"1008 363 OFFCURVE",
"1008 383 OFFCURVE",
"995 383 CURVE SMOOTH",
"831 383 LINE",
"880 453 OFFCURVE",
"943 552 OFFCURVE",
"962 582 CURVE",
"993 561 OFFCURVE",
"1043 545 OFFCURVE",
"1057 597 CURVE SMOOTH"
);
},
{
closed = 1;
nodes = (
"1153 62 OFFCURVE",
"1142 79 OFFCURVE",
"1131 72 CURVE SMOOTH",
"1084 41 OFFCURVE",
"1032 15 OFFCURVE",
"983 15 CURVE SMOOTH",
"822 15 OFFCURVE",
"917 226 OFFCURVE",
"961 293 CURVE SMOOTH",
"966 301 OFFCURVE",
"963 308 OFFCURVE",
"953 308 CURVE SMOOTH",
"804 309 LINE SMOOTH",
"791 309 OFFCURVE",
"791 289 OFFCURVE",
"804 289 CURVE SMOOTH",
"935 289 LINE",
"888 207 OFFCURVE",
"805 -5 OFFCURVE",
"983 -5 CURVE SMOOTH",
"1038 -5 OFFCURVE",
"1094 24 OFFCURVE",
"1142 55 CURVE SMOOTH"
);
},
{
closed = 1;
nodes = (
"1496 833 OFFCURVE",
"1349 755 OFFCURVE",
"1323 738 CURVE SMOOTH",
"1234 678 OFFCURVE",
"1125 561 OFFCURVE",
"1016 406 CURVE SMOOTH",
"1008 395 OFFCURVE",
"1025 383 OFFCURVE",
"1032 394 CURVE SMOOTH",
"1141 549 OFFCURVE",
"1248 663 OFFCURVE",
"1335 722 CURVE SMOOTH",
"1386 757 OFFCURVE",
"1435 765 OFFCURVE",
"1459 769 CURVE SMOOTH",
"1494 774 OFFCURVE",
"1506 732 OFFCURVE",
"1465 726 CURVE SMOOTH",
"1303 703 OFFCURVE",
"1100 405 OFFCURVE",
"1026 280 CURVE SMOOTH",
"1001 238 OFFCURVE",
"908 70 OFFCURVE",
"1025 70 CURVE SMOOTH",
"1090 70 OFFCURVE",
"1178 113 OFFCURVE",
"1230 187 CURVE SMOOTH",
"1236 195 OFFCURVE",
"1222 210 OFFCURVE",
"1214 199 CURVE SMOOTH",
"1164 129 OFFCURVE",
"1081 90 OFFCURVE",
"1025 90 CURVE SMOOTH",
"937 90 OFFCURVE",
"1026 240 OFFCURVE",
"1043 270 CURVE SMOOTH",
"1119 399 OFFCURVE",
"1317 685 OFFCURVE",
"1467 706 CURVE SMOOTH",
"1499 711 OFFCURVE",
"1514 733 OFFCURVE",
"1510 755 CURVE SMOOTH"
);
}
);
};
layerId = "6B4F01CB-8044-4D82-912B-2C5A8D883AAC";
paths = (
{
closed = 1;
nodes = (
"460 -36 OFFCURVE",
"676 189 OFFCURVE",
"755 294 CURVE SMOOTH",
"761 302 OFFCURVE",
"754 310 OFFCURVE",
"747 310 CURVE SMOOTH",
"744 310 OFFCURVE",
"741 309 OFFCURVE",
"739 306 CURVE SMOOTH",
"660 200 OFFCURVE",
"449 -16 OFFCURVE",
"280 -31 CURVE SMOOTH",
"268 -32 OFFCURVE",
"256 -33 OFFCURVE",
"244 -33 CURVE SMOOTH",
"131 -33 OFFCURVE",
"-2 14 OFFCURVE",
"-2 145 CURVE SMOOTH",
"-2 274 OFFCURVE",
"146 373 OFFCURVE",
"315 387 CURVE SMOOTH",
"325 388 OFFCURVE",
"338 388 OFFCURVE",
"353 388 CURVE SMOOTH",
"436 388 OFFCURVE",
"584 371 OFFCURVE",
"595 297 CURVE SMOOTH",
"595 295 OFFCURVE",
"596 286 OFFCURVE",
"592 286 CURVE",
"585 288 OFFCURVE",
"578 293 OFFCURVE",
"572 297 CURVE SMOOTH",
"506 339 OFFCURVE",
"446 363 OFFCURVE",
"369 363 CURVE SMOOTH",
"359 363 OFFCURVE",
"347 363 OFFCURVE",
"336 362 CURVE SMOOTH",
"143 344 OFFCURVE",
"45 236 OFFCURVE",
"45 142 CURVE SMOOTH",
"45 66 OFFCURVE",
"109 0 OFFCURVE",
"240 0 CURVE SMOOTH",
"252 0 OFFCURVE",
"265 1 OFFCURVE",
"278 2 CURVE SMOOTH",
"494 21 OFFCURVE",
"789 451 OFFCURVE",
"903 623 CURVE SMOOTH",
"906 628 OFFCURVE",
"905 635 OFFCURVE",
"900 637 CURVE",
"831 682 OFFCURVE",
"701 705 OFFCURVE",
"573 705 CURVE SMOOTH",
"451 705 OFFCURVE",
"330 684 OFFCURVE",
"262 639 CURVE SMOOTH",
"227 616 OFFCURVE",
"185 570 OFFCURVE",
"185 520 CURVE SMOOTH",
"185 508 OFFCURVE",
"180 500 OFFCURVE",
"174 500 CURVE SMOOTH",
"167 500 OFFCURVE",
"159 512 OFFCURVE",
"159 540 CURVE SMOOTH",
"159 593 OFFCURVE",
"204 640 OFFCURVE",
"255 669 CURVE SMOOTH",
"357 728 OFFCURVE",
"530 735 OFFCURVE",
"615 735 CURVE SMOOTH",
"707 735 OFFCURVE",
"820 719 OFFCURVE",
"906 693 CURVE SMOOTH",
"932 685 OFFCURVE",
"1050 648 OFFCURVE",
"1038 602 CURVE SMOOTH",
"1034 587 OFFCURVE",
"1026 582 OFFCURVE",
"1015 582 CURVE SMOOTH",
"1013 582 OFFCURVE",
"1011 583 OFFCURVE",
"1009 583 CURVE SMOOTH",
"989 586 OFFCURVE",
"970 605 OFFCURVE",
"959 605 CURVE SMOOTH",
"956 605 OFFCURVE",
"953 604 OFFCURVE",
"951 601 CURVE",
"951 601 OFFCURVE",
"862 461 OFFCURVE",
"804 379 CURVE SMOOTH",
"798 371 OFFCURVE",
"802 363 OFFCURVE",
"812 363 CURVE SMOOTH",
"995 363 LINE SMOOTH",
"1002 363 OFFCURVE",
"1005 368 OFFCURVE",
"1005 373 CURVE SMOOTH",
"1005 378 OFFCURVE",
"1002 383 OFFCURVE",
"995 383 CURVE SMOOTH",
"831 383 LINE",
"880 453 OFFCURVE",
"943 552 OFFCURVE",
"962 582 CURVE",
"978 571 OFFCURVE",
"998 562 OFFCURVE",
"1016 562 CURVE SMOOTH",
"1034 562 OFFCURVE",
"1050 571 OFFCURVE",
"1057 597 CURVE SMOOTH",
"1058 601 OFFCURVE",
"1059 605 OFFCURVE",
"1059 609 CURVE SMOOTH",
"1059 631 OFFCURVE",
"1042 650 OFFCURVE",
"1021 665 CURVE SMOOTH",
"929 729 OFFCURVE",
"719 755 OFFCURVE",
"615 755 CURVE SMOOTH",
"531 755 OFFCURVE",
"352 748 OFFCURVE",
"245 687 CURVE SMOOTH",
"193 657 OFFCURVE",
"139 604 OFFCURVE",
"139 540 CURVE SMOOTH",
"139 498 OFFCURVE",
"157 480 OFFCURVE",
"174 480 CURVE SMOOTH",
"190 480 OFFCURVE",
"205 495 OFFCURVE",
"205 520 CURVE SMOOTH",
"205 559 OFFCURVE",
"240 600 OFFCURVE",
"274 623 CURVE SMOOTH",
"338 665 OFFCURVE",
"454 685 OFFCURVE",
"572 685 CURVE SMOOTH",
"692 685 OFFCURVE",
"813 665 OFFCURVE",
"881 626 CURVE",
"772 460 OFFCURVE",
"479 40 OFFCURVE",
"277 22 CURVE SMOOTH",
"264 21 OFFCURVE",
"251 20 OFFCURVE",
"240 20 CURVE SMOOTH",
"122 20 OFFCURVE",
"65 77 OFFCURVE",
"65 143 CURVE SMOOTH",
"65 227 OFFCURVE",
"158 326 OFFCURVE",
"338 342 CURVE SMOOTH",
"349 343 OFFCURVE",
"359 343 OFFCURVE",
"369 343 CURVE SMOOTH",
"430 343 OFFCURVE",
"477 326 OFFCURVE",
"511 309 CURVE SMOOTH",
"535 297 OFFCURVE",
"555 282 OFFCURVE",
"578 270 CURVE SMOOTH",
"583 267 OFFCURVE",
"588 266 OFFCURVE",
"593 266 CURVE SMOOTH",
"609 266 OFFCURVE",
"618 281 OFFCURVE",
"615 300 CURVE SMOOTH",
"602 388 OFFCURVE",
"447 409 OFFCURVE",
"355 409 CURVE SMOOTH",
"339 409 OFFCURVE",
"324 408 OFFCURVE",
"313 407 CURVE SMOOTH",
"143 392 OFFCURVE",
"-21 291 OFFCURVE",
"-21 146 CURVE SMOOTH",
"-21 -6 OFFCURVE",
"129 -53 OFFCURVE",
"245 -53 CURVE SMOOTH",
"258 -53 OFFCURVE",
"270 -52 OFFCURVE",
"282 -51 CURVE SMOOTH"
);
},
{
closed = 1;
nodes = (
"1038 -5 OFFCURVE",
"1094 24 OFFCURVE",
"1142 55 CURVE SMOOTH",
"1145 57 OFFCURVE",
"1146 60 OFFCURVE",
"1146 63 CURVE SMOOTH",
"1146 68 OFFCURVE",
"1142 74 OFFCURVE",
"1136 74 CURVE SMOOTH",
"1135 74 OFFCURVE",
"1133 73 OFFCURVE",
"1131 72 CURVE SMOOTH",
"1084 41 OFFCURVE",
"1032 15 OFFCURVE",
"983 15 CURVE SMOOTH",
"915 15 OFFCURVE",
"893 52 OFFCURVE",
"893 101 CURVE SMOOTH",
"893 167 OFFCURVE",
"935 254 OFFCURVE",
"961 293 CURVE SMOOTH",
"966 301 OFFCURVE",
"963 308 OFFCURVE",
"953 308 CURVE SMOOTH",
"804 309 LINE SMOOTH",
"798 309 OFFCURVE",
"794 304 OFFCURVE",
"794 299 CURVE SMOOTH",
"794 294 OFFCURVE",
"798 289 OFFCURVE",
"804 289 CURVE SMOOTH",
"935 289 LINE",
"910 245 OFFCURVE",
"874 163 OFFCURVE",
"874 97 CURVE SMOOTH",
"874 40 OFFCURVE",
"901 -5 OFFCURVE",
"983 -5 CURVE SMOOTH"
);
},
{
closed = 1;
nodes = (
"1090 70 OFFCURVE",
"1178 113 OFFCURVE",
"1230 187 CURVE SMOOTH",
"1234 193 OFFCURVE",
"1228 203 OFFCURVE",
"1221 203 CURVE SMOOTH",
"1218 203 OFFCURVE",
"1216 202 OFFCURVE",
"1214 199 CURVE SMOOTH",
"1164 129 OFFCURVE",
"1081 90 OFFCURVE",
"1025 90 CURVE SMOOTH",
"997 90 OFFCURVE",
"987 105 OFFCURVE",
"987 127 CURVE SMOOTH",
"987 174 OFFCURVE",
"1031 250 OFFCURVE",
"1043 270 CURVE SMOOTH",
"1119 399 OFFCURVE",
"1317 685 OFFCURVE",
"1467 706 CURVE SMOOTH",
"1499 711 OFFCURVE",
"1514 733 OFFCURVE",
"1510 755 CURVE SMOOTH",
"1505 780 OFFCURVE",
"1487 789 OFFCURVE",
"1464 789 CURVE SMOOTH",
"1414 789 OFFCURVE",
"1341 750 OFFCURVE",
"1323 738 CURVE SMOOTH",
"1234 678 OFFCURVE",
"1125 561 OFFCURVE",
"1016 406 CURVE SMOOTH",
"1010 398 OFFCURVE",
"1017 390 OFFCURVE",
"1025 390 CURVE SMOOTH",
"1027 390 OFFCURVE",
"1030 391 OFFCURVE",
"1032 394 CURVE SMOOTH",
"1141 549 OFFCURVE",
"1248 663 OFFCURVE",
"1335 722 CURVE SMOOTH",
"1386 757 OFFCURVE",
"1435 765 OFFCURVE",
"1459 769 CURVE SMOOTH",
"1479 772 OFFCURVE",
"1491 760 OFFCURVE",
"1491 748 CURVE SMOOTH",
"1491 738 OFFCURVE",
"1483 729 OFFCURVE",
"1465 726 CURVE SMOOTH",
"1303 703 OFFCURVE",
"1100 405 OFFCURVE",
"1026 280 CURVE SMOOTH",
"1010 253 OFFCURVE",
"967 177 OFFCURVE",
"967 124 CURVE SMOOTH",
"967 93 OFFCURVE",
"982 70 OFFCURVE",
"1025 70 CURVE SMOOTH"
);
}
);
width = 1222;
}
);
note = H;
unicode = 0048;
},
{
color = 1;
glyphname = Hbar;
lastChange = "2021-11-15 12:53:32 +0000";
layers = (
{
background = {
components = (
{
name = H;
},
{
name = emdash;
transform = "{1, 0, 0, 1, 551, 202}";
}
);
};
layerId = "6B4F01CB-8044-4D82-912B-2C5A8D883AAC";
paths = (
{
closed = 1;
nodes = (
"1194 432 LINE",
"1201 432 OFFCURVE",
"1205 437 OFFCURVE",
"1205 442 CURVE SMOOTH",
"1205 447 OFFCURVE",
"1201 452 OFFCURVE",
"1194 452 CURVE",
"685 452 LINE",
"666 452 OFFCURVE",
"657 466 OFFCURVE",
"657 481 CURVE SMOOTH",
"657 496 OFFCURVE",
"666 509 OFFCURVE",
"685 509 CURVE SMOOTH",
"1250 509 LINE SMOOTH",
"1274 509 OFFCURVE",
"1285 495 OFFCURVE",
"1285 481 CURVE SMOOTH",
"1285 467 OFFCURVE",
"1273 452 OFFCURVE",
"1250 452 CURVE SMOOTH",
"1244 452 OFFCURVE",
"1240 447 OFFCURVE",
"1240 442 CURVE SMOOTH",
"1240 437 OFFCURVE",
"1244 432 OFFCURVE",
"1250 432 CURVE SMOOTH",
"1288 432 OFFCURVE",
"1308 457 OFFCURVE",
"1308 481 CURVE SMOOTH",
"1308 505 OFFCURVE",
"1289 529 OFFCURVE",
"1250 529 CURVE SMOOTH",
"685 529 LINE SMOOTH",
"653 529 OFFCURVE",
"637 504 OFFCURVE",
"637 481 CURVE SMOOTH",
"637 457 OFFCURVE",
"653 432 OFFCURVE",
"685 432 CURVE"
);
},
{
closed = 1;
nodes = (
"858 554 OFFCURVE",
"882 591 OFFCURVE",
"903 623 CURVE SMOOTH",
"906 628 OFFCURVE",
"905 635 OFFCURVE",
"900 637 CURVE",
"831 682 OFFCURVE",
"701 705 OFFCURVE",
"573 705 CURVE SMOOTH",
"451 705 OFFCURVE",
"330 684 OFFCURVE",
"262 639 CURVE SMOOTH",
"227 616 OFFCURVE",
"185 570 OFFCURVE",
"185 520 CURVE SMOOTH",
"185 508 OFFCURVE",
"180 500 OFFCURVE",
"174 500 CURVE SMOOTH",
"167 500 OFFCURVE",
"159 512 OFFCURVE",
"159 540 CURVE SMOOTH",
"159 593 OFFCURVE",
"204 640 OFFCURVE",
"255 669 CURVE SMOOTH",
"357 728 OFFCURVE",
"530 735 OFFCURVE",
"615 735 CURVE SMOOTH",
"707 735 OFFCURVE",
"820 719 OFFCURVE",
"906 693 CURVE SMOOTH",
"932 685 OFFCURVE",
"1050 648 OFFCURVE",
"1038 602 CURVE SMOOTH",
"1034 587 OFFCURVE",
"1026 582 OFFCURVE",
"1015 582 CURVE SMOOTH",
"1013 582 OFFCURVE",
"1011 583 OFFCURVE",
"1009 583 CURVE SMOOTH",
"989 586 OFFCURVE",
"970 605 OFFCURVE",
"959 605 CURVE SMOOTH",
"956 605 OFFCURVE",
"953 604 OFFCURVE",
"951 601 CURVE",
"951 601 OFFCURVE",
"924 558 OFFCURVE",
"892 510 CURVE",
"915 510 LINE",
"935 539 OFFCURVE",
"953 568 OFFCURVE",
"962 582 CURVE",
"978 571 OFFCURVE",
"998 562 OFFCURVE",
"1016 562 CURVE SMOOTH",
"1034 562 OFFCURVE",
"1050 571 OFFCURVE",
"1057 597 CURVE SMOOTH",
"1058 601 OFFCURVE",
"1059 605 OFFCURVE",
"1059 609 CURVE SMOOTH",
"1059 631 OFFCURVE",
"1042 650 OFFCURVE",
"1021 665 CURVE SMOOTH",
"929 729 OFFCURVE",
"719 755 OFFCURVE",
"615 755 CURVE SMOOTH",
"531 755 OFFCURVE",
"352 748 OFFCURVE",
"245 687 CURVE SMOOTH",
"193 657 OFFCURVE",
"139 604 OFFCURVE",
"139 540 CURVE SMOOTH",
"139 498 OFFCURVE",
"157 480 OFFCURVE",
"174 480 CURVE SMOOTH",
"190 480 OFFCURVE",
"205 495 OFFCURVE",
"205 520 CURVE SMOOTH",
"205 559 OFFCURVE",
"240 600 OFFCURVE",
"274 623 CURVE SMOOTH",
"338 665 OFFCURVE",
"454 685 OFFCURVE",
"572 685 CURVE SMOOTH",
"692 685 OFFCURVE",
"813 665 OFFCURVE",
"881 626 CURVE",
"860 594 OFFCURVE",
"835 556 OFFCURVE",
"802 510 CURVE",
"826 509 LINE"
);
},
{
closed = 1;
nodes = (
"1038 -5 OFFCURVE",
"1094 24 OFFCURVE",
"1142 55 CURVE SMOOTH",
"1145 57 OFFCURVE",
"1146 60 OFFCURVE",
"1146 63 CURVE SMOOTH",
"1146 68 OFFCURVE",
"1142 74 OFFCURVE",
"1136 74 CURVE SMOOTH",
"1135 74 OFFCURVE",
"1133 73 OFFCURVE",
"1131 72 CURVE SMOOTH",
"1084 41 OFFCURVE",
"1032 15 OFFCURVE",
"983 15 CURVE SMOOTH",
"915 15 OFFCURVE",
"893 52 OFFCURVE",
"893 101 CURVE SMOOTH",
"893 167 OFFCURVE",
"935 254 OFFCURVE",
"961 293 CURVE SMOOTH",
"966 301 OFFCURVE",
"963 308 OFFCURVE",
"953 308 CURVE SMOOTH",
"804 309 LINE SMOOTH",
"798 309 OFFCURVE",
"794 304 OFFCURVE",
"794 299 CURVE SMOOTH",
"794 294 OFFCURVE",
"798 289 OFFCURVE",
"804 289 CURVE SMOOTH",
"935 289 LINE",
"910 245 OFFCURVE",
"874 163 OFFCURVE",
"874 97 CURVE SMOOTH",
"874 40 OFFCURVE",
"901 -5 OFFCURVE",
"983 -5 CURVE SMOOTH"
);
},
{
closed = 1;
nodes = (
"1042 442 OFFCURVE",
"1028 424 OFFCURVE",
"1016 406 CURVE SMOOTH",
"1010 398 OFFCURVE",
"1017 390 OFFCURVE",
"1025 390 CURVE SMOOTH",
"1027 390 OFFCURVE",
"1030 391 OFFCURVE",
"1032 394 CURVE SMOOTH",
"1047 415 OFFCURVE",
"1061 435 OFFCURVE",
"1073 450 CURVE",
"1049 452 LINE"
);
},
{
closed = 1;
nodes = (
"1286 601 OFFCURVE",
"1383 695 OFFCURVE",
"1467 706 CURVE SMOOTH",
"1499 711 OFFCURVE",
"1514 733 OFFCURVE",
"1510 755 CURVE SMOOTH",
"1505 780 OFFCURVE",
"1487 789 OFFCURVE",
"1464 789 CURVE SMOOTH",
"1414 789 OFFCURVE",
"1341 750 OFFCURVE",
"1323 738 CURVE SMOOTH",
"1254 691 OFFCURVE",
"1172 610 OFFCURVE",
"1093 510 CURVE",
"1119 510 LINE",
"1194 603 OFFCURVE",
"1270 678 OFFCURVE",
"1335 722 CURVE SMOOTH",
"1386 757 OFFCURVE",
"1435 765 OFFCURVE",
"1459 769 CURVE SMOOTH",
"1479 772 OFFCURVE",
"1491 760 OFFCURVE",
"1491 748 CURVE SMOOTH",
"1491 738 OFFCURVE",
"1483 729 OFFCURVE",
"1465 726 CURVE SMOOTH",
"1373 713 OFFCURVE",
"1269 612 OFFCURVE",
"1191 516 CURVE",
"1212 511 LINE"
);
},
{
closed = 1;
nodes = (
"1094 388 OFFCURVE",
"1052 323 OFFCURVE",
"1026 280 CURVE SMOOTH",
"1010 253 OFFCURVE",
"967 177 OFFCURVE",
"967 124 CURVE SMOOTH",
"967 93 OFFCURVE",
"982 70 OFFCURVE",
"1025 70 CURVE SMOOTH",
"1090 70 OFFCURVE",
"1178 113 OFFCURVE",
"1230 187 CURVE SMOOTH",
"1234 193 OFFCURVE",
"1228 203 OFFCURVE",
"1221 203 CURVE SMOOTH",
"1218 203 OFFCURVE",
"1216 202 OFFCURVE",
"1214 199 CURVE SMOOTH",
"1164 129 OFFCURVE",
"1081 90 OFFCURVE",
"1025 90 CURVE SMOOTH",
"997 90 OFFCURVE",
"987 105 OFFCURVE",
"987 127 CURVE SMOOTH",
"987 174 OFFCURVE",
"1031 250 OFFCURVE",
"1043 270 CURVE SMOOTH",
"1072 319 OFFCURVE",
"1118 390 OFFCURVE",
"1160 445 CURVE",
"1139 448 LINE"
);
},
{
closed = 1;
nodes = (
"838 428 OFFCURVE",
"820 401 OFFCURVE",
"804 379 CURVE SMOOTH",
"798 371 OFFCURVE",
"802 363 OFFCURVE",
"812 363 CURVE SMOOTH",
"995 363 LINE SMOOTH",
"1002 363 OFFCURVE",
"1005 368 OFFCURVE",
"1005 373 CURVE SMOOTH",
"1005 378 OFFCURVE",
"1002 383 OFFCURVE",
"995 383 CURVE SMOOTH",
"831 383 LINE",
"847 406 OFFCURVE",
"864 431 OFFCURVE",
"878 451 CURVE",
"853 451 LINE"
);
},
{
closed = 1;
nodes = (
"626 264 OFFCURVE",
"426 36 OFFCURVE",
"277 22 CURVE SMOOTH",
"264 21 OFFCURVE",
"251 20 OFFCURVE",
"240 20 CURVE SMOOTH",
"122 20 OFFCURVE",
"65 77 OFFCURVE",
"65 143 CURVE SMOOTH",
"65 227 OFFCURVE",
"158 326 OFFCURVE",
"338 342 CURVE SMOOTH",
"349 343 OFFCURVE",
"359 343 OFFCURVE",
"369 343 CURVE SMOOTH",
"430 343 OFFCURVE",
"477 326 OFFCURVE",
"511 309 CURVE SMOOTH",
"535 297 OFFCURVE",
"555 282 OFFCURVE",
"578 270 CURVE SMOOTH",
"583 267 OFFCURVE",
"588 266 OFFCURVE",
"593 266 CURVE SMOOTH",
"609 266 OFFCURVE",
"618 281 OFFCURVE",
"615 300 CURVE SMOOTH",
"602 388 OFFCURVE",
"447 409 OFFCURVE",
"355 409 CURVE SMOOTH",
"339 409 OFFCURVE",
"324 408 OFFCURVE",
"313 407 CURVE SMOOTH",
"143 392 OFFCURVE",
"-21 291 OFFCURVE",
"-21 146 CURVE SMOOTH",
"-21 -6 OFFCURVE",
"129 -53 OFFCURVE",
"245 -53 CURVE SMOOTH",
"258 -53 OFFCURVE",
"270 -52 OFFCURVE",
"282 -51 CURVE SMOOTH",
"460 -36 OFFCURVE",
"676 189 OFFCURVE",
"755 294 CURVE SMOOTH",
"761 302 OFFCURVE",
"754 310 OFFCURVE",
"747 310 CURVE SMOOTH",
"744 310 OFFCURVE",
"741 309 OFFCURVE",
"739 306 CURVE SMOOTH",
"660 200 OFFCURVE",
"449 -16 OFFCURVE",
"280 -31 CURVE SMOOTH",
"268 -32 OFFCURVE",
"256 -33 OFFCURVE",
"244 -33 CURVE SMOOTH",
"131 -33 OFFCURVE",
"-2 14 OFFCURVE",
"-2 145 CURVE SMOOTH",
"-2 274 OFFCURVE",
"146 373 OFFCURVE",
"315 387 CURVE SMOOTH",
"325 388 OFFCURVE",
"338 388 OFFCURVE",
"353 388 CURVE SMOOTH",
"436 388 OFFCURVE",
"584 371 OFFCURVE",
"595 297 CURVE SMOOTH",
"595 295 OFFCURVE",
"596 286 OFFCURVE",
"592 286 CURVE",
"585 288 OFFCURVE",
"578 293 OFFCURVE",
"572 297 CURVE SMOOTH",
"506 339 OFFCURVE",
"446 363 OFFCURVE",
"369 363 CURVE SMOOTH",
"359 363 OFFCURVE",
"347 363 OFFCURVE",
"336 362 CURVE SMOOTH",
"143 344 OFFCURVE",
"45 236 OFFCURVE",
"45 142 CURVE SMOOTH",
"45 66 OFFCURVE",
"109 0 OFFCURVE",
"240 0 CURVE SMOOTH",
"252 0 OFFCURVE",
"265 1 OFFCURVE",
"278 2 CURVE SMOOTH",
"440 16 OFFCURVE",
"645 256 OFFCURVE",
"787 450 CURVE",
"764 452 LINE"
);
}
);
width = 1222;
}
);
unicode = 0126;
},
{
glyphname = I;
lastChange = "2021-11-15 12:52:57 +0000";
layers = (
{
anchors = (
{
name = bottom;
position = "{106, -48}";
},
{
name = ogonek;
position = "{205, -23}";
},
{
name = top;
position = "{991, 721}";
},
{
name = topleft;
position = "{20, 750}";
}
);
background = {
paths = (
{
closed = 1;
nodes = (
"1091 725 OFFCURVE",
"673 835 OFFCURVE",
"549 689 CURVE SMOOTH",
"522 657 OFFCURVE",
"495 603 OFFCURVE",
"495 539 CURVE SMOOTH",
"495 454 OFFCURVE",
"566 461 OFFCURVE",
"566 514 CURVE SMOOTH",
"566 608 OFFCURVE",
"619 669 OFFCURVE",
"714 669 CURVE SMOOTH",
"773 669 OFFCURVE",
"839 648 OFFCURVE",
"881 626 CURVE",
"772 460 OFFCURVE",
"479 40 OFFCURVE",
"277 22 CURVE SMOOTH",
"-31 -6 OFFCURVE",
"2 312 OFFCURVE",
"338 342 CURVE SMOOTH",
"414 349 OFFCURVE",
"471 329 OFFCURVE",
"511 309 CURVE SMOOTH",
"535 297 OFFCURVE",
"555 282 OFFCURVE",
"578 270 CURVE SMOOTH",
"602 257 OFFCURVE",
"618 276 OFFCURVE",
"615 300 CURVE SMOOTH",
"600 402 OFFCURVE",
"390 425 OFFCURVE",
"312 418 CURVE SMOOTH",
"130 402 OFFCURVE",
"-43 277 OFFCURVE",
"-19 117 CURVE SMOOTH",
"2 -27 OFFCURVE",
"171 -61 OFFCURVE",
"282 -51 CURVE SMOOTH",
"461 -36 OFFCURVE",
"725 166 OFFCURVE",
"944 548 CURVE SMOOTH",
"951 560 OFFCURVE",
"933 570 OFFCURVE",
"926 558 CURVE SMOOTH",
"708 178 OFFCURVE",
"449 -16 OFFCURVE",
"280 -31 CURVE SMOOTH",
"169 -41 OFFCURVE",
"18 -5 OFFCURVE",
"0 120 CURVE SMOOTH",
"-21 261 OFFCURVE",
"135 382 OFFCURVE",
"314 398 CURVE SMOOTH",
"380 404 OFFCURVE",
"582 384 OFFCURVE",
"595 297 CURVE SMOOTH",
"595 295 OFFCURVE",
"596 286 OFFCURVE",
"592 286 CURVE",
"585 288 OFFCURVE",
"578 293 OFFCURVE",
"572 297 CURVE SMOOTH",
"497 345 OFFCURVE",
"429 370 OFFCURVE",
"336 362 CURVE SMOOTH",
"-29 329 OFFCURVE",
"-55 -28 OFFCURVE",
"278 2 CURVE SMOOTH",
"494 21 OFFCURVE",
"789 451 OFFCURVE",
"903 623 CURVE SMOOTH",
"906 628 OFFCURVE",
"905 635 OFFCURVE",
"900 638 CURVE SMOOTH",
"857 663 OFFCURVE",
"782 689 OFFCURVE",
"714 689 CURVE SMOOTH",
"607 689 OFFCURVE",
"546 618 OFFCURVE",
"546 514 CURVE SMOOTH",
"546 484 OFFCURVE",
"515 485 OFFCURVE",
"515 539 CURVE SMOOTH",
"515 597 OFFCURVE",
"540 647 OFFCURVE",
"565 677 CURVE SMOOTH",
"678 809 OFFCURVE",
"1065 703 OFFCURVE",
"1038 602 CURVE SMOOTH",
"1028 564 OFFCURVE",
"984 590 OFFCURVE",
"965 604 CURVE SMOOTH",
"955 612 OFFCURVE",
"943 596 OFFCURVE",
"953 588 CURVE SMOOTH",
"984 565 OFFCURVE",
"1042 541 OFFCURVE",
"1057 597 CURVE SMOOTH"
);
}
);
};
layerId = "6B4F01CB-8044-4D82-912B-2C5A8D883AAC";
paths = (
{
closed = 1;
nodes = (
"461 -36 OFFCURVE",
"725 166 OFFCURVE",
"944 548 CURVE SMOOTH",
"949 556 OFFCURVE",
"942 563 OFFCURVE",
"935 563 CURVE SMOOTH",
"932 563 OFFCURVE",
"928 562 OFFCURVE",
"926 558 CURVE SMOOTH",
"708 178 OFFCURVE",
"449 -16 OFFCURVE",
"280 -31 CURVE SMOOTH",
"268 -32 OFFCURVE",
"256 -33 OFFCURVE",
"244 -33 CURVE SMOOTH",
"131 -33 OFFCURVE",
"-2 14 OFFCURVE",
"-2 146 CURVE SMOOTH",
"-2 275 OFFCURVE",
"146 383 OFFCURVE",
"314 398 CURVE SMOOTH",
"380 404 OFFCURVE",
"582 384 OFFCURVE",
"595 297 CURVE SMOOTH",
"595 295 OFFCURVE",
"596 286 OFFCURVE",
"592 286 CURVE",
"585 288 OFFCURVE",
"578 293 OFFCURVE",
"572 297 CURVE SMOOTH",
"506 339 OFFCURVE",
"446 363 OFFCURVE",
"369 363 CURVE SMOOTH",
"359 363 OFFCURVE",
"347 363 OFFCURVE",
"336 362 CURVE SMOOTH",
"143 344 OFFCURVE",
"45 236 OFFCURVE",
"45 142 CURVE SMOOTH",
"45 66 OFFCURVE",
"109 0 OFFCURVE",
"240 0 CURVE SMOOTH",
"252 0 OFFCURVE",
"265 1 OFFCURVE",
"278 2 CURVE SMOOTH",
"494 21 OFFCURVE",
"789 451 OFFCURVE",
"903 623 CURVE SMOOTH",
"906 628 OFFCURVE",
"905 635 OFFCURVE",
"900 638 CURVE SMOOTH",
"857 663 OFFCURVE",
"782 689 OFFCURVE",
"714 689 CURVE SMOOTH",
"607 689 OFFCURVE",
"546 618 OFFCURVE",
"546 514 CURVE SMOOTH",
"546 501 OFFCURVE",
"541 494 OFFCURVE",
"534 494 CURVE SMOOTH",
"525 494 OFFCURVE",
"515 508 OFFCURVE",
"515 539 CURVE SMOOTH",
"515 597 OFFCURVE",
"540 647 OFFCURVE",
"565 677 CURVE SMOOTH",
"603 721 OFFCURVE",
"671 739 OFFCURVE",
"744 739 CURVE SMOOTH",
"883 739 OFFCURVE",
"1039 676 OFFCURVE",
"1039 612 CURVE SMOOTH",
"1039 609 OFFCURVE",
"1039 605 OFFCURVE",
"1038 602 CURVE SMOOTH",
"1034 587 OFFCURVE",
"1025 582 OFFCURVE",
"1015 582 CURVE SMOOTH",
"998 582 OFFCURVE",
"977 595 OFFCURVE",
"965 604 CURVE SMOOTH",
"958 610 OFFCURVE",
"949 603 OFFCURVE",
"949 595 CURVE SMOOTH",
"949 593 OFFCURVE",
"950 590 OFFCURVE",
"953 588 CURVE SMOOTH",
"970 575 OFFCURVE",
"995 563 OFFCURVE",
"1016 563 CURVE SMOOTH",
"1034 563 OFFCURVE",
"1050 572 OFFCURVE",
"1057 597 CURVE SMOOTH",
"1058 602 OFFCURVE",
"1059 607 OFFCURVE",
"1059 612 CURVE SMOOTH",
"1059 691 OFFCURVE",
"895 758 OFFCURVE",
"747 758 CURVE SMOOTH",
"667 758 OFFCURVE",
"591 738 OFFCURVE",
"549 689 CURVE SMOOTH",
"522 657 OFFCURVE",
"495 603 OFFCURVE",
"495 539 CURVE SMOOTH",
"495 494 OFFCURVE",
"515 475 OFFCURVE",
"534 475 CURVE SMOOTH",
"551 475 OFFCURVE",
"566 489 OFFCURVE",
"566 514 CURVE SMOOTH",
"566 608 OFFCURVE",
"619 669 OFFCURVE",
"714 669 CURVE SMOOTH",
"773 669 OFFCURVE",
"839 648 OFFCURVE",
"881 626 CURVE",
"772 460 OFFCURVE",
"479 40 OFFCURVE",
"277 22 CURVE SMOOTH",
"264 21 OFFCURVE",
"251 20 OFFCURVE",
"240 20 CURVE SMOOTH",
"122 20 OFFCURVE",
"65 77 OFFCURVE",
"65 143 CURVE SMOOTH",
"65 227 OFFCURVE",
"158 326 OFFCURVE",
"338 342 CURVE SMOOTH",
"349 343 OFFCURVE",
"359 343 OFFCURVE",
"369 343 CURVE SMOOTH",
"430 343 OFFCURVE",
"477 326 OFFCURVE",
"511 309 CURVE SMOOTH",
"535 297 OFFCURVE",
"555 282 OFFCURVE",
"578 270 CURVE SMOOTH",
"583 267 OFFCURVE",
"588 266 OFFCURVE",
"593 266 CURVE SMOOTH",
"608 266 OFFCURVE",
"617 281 OFFCURVE",
"615 300 CURVE SMOOTH",
"602 391 OFFCURVE",
"433 419 OFFCURVE",
"341 419 CURVE SMOOTH",
"330 419 OFFCURVE",
"320 419 OFFCURVE",
"312 418 CURVE SMOOTH",
"141 403 OFFCURVE",
"-21 292 OFFCURVE",
"-21 147 CURVE SMOOTH",
"-21 -6 OFFCURVE",
"129 -53 OFFCURVE",
"245 -53 CURVE SMOOTH",
"258 -53 OFFCURVE",
"270 -52 OFFCURVE",
"282 -51 CURVE SMOOTH"
);
}
);
width = 913;
}
);
note = I;
unicode = 0049;
},
{
glyphname = J;
lastChange = "2021-11-15 12:52:57 +0000";
layers = (
{
anchors = (
{
name = bottom;
position = "{404, 0}";
},
{
name = top;
position = "{988, 715}";
}
);
background = {
paths = (
{
closed = 1;
nodes = (
"1091 725 OFFCURVE",
"673 835 OFFCURVE",
"549 689 CURVE SMOOTH",
"522 657 OFFCURVE",
"495 603 OFFCURVE",
"495 539 CURVE SMOOTH",
"495 454 OFFCURVE",
"566 461 OFFCURVE",
"566 514 CURVE SMOOTH",
"566 608 OFFCURVE",
"619 669 OFFCURVE",
"714 669 CURVE SMOOTH",
"773 669 OFFCURVE",
"839 648 OFFCURVE",
"881 625 CURVE",
"745 416 OFFCURVE",
"606 203 OFFCURVE",
"435 20 CURVE SMOOTH",
"10 -436 OFFCURVE",
"-250 115 OFFCURVE",
"239 158 CURVE SMOOTH",
"302 164 OFFCURVE",
"358 160 OFFCURVE",
"404 118 CURVE SMOOTH",
"444 82 OFFCURVE",
"465 140 OFFCURVE",
"458 152 CURVE SMOOTH",
"418 224 OFFCURVE",
"281 244 OFFCURVE",
"217 238 CURVE SMOOTH",
"-445 179 OFFCURVE",
"-81 -603 OFFCURVE",
"500 -52 CURVE SMOOTH",
"659 99 OFFCURVE",
"818 327 OFFCURVE",
"944 548 CURVE SMOOTH",
"951 560 OFFCURVE",
"933 570 OFFCURVE",
"926 558 CURVE SMOOTH",
"800 338 OFFCURVE",
"643 111 OFFCURVE",
"486 -38 CURVE SMOOTH",
"-66 -562 OFFCURVE",
"-408 162 OFFCURVE",
"219 218 CURVE SMOOTH",
"282 224 OFFCURVE",
"405 202 OFFCURVE",
"440 143 CURVE",
"439 142 LINE",
"438 137 OFFCURVE",
"431 126 OFFCURVE",
"426 126 CURVE",
"424 127 OFFCURVE",
"421 130 OFFCURVE",
"418 133 CURVE SMOOTH",
"366 179 OFFCURVE",
"306 183 OFFCURVE",
"237 177 CURVE SMOOTH",
"-288 130 OFFCURVE",
"-3 -479 OFFCURVE",
"449 6 CURVE SMOOTH",
"553 117 OFFCURVE",
"659 260 OFFCURVE",
"742 380 CURVE SMOOTH",
"826 501 OFFCURVE",
"887 599 OFFCURVE",
"903 623 CURVE SMOOTH",
"906 628 OFFCURVE",
"905 635 OFFCURVE",
"900 638 CURVE SMOOTH",
"857 663 OFFCURVE",
"782 689 OFFCURVE",
"714 689 CURVE SMOOTH",
"607 689 OFFCURVE",
"546 618 OFFCURVE",
"546 514 CURVE SMOOTH",
"546 484 OFFCURVE",
"515 485 OFFCURVE",
"515 539 CURVE SMOOTH",
"515 597 OFFCURVE",
"540 647 OFFCURVE",
"565 677 CURVE SMOOTH",
"678 809 OFFCURVE",
"1065 703 OFFCURVE",
"1038 602 CURVE SMOOTH",
"1028 564 OFFCURVE",
"984 590 OFFCURVE",
"965 604 CURVE SMOOTH",
"955 612 OFFCURVE",
"943 596 OFFCURVE",
"953 588 CURVE SMOOTH",
"984 565 OFFCURVE",
"1042 541 OFFCURVE",
"1057 597 CURVE SMOOTH"
);
}
);
};
layerId = "6B4F01CB-8044-4D82-912B-2C5A8D883AAC";
paths = (
{
closed = 1;
nodes = (
"659 99 OFFCURVE",
"818 327 OFFCURVE",
"944 548 CURVE SMOOTH",
"949 556 OFFCURVE",
"942 563 OFFCURVE",
"935 563 CURVE SMOOTH",
"932 563 OFFCURVE",
"928 562 OFFCURVE",
"926 558 CURVE SMOOTH",
"800 338 OFFCURVE",
"643 111 OFFCURVE",
"486 -38 CURVE SMOOTH",
"341 -176 OFFCURVE",
"210 -227 OFFCURVE",
"108 -227 CURVE SMOOTH",
"-31 -227 OFFCURVE",
"-118 -132 OFFCURVE",
"-118 -30 CURVE SMOOTH",
"-118 79 OFFCURVE",
"-19 197 OFFCURVE",
"219 218 CURVE SMOOTH",
"282 224 OFFCURVE",
"405 202 OFFCURVE",
"440 143 CURVE",
"439 142 LINE",
"438 137 OFFCURVE",
"431 126 OFFCURVE",
"426 126 CURVE",
"424 127 OFFCURVE",
"421 130 OFFCURVE",
"418 133 CURVE SMOOTH",
"378 169 OFFCURVE",
"332 179 OFFCURVE",
"282 179 CURVE SMOOTH",
"267 179 OFFCURVE",
"252 178 OFFCURVE",
"237 177 CURVE SMOOTH",
"37 159 OFFCURVE",
"-46 59 OFFCURVE",
"-46 -30 CURVE SMOOTH",
"-46 -109 OFFCURVE",
"18 -180 OFFCURVE",
"121 -180 CURVE SMOOTH",
"208 -180 OFFCURVE",
"322 -131 OFFCURVE",
"449 6 CURVE SMOOTH",
"553 117 OFFCURVE",
"659 260 OFFCURVE",
"742 380 CURVE SMOOTH",
"826 501 OFFCURVE",
"887 599 OFFCURVE",
"903 623 CURVE SMOOTH",
"906 628 OFFCURVE",
"905 635 OFFCURVE",
"900 638 CURVE SMOOTH",
"857 663 OFFCURVE",
"782 689 OFFCURVE",
"714 689 CURVE SMOOTH",
"607 689 OFFCURVE",
"546 618 OFFCURVE",
"546 514 CURVE SMOOTH",
"546 501 OFFCURVE",
"541 494 OFFCURVE",
"534 494 CURVE SMOOTH",
"525 494 OFFCURVE",
"515 508 OFFCURVE",
"515 539 CURVE SMOOTH",
"515 597 OFFCURVE",
"540 647 OFFCURVE",
"565 677 CURVE SMOOTH",
"603 721 OFFCURVE",
"671 739 OFFCURVE",
"744 739 CURVE SMOOTH",
"883 739 OFFCURVE",
"1039 676 OFFCURVE",
"1039 612 CURVE SMOOTH",
"1039 609 OFFCURVE",
"1039 605 OFFCURVE",
"1038 602 CURVE SMOOTH",
"1034 587 OFFCURVE",
"1025 582 OFFCURVE",
"1015 582 CURVE SMOOTH",
"998 582 OFFCURVE",
"977 595 OFFCURVE",
"965 604 CURVE SMOOTH",
"958 610 OFFCURVE",
"949 603 OFFCURVE",
"949 595 CURVE SMOOTH",
"949 593 OFFCURVE",
"950 590 OFFCURVE",
"953 588 CURVE SMOOTH",
"970 575 OFFCURVE",
"995 563 OFFCURVE",
"1016 563 CURVE SMOOTH",
"1034 563 OFFCURVE",
"1050 572 OFFCURVE",
"1057 597 CURVE SMOOTH",
"1058 602 OFFCURVE",
"1059 607 OFFCURVE",
"1059 612 CURVE SMOOTH",
"1059 691 OFFCURVE",
"895 758 OFFCURVE",
"747 758 CURVE SMOOTH",
"667 758 OFFCURVE",
"591 738 OFFCURVE",
"549 689 CURVE SMOOTH",
"522 657 OFFCURVE",
"495 603 OFFCURVE",
"495 539 CURVE SMOOTH",
"495 494 OFFCURVE",
"515 475 OFFCURVE",
"534 475 CURVE SMOOTH",
"551 475 OFFCURVE",
"566 489 OFFCURVE",
"566 514 CURVE SMOOTH",
"566 608 OFFCURVE",
"619 669 OFFCURVE",
"714 669 CURVE SMOOTH",
"773 669 OFFCURVE",
"839 648 OFFCURVE",
"881 625 CURVE",
"745 416 OFFCURVE",
"606 203 OFFCURVE",
"435 20 CURVE SMOOTH",
"312 -112 OFFCURVE",
"203 -160 OFFCURVE",
"122 -160 CURVE SMOOTH",
"30 -160 OFFCURVE",
"-26 -99 OFFCURVE",
"-26 -30 CURVE SMOOTH",
"-26 50 OFFCURVE",
"51 141 OFFCURVE",
"239 158 CURVE SMOOTH",
"253 159 OFFCURVE",
"267 160 OFFCURVE",
"281 160 CURVE SMOOTH",
"327 160 OFFCURVE",
"368 150 OFFCURVE",
"404 118 CURVE SMOOTH",
"413 110 OFFCURVE",
"421 106 OFFCURVE",
"429 106 CURVE SMOOTH",
"452 106 OFFCURVE",
"463 143 OFFCURVE",
"458 152 CURVE SMOOTH",
"422 216 OFFCURVE",
"310 239 OFFCURVE",
"240 239 CURVE SMOOTH",
"232 239 OFFCURVE",
"224 239 OFFCURVE",
"217 238 CURVE SMOOTH",
"-34 216 OFFCURVE",
"-138 89 OFFCURVE",
"-138 -29 CURVE SMOOTH",
"-138 -142 OFFCURVE",
"-43 -248 OFFCURVE",
"108 -248 CURVE SMOOTH",
"215 -248 OFFCURVE",
"350 -194 OFFCURVE",
"500 -52 CURVE SMOOTH"
);
}
);
width = 808;
}
);
note = J;
unicode = 004A;
},
{
glyphname = K;
lastChange = "2021-11-15 12:52:57 +0000";
layers = (
{
anchors = (
{
name = bottom;
position = "{663, 0}";
},
{
name = top;
position = "{695, 750}";
}
);
background = {
paths = (
{
closed = 1;
nodes = (
"836 775 OFFCURVE",
"652 786 OFFCURVE",
"570 689 CURVE SMOOTH",
"543 657 OFFCURVE",
"516 603 OFFCURVE",
"516 539 CURVE SMOOTH",
"516 454 OFFCURVE",
"587 461 OFFCURVE",
"587 514 CURVE SMOOTH",
"587 608 OFFCURVE",
"640 669 OFFCURVE",
"735 669 CURVE SMOOTH",
"794 669 OFFCURVE",
"860 648 OFFCURVE",
"902 626 CURVE",
"793 460 OFFCURVE",
"500 40 OFFCURVE",
"298 22 CURVE SMOOTH",
"-10 -6 OFFCURVE",
"23 312 OFFCURVE",
"359 342 CURVE SMOOTH",
"435 349 OFFCURVE",
"492 329 OFFCURVE",
"532 309 CURVE SMOOTH",
"556 297 OFFCURVE",
"576 282 OFFCURVE",
"599 270 CURVE SMOOTH",
"623 257 OFFCURVE",
"639 276 OFFCURVE",
"636 300 CURVE SMOOTH",
"621 402 OFFCURVE",
"411 425 OFFCURVE",
"333 418 CURVE SMOOTH",
"151 402 OFFCURVE",
"-22 277 OFFCURVE",
"2 117 CURVE SMOOTH",
"23 -27 OFFCURVE",
"192 -61 OFFCURVE",
"303 -51 CURVE SMOOTH",
"482 -36 OFFCURVE",
"746 166 OFFCURVE",
"965 548 CURVE SMOOTH",
"972 560 OFFCURVE",
"954 570 OFFCURVE",
"947 558 CURVE SMOOTH",
"729 178 OFFCURVE",
"470 -16 OFFCURVE",
"301 -31 CURVE SMOOTH",
"190 -41 OFFCURVE",
"39 -5 OFFCURVE",
"21 120 CURVE SMOOTH",
"0 261 OFFCURVE",
"156 382 OFFCURVE",
"335 398 CURVE SMOOTH",
"401 404 OFFCURVE",
"603 384 OFFCURVE",
"616 297 CURVE SMOOTH",
"616 295 OFFCURVE",
"617 286 OFFCURVE",
"613 286 CURVE",
"606 288 OFFCURVE",
"599 293 OFFCURVE",
"593 297 CURVE SMOOTH",
"518 345 OFFCURVE",
"450 370 OFFCURVE",
"357 362 CURVE SMOOTH",
"-8 329 OFFCURVE",
"-34 -28 OFFCURVE",
"299 2 CURVE SMOOTH",
"515 21 OFFCURVE",
"810 451 OFFCURVE",
"924 623 CURVE SMOOTH",
"927 628 OFFCURVE",
"926 635 OFFCURVE",
"921 638 CURVE SMOOTH",
"878 663 OFFCURVE",
"803 689 OFFCURVE",
"735 689 CURVE SMOOTH",
"628 689 OFFCURVE",
"567 618 OFFCURVE",
"567 514 CURVE SMOOTH",
"567 484 OFFCURVE",
"536 485 OFFCURVE",
"536 539 CURVE SMOOTH",
"536 597 OFFCURVE",
"561 647 OFFCURVE",
"586 677 CURVE SMOOTH",
"658 761 OFFCURVE",
"828 757 OFFCURVE",
"1013 670 CURVE SMOOTH",
"1078 639 OFFCURVE",
"999 596 OFFCURVE",
"986 605 CURVE SMOOTH",
"974 612 OFFCURVE",
"964 595 OFFCURVE",
"975 588 CURVE SMOOTH",
"1013 564 OFFCURVE",
"1112 645 OFFCURVE",
"1021 688 CURVE SMOOTH"
);
},
{
closed = 1;
nodes = (
"1601 734 OFFCURVE",
"1528 758 OFFCURVE",
"1443 758 CURVE SMOOTH",
"1266 758 OFFCURVE",
"730 339 OFFCURVE",
"788 155 CURVE SMOOTH",
"822 46 OFFCURVE",
"915 -91 OFFCURVE",
"1087 -91 CURVE SMOOTH",
"1202 -91 OFFCURVE",
"1275 -31 OFFCURVE",
"1352 42 CURVE SMOOTH",
"1362 51 OFFCURVE",
"1348 65 OFFCURVE",
"1338 56 CURVE SMOOTH",
"1265 -12 OFFCURVE",
"1196 -71 OFFCURVE",
"1087 -71 CURVE SMOOTH",
"927 -71 OFFCURVE",
"840 56 OFFCURVE",
"807 161 CURVE SMOOTH",
"756 323 OFFCURVE",
"1268 738 OFFCURVE",
"1443 738 CURVE SMOOTH",
"1529 738 OFFCURVE",
"1587 714 OFFCURVE",
"1599 683 CURVE SMOOTH",
"1603 671 OFFCURVE",
"1598 665 OFFCURVE",
"1587 661 CURVE SMOOTH",
"1549 649 OFFCURVE",
"1517 689 OFFCURVE",
"1459 689 CURVE SMOOTH",
"1355 689 OFFCURVE",
"1162 554 OFFCURVE",
"1026 422 CURVE SMOOTH",
"939 337 OFFCURVE",
"875 255 OFFCURVE",
"875 208 CURVE SMOOTH",
"875 206 LINE SMOOTH",
"875 106 OFFCURVE",
"986 -26 OFFCURVE",
"1089 -26 CURVE SMOOTH",
"1198 -26 OFFCURVE",
"1336 104 OFFCURVE",
"1397 187 CURVE SMOOTH",
"1405 197 OFFCURVE",
"1389 211 OFFCURVE",
"1381 199 CURVE SMOOTH",
"1326 123 OFFCURVE",
"1188 -6 OFFCURVE",
"1089 -6 CURVE SMOOTH",
"1000 -6 OFFCURVE",
"907 114 OFFCURVE",
"895 207 CURVE",
"902 248 OFFCURVE",
"960 326 OFFCURVE",
"1039 404 CURVE SMOOTH",
"1170 534 OFFCURVE",
"1359 669 OFFCURVE",
"1459 669 CURVE SMOOTH",
"1484 669 OFFCURVE",
"1530 652 OFFCURVE",
"1547 643 CURVE SMOOTH",
"1576 627 OFFCURVE",
"1634 647 OFFCURVE",
"1617 691 CURVE SMOOTH"
);
}
);
};
layerId = "6B4F01CB-8044-4D82-912B-2C5A8D883AAC";
paths = (
{
closed = 1;
nodes = (
"482 -36 OFFCURVE",
"746 166 OFFCURVE",
"965 548 CURVE SMOOTH",
"970 556 OFFCURVE",
"963 563 OFFCURVE",
"956 563 CURVE SMOOTH",
"953 563 OFFCURVE",
"949 562 OFFCURVE",
"947 558 CURVE SMOOTH",
"729 178 OFFCURVE",
"470 -16 OFFCURVE",
"301 -31 CURVE SMOOTH",
"289 -32 OFFCURVE",
"277 -33 OFFCURVE",
"265 -33 CURVE SMOOTH",
"152 -33 OFFCURVE",
"19 14 OFFCURVE",
"19 146 CURVE SMOOTH",
"19 275 OFFCURVE",
"167 383 OFFCURVE",
"335 398 CURVE SMOOTH",
"401 404 OFFCURVE",
"603 384 OFFCURVE",
"616 297 CURVE SMOOTH",
"616 295 OFFCURVE",
"617 286 OFFCURVE",
"613 286 CURVE",
"606 288 OFFCURVE",
"599 293 OFFCURVE",
"593 297 CURVE SMOOTH",
"527 339 OFFCURVE",
"467 363 OFFCURVE",
"390 363 CURVE SMOOTH",
"380 363 OFFCURVE",
"368 363 OFFCURVE",
"357 362 CURVE SMOOTH",
"164 344 OFFCURVE",
"66 236 OFFCURVE",
"66 142 CURVE SMOOTH",
"66 66 OFFCURVE",
"130 0 OFFCURVE",
"261 0 CURVE SMOOTH",
"273 0 OFFCURVE",
"286 1 OFFCURVE",
"299 2 CURVE SMOOTH",
"515 21 OFFCURVE",
"810 451 OFFCURVE",
"924 623 CURVE SMOOTH",
"927 628 OFFCURVE",
"926 635 OFFCURVE",
"921 638 CURVE SMOOTH",
"878 663 OFFCURVE",
"803 689 OFFCURVE",
"735 689 CURVE SMOOTH",
"628 689 OFFCURVE",
"567 618 OFFCURVE",
"567 514 CURVE SMOOTH",
"567 501 OFFCURVE",
"562 494 OFFCURVE",
"555 494 CURVE SMOOTH",
"546 494 OFFCURVE",
"536 508 OFFCURVE",
"536 539 CURVE SMOOTH",
"536 597 OFFCURVE",
"561 647 OFFCURVE",
"586 677 CURVE SMOOTH",
"621 718 OFFCURVE",
"679 738 OFFCURVE",
"750 738 CURVE SMOOTH",
"826 738 OFFCURVE",
"918 715 OFFCURVE",
"1013 670 CURVE SMOOTH",
"1032 661 OFFCURVE",
"1038 651 OFFCURVE",
"1038 642 CURVE SMOOTH",
"1038 619 OFFCURVE",
"995 599 OFFCURVE",
"986 605 CURVE SMOOTH",
"978 610 OFFCURVE",
"970 603 OFFCURVE",
"970 596 CURVE SMOOTH",
"970 593 OFFCURVE",
"972 590 OFFCURVE",
"975 588 CURVE SMOOTH",
"980 585 OFFCURVE",
"986 584 OFFCURVE",
"992 584 CURVE SMOOTH",
"1020 584 OFFCURVE",
"1058 613 OFFCURVE",
"1058 643 CURVE SMOOTH",
"1058 659 OFFCURVE",
"1048 675 OFFCURVE",
"1021 688 CURVE SMOOTH",
"925 733 OFFCURVE",
"830 758 OFFCURVE",
"749 758 CURVE SMOOTH",
"673 758 OFFCURVE",
"610 736 OFFCURVE",
"570 689 CURVE SMOOTH",
"543 657 OFFCURVE",
"516 603 OFFCURVE",
"516 539 CURVE SMOOTH",
"516 494 OFFCURVE",
"536 475 OFFCURVE",
"555 475 CURVE SMOOTH",
"572 475 OFFCURVE",
"587 489 OFFCURVE",
"587 514 CURVE SMOOTH",
"587 608 OFFCURVE",
"640 669 OFFCURVE",
"735 669 CURVE SMOOTH",
"794 669 OFFCURVE",
"860 648 OFFCURVE",
"902 626 CURVE",
"793 460 OFFCURVE",
"500 40 OFFCURVE",
"298 22 CURVE SMOOTH",
"285 21 OFFCURVE",
"272 20 OFFCURVE",
"261 20 CURVE SMOOTH",
"143 20 OFFCURVE",
"86 77 OFFCURVE",
"86 143 CURVE SMOOTH",
"86 227 OFFCURVE",
"179 326 OFFCURVE",
"359 342 CURVE SMOOTH",
"370 343 OFFCURVE",
"380 343 OFFCURVE",
"390 343 CURVE SMOOTH",
"451 343 OFFCURVE",
"498 326 OFFCURVE",
"532 309 CURVE SMOOTH",
"556 297 OFFCURVE",
"576 282 OFFCURVE",
"599 270 CURVE SMOOTH",
"604 267 OFFCURVE",
"609 266 OFFCURVE",
"614 266 CURVE SMOOTH",
"629 266 OFFCURVE",
"638 281 OFFCURVE",
"636 300 CURVE SMOOTH",
"623 391 OFFCURVE",
"454 419 OFFCURVE",
"362 419 CURVE SMOOTH",
"351 419 OFFCURVE",
"341 419 OFFCURVE",
"333 418 CURVE SMOOTH",
"162 403 OFFCURVE",
"0 292 OFFCURVE",
"0 147 CURVE SMOOTH",
"0 -6 OFFCURVE",
"150 -53 OFFCURVE",
"266 -53 CURVE SMOOTH",
"279 -53 OFFCURVE",
"291 -52 OFFCURVE",
"303 -51 CURVE SMOOTH"
);
},
{
closed = 1;
nodes = (
"1202 -91 OFFCURVE",
"1275 -31 OFFCURVE",
"1352 42 CURVE SMOOTH",
"1360 49 OFFCURVE",
"1353 59 OFFCURVE",
"1345 59 CURVE SMOOTH",
"1343 59 OFFCURVE",
"1340 58 OFFCURVE",
"1338 56 CURVE SMOOTH",
"1265 -12 OFFCURVE",
"1196 -71 OFFCURVE",
"1087 -71 CURVE SMOOTH",
"927 -71 OFFCURVE",
"840 56 OFFCURVE",
"807 161 CURVE SMOOTH",
"805 169 OFFCURVE",
"803 177 OFFCURVE",
"803 185 CURVE SMOOTH",
"803 361 OFFCURVE",
"1276 738 OFFCURVE",
"1443 738 CURVE SMOOTH",
"1529 738 OFFCURVE",
"1587 714 OFFCURVE",
"1599 683 CURVE SMOOTH",
"1603 671 OFFCURVE",
"1598 665 OFFCURVE",
"1587 661 CURVE SMOOTH",
"1582 659 OFFCURVE",
"1577 659 OFFCURVE",
"1572 659 CURVE SMOOTH",
"1540 659 OFFCURVE",
"1509 689 OFFCURVE",
"1459 689 CURVE SMOOTH",
"1355 689 OFFCURVE",
"1162 554 OFFCURVE",
"1026 422 CURVE SMOOTH",
"939 337 OFFCURVE",
"875 255 OFFCURVE",
"875 208 CURVE SMOOTH",
"875 206 LINE SMOOTH",
"875 106 OFFCURVE",
"986 -26 OFFCURVE",
"1089 -26 CURVE SMOOTH",
"1198 -26 OFFCURVE",
"1336 104 OFFCURVE",
"1397 187 CURVE SMOOTH",
"1403 194 OFFCURVE",
"1396 204 OFFCURVE",
"1389 204 CURVE SMOOTH",
"1386 204 OFFCURVE",
"1383 202 OFFCURVE",
"1381 199 CURVE SMOOTH",
"1326 123 OFFCURVE",
"1188 -6 OFFCURVE",
"1089 -6 CURVE SMOOTH",
"1000 -6 OFFCURVE",
"907 114 OFFCURVE",
"895 207 CURVE",
"902 248 OFFCURVE",
"960 326 OFFCURVE",
"1039 404 CURVE SMOOTH",
"1170 534 OFFCURVE",
"1359 669 OFFCURVE",
"1459 669 CURVE SMOOTH",
"1484 669 OFFCURVE",
"1530 652 OFFCURVE",
"1547 643 CURVE SMOOTH",
"1554 639 OFFCURVE",
"1562 638 OFFCURVE",
"1570 638 CURVE SMOOTH",
"1594 638 OFFCURVE",
"1620 652 OFFCURVE",
"1620 676 CURVE SMOOTH",
"1620 680 OFFCURVE",
"1619 686 OFFCURVE",
"1617 691 CURVE SMOOTH",
"1601 734 OFFCURVE",
"1528 758 OFFCURVE",
"1443 758 CURVE SMOOTH",
"1275 758 OFFCURVE",
"784 381 OFFCURVE",
"784 185 CURVE SMOOTH",
"784 174 OFFCURVE",
"785 164 OFFCURVE",
"788 155 CURVE SMOOTH",
"822 46 OFFCURVE",
"915 -91 OFFCURVE",
"1087 -91 CURVE SMOOTH"
);
}
);
width = 1389;
}
);
note = K;
unicode = 004B;
},
{
glyphname = L;
lastChange = "2021-11-15 12:52:57 +0000";
layers = (
{
anchors = (
{
name = bottom;
position = "{601, -40}";
},
{
name = center;
position = "{537, 269}";
},
{
name = top;
position = "{1028, 818}";
},
{
name = topright;
position = "{1194, 823}";
}
);
background = {
paths = (
{
closed = 1;
nodes = (
"1013 108 OFFCURVE",
"999 122 OFFCURVE",
"989 113 CURVE SMOOTH",
"979 103 OFFCURVE",
"967 90 OFFCURVE",
"952 75 CURVE SMOOTH",
"885 11 OFFCURVE",
"811 -19 OFFCURVE",
"715 -19 CURVE SMOOTH",
"635 -19 OFFCURVE",
"561 16 OFFCURVE",
"483 56 CURVE SMOOTH",
"471 62 OFFCURVE",
"462 45 OFFCURVE",
"473 38 CURVE",
"551 -2 OFFCURVE",
"630 -39 OFFCURVE",
"715 -39 CURVE SMOOTH",
"802 -39 OFFCURVE",
"863 -15 OFFCURVE",
"909 15 CURVE SMOOTH",
"945 38 OFFCURVE",
"972 69 OFFCURVE",
"1003 99 CURVE SMOOTH"
);
},
{
closed = 1;
nodes = (
"1017 196 OFFCURVE",
"1002 209 OFFCURVE",
"994 199 CURVE SMOOTH",
"909 90 OFFCURVE",
"848 41 OFFCURVE",
"725 41 CURVE SMOOTH",
"662 41 OFFCURVE",
"598 66 OFFCURVE",
"532 97 CURVE SMOOTH",
"520 103 OFFCURVE",
"512 85 OFFCURVE",
"524 79 CURVE SMOOTH",
"590 48 OFFCURVE",
"658 21 OFFCURVE",
"725 21 CURVE SMOOTH",
"858 21 OFFCURVE",
"924 77 OFFCURVE",
"1009 186 CURVE SMOOTH"
);
},
{
closed = 1;
nodes = (
"1040 750 OFFCURVE",
"1005 760 OFFCURVE",
"965 745 CURVE SMOOTH",
"873 710 OFFCURVE",
"750 472 OFFCURVE",
"703 386 CURVE SMOOTH",
"628 250 OFFCURVE",
"476 38 OFFCURVE",
"324 -5 CURVE SMOOTH",
"217 -36 OFFCURVE",
"57 -29 OFFCURVE",
"23 91 CURVE SMOOTH",
"5 153 OFFCURVE",
"82 223 OFFCURVE",
"232 200 CURVE SMOOTH",
"292 191 OFFCURVE",
"350 165 OFFCURVE",
"412 134 CURVE SMOOTH",
"424 128 OFFCURVE",
"433 146 OFFCURVE",
"421 152 CURVE SMOOTH",
"359 183 OFFCURVE",
"298 210 OFFCURVE",
"234 220 CURVE SMOOTH",
"87 242 OFFCURVE",
"-21 175 OFFCURVE",
"4 86 CURVE SMOOTH",
"44 -54 OFFCURVE",
"224 -55 OFFCURVE",
"330 -24 CURVE SMOOTH",
"491 22 OFFCURVE",
"646 241 OFFCURVE",
"720 376 CURVE SMOOTH",
"764 456 OFFCURVE",
"889 694 OFFCURVE",
"973 727 CURVE SMOOTH",
"1005 739 OFFCURVE",
"1029 729 OFFCURVE",
"1038 708 CURVE SMOOTH",
"1049 685 OFFCURVE",
"1045 644 OFFCURVE",
"1011 589 CURVE SMOOTH",
"984 545 OFFCURVE",
"911 498 OFFCURVE",
"878 496 CURVE SMOOTH",
"865 495 OFFCURVE",
"866 475 OFFCURVE",
"880 476 CURVE SMOOTH",
"921 478 OFFCURVE",
"999 531 OFFCURVE",
"1029 579 CURVE SMOOTH",
"1064 636 OFFCURVE",
"1070 685 OFFCURVE",
"1056 716 CURVE SMOOTH"
);
},
{
closed = 1;
nodes = (
"892 908 OFFCURVE",
"714 541 OFFCURVE",
"652 417 CURVE SMOOTH",
"599 313 OFFCURVE",
"453 90 OFFCURVE",
"301 47 CURVE SMOOTH",
"251 33 OFFCURVE",
"185 28 OFFCURVE",
"141 44 CURVE SMOOTH",
"100 59 OFFCURVE",
"81 91 OFFCURVE",
"87 111 CURVE SMOOTH",
"92 130 OFFCURVE",
"124 152 OFFCURVE",
"216 139 CURVE SMOOTH",
"269 132 OFFCURVE",
"316 115 OFFCURVE",
"364 93 CURVE SMOOTH",
"376 87 OFFCURVE",
"385 105 OFFCURVE",
"373 111 CURVE SMOOTH",
"323 134 OFFCURVE",
"274 151 OFFCURVE",
"218 159 CURVE SMOOTH",
"128 172 OFFCURVE",
"78 153 OFFCURVE",
"68 116 CURVE SMOOTH",
"58 80 OFFCURVE",
"90 42 OFFCURVE",
"135 26 CURVE SMOOTH",
"184 8 OFFCURVE",
"254 13 OFFCURVE",
"307 28 CURVE SMOOTH",
"468 74 OFFCURVE",
"618 305 OFFCURVE",
"670 408 CURVE SMOOTH",
"727 520 OFFCURVE",
"900 880 OFFCURVE",
"1065 780 CURVE SMOOTH",
"1170 717 OFFCURVE",
"1073 495 OFFCURVE",
"912 434 CURVE SMOOTH",
"900 429 OFFCURVE",
"907 411 OFFCURVE",
"920 416 CURVE SMOOTH",
"1075 476 OFFCURVE",
"1210 716 OFFCURVE",
"1075 798 CURVE SMOOTH"
);
}
);
};
layerId = "6B4F01CB-8044-4D82-912B-2C5A8D883AAC";
paths = (
{
closed = 1;
nodes = (
"157 18 OFFCURVE",
"183 14 OFFCURVE",
"210 14 CURVE SMOOTH",
"243 14 OFFCURVE",
"278 20 OFFCURVE",
"307 28 CURVE SMOOTH",
"468 74 OFFCURVE",
"618 305 OFFCURVE",
"670 408 CURVE SMOOTH",
"720 507 OFFCURVE",
"860 797 OFFCURVE",
"1006 797 CURVE SMOOTH",
"1025 797 OFFCURVE",
"1045 792 OFFCURVE",
"1065 780 CURVE SMOOTH",
"1095 762 OFFCURVE",
"1109 730 OFFCURVE",
"1109 694 CURVE SMOOTH",
"1109 602 OFFCURVE",
"1027 477 OFFCURVE",
"912 434 CURVE SMOOTH",
"908 432 OFFCURVE",
"906 429 OFFCURVE",
"906 426 CURVE SMOOTH",
"906 420 OFFCURVE",
"910 415 OFFCURVE",
"916 415 CURVE SMOOTH",
"917 415 OFFCURVE",
"918 415 OFFCURVE",
"920 416 CURVE SMOOTH",
"1030 459 OFFCURVE",
"1130 592 OFFCURVE",
"1130 696 CURVE SMOOTH",
"1130 738 OFFCURVE",
"1114 774 OFFCURVE",
"1075 798 CURVE SMOOTH",
"1052 812 OFFCURVE",
"1028 818 OFFCURVE",
"1005 818 CURVE SMOOTH",
"848 818 OFFCURVE",
"706 525 OFFCURVE",
"652 417 CURVE SMOOTH",
"599 313 OFFCURVE",
"453 90 OFFCURVE",
"301 47 CURVE SMOOTH",
"273 39 OFFCURVE",
"239 34 OFFCURVE",
"208 34 CURVE SMOOTH",
"183 34 OFFCURVE",
"160 37 OFFCURVE",
"141 44 CURVE SMOOTH",
"105 57 OFFCURVE",
"86 84 OFFCURVE",
"86 103 CURVE SMOOTH",
"86 119 OFFCURVE",
"102 143 OFFCURVE",
"166 143 CURVE SMOOTH",
"180 143 OFFCURVE",
"197 142 OFFCURVE",
"216 139 CURVE SMOOTH",
"269 132 OFFCURVE",
"316 115 OFFCURVE",
"364 93 CURVE SMOOTH",
"372 89 OFFCURVE",
"379 96 OFFCURVE",
"379 102 CURVE SMOOTH",
"379 106 OFFCURVE",
"377 109 OFFCURVE",
"373 111 CURVE SMOOTH",
"323 134 OFFCURVE",
"274 151 OFFCURVE",
"218 159 CURVE SMOOTH",
"199 162 OFFCURVE",
"181 163 OFFCURVE",
"165 163 CURVE SMOOTH",
"99 163 OFFCURVE",
"66 139 OFFCURVE",
"66 103 CURVE SMOOTH",
"66 71 OFFCURVE",
"96 40 OFFCURVE",
"135 26 CURVE SMOOTH"
);
},
{
closed = 1;
nodes = (
"802 -39 OFFCURVE",
"863 -15 OFFCURVE",
"909 15 CURVE SMOOTH",
"945 38 OFFCURVE",
"972 69 OFFCURVE",
"1003 99 CURVE SMOOTH",
"1011 106 OFFCURVE",
"1004 116 OFFCURVE",
"996 116 CURVE SMOOTH",
"994 116 OFFCURVE",
"991 115 OFFCURVE",
"989 113 CURVE SMOOTH",
"952 75 LINE SMOOTH",
"887 9 OFFCURVE",
"811 -19 OFFCURVE",
"715 -19 CURVE SMOOTH",
"635 -19 OFFCURVE",
"561 16 OFFCURVE",
"483 56 CURVE SMOOTH",
"475 60 OFFCURVE",
"468 53 OFFCURVE",
"468 47 CURVE SMOOTH",
"468 43 OFFCURVE",
"470 40 OFFCURVE",
"473 38 CURVE SMOOTH",
"551 -2 OFFCURVE",
"630 -39 OFFCURVE",
"715 -39 CURVE SMOOTH"
);
},
{
closed = 1;
nodes = (
"491 22 OFFCURVE",
"646 241 OFFCURVE",
"720 376 CURVE SMOOTH",
"764 456 OFFCURVE",
"889 694 OFFCURVE",
"973 727 CURVE SMOOTH",
"982 731 OFFCURVE",
"991 732 OFFCURVE",
"999 732 CURVE SMOOTH",
"1018 732 OFFCURVE",
"1032 723 OFFCURVE",
"1038 708 CURVE SMOOTH",
"1041 701 OFFCURVE",
"1043 692 OFFCURVE",
"1043 681 CURVE SMOOTH",
"1043 658 OFFCURVE",
"1034 627 OFFCURVE",
"1011 589 CURVE SMOOTH",
"984 545 OFFCURVE",
"911 498 OFFCURVE",
"878 496 CURVE SMOOTH",
"872 496 OFFCURVE",
"869 491 OFFCURVE",
"869 486 CURVE SMOOTH",
"869 481 OFFCURVE",
"872 476 OFFCURVE",
"879 476 CURVE SMOOTH",
"880 476 LINE SMOOTH",
"921 476 OFFCURVE",
"999 531 OFFCURVE",
"1029 579 CURVE SMOOTH",
"1053 617 OFFCURVE",
"1063 652 OFFCURVE",
"1063 680 CURVE SMOOTH",
"1063 694 OFFCURVE",
"1061 706 OFFCURVE",
"1056 716 CURVE SMOOTH",
"1045 740 OFFCURVE",
"1024 752 OFFCURVE",
"999 752 CURVE SMOOTH",
"989 752 OFFCURVE",
"977 750 OFFCURVE",
"965 745 CURVE SMOOTH",
"873 710 OFFCURVE",
"750 472 OFFCURVE",
"703 386 CURVE SMOOTH",
"628 250 OFFCURVE",
"476 38 OFFCURVE",
"324 -5 CURVE SMOOTH",
"291 -15 OFFCURVE",
"252 -21 OFFCURVE",
"214 -21 CURVE SMOOTH",
"129 -21 OFFCURVE",
"46 8 OFFCURVE",
"23 91 CURVE SMOOTH",
"21 97 OFFCURVE",
"20 103 OFFCURVE",
"20 109 CURVE SMOOTH",
"20 158 OFFCURVE",
"76 204 OFFCURVE",
"176 204 CURVE SMOOTH",
"193 204 OFFCURVE",
"212 203 OFFCURVE",
"232 200 CURVE SMOOTH",
"292 191 OFFCURVE",
"350 165 OFFCURVE",
"412 134 CURVE SMOOTH",
"420 130 OFFCURVE",
"427 137 OFFCURVE",
"427 143 CURVE SMOOTH",
"427 147 OFFCURVE",
"425 150 OFFCURVE",
"421 152 CURVE SMOOTH",
"359 183 OFFCURVE",
"298 210 OFFCURVE",
"234 220 CURVE SMOOTH",
"215 223 OFFCURVE",
"196 224 OFFCURVE",
"179 224 CURVE SMOOTH",
"74 224 OFFCURVE",
"0 176 OFFCURVE",
"0 111 CURVE SMOOTH",
"0 103 OFFCURVE",
"2 95 OFFCURVE",
"4 86 CURVE SMOOTH",
"31 -10 OFFCURVE",
"124 -40 OFFCURVE",
"214 -40 CURVE SMOOTH",
"255 -40 OFFCURVE",
"296 -34 OFFCURVE",
"330 -24 CURVE SMOOTH"
);
},
{
closed = 1;
nodes = (
"858 21 OFFCURVE",
"924 77 OFFCURVE",
"1009 186 CURVE SMOOTH",
"1015 193 OFFCURVE",
"1008 203 OFFCURVE",
"1001 203 CURVE SMOOTH",
"999 203 OFFCURVE",
"996 202 OFFCURVE",
"994 199 CURVE SMOOTH",
"909 90 OFFCURVE",
"848 41 OFFCURVE",
"725 41 CURVE SMOOTH",
"662 41 OFFCURVE",
"598 66 OFFCURVE",
"532 97 CURVE SMOOTH",
"524 101 OFFCURVE",
"518 95 OFFCURVE",
"518 88 CURVE SMOOTH",
"518 85 OFFCURVE",
"520 81 OFFCURVE",
"524 79 CURVE SMOOTH",
"590 48 OFFCURVE",
"658 21 OFFCURVE",
"725 21 CURVE SMOOTH"
);
}
);
width = 1002;
}
);
note = L;
unicode = 004C;
},
{
color = 1;
glyphname = Lslash;
lastChange = "2021-11-15 13:07:39 +0000";
layers = (
{
anchors = (
{
name = bottom;
position = "{601, -40}";
},
{
name = center;
position = "{537, 269}";
},
{
name = top;
position = "{1028, 818}";
},
{
name = topright;
position = "{1194, 823}";
}
);
background = {
components = (
{
name = L;
},
{
name = hyphen;
transform = "{0.89553, 0.15748, -0.15791, 0.89314, 430, -5}";
}
);
};
layerId = "6B4F01CB-8044-4D82-912B-2C5A8D883AAC";
paths = (
{
closed = 1;
nodes = (
"802 -39 OFFCURVE",
"863 -15 OFFCURVE",
"909 15 CURVE SMOOTH",
"945 38 OFFCURVE",
"972 69 OFFCURVE",
"1003 99 CURVE SMOOTH",
"1011 106 OFFCURVE",
"1004 116 OFFCURVE",
"996 116 CURVE SMOOTH",
"994 116 OFFCURVE",
"991 115 OFFCURVE",
"989 113 CURVE SMOOTH",
"952 75 LINE SMOOTH",
"887 9 OFFCURVE",
"811 -19 OFFCURVE",
"715 -19 CURVE SMOOTH",
"635 -19 OFFCURVE",
"561 16 OFFCURVE",
"483 56 CURVE SMOOTH",
"475 60 OFFCURVE",
"468 53 OFFCURVE",
"468 47 CURVE SMOOTH",
"468 43 OFFCURVE",
"470 40 OFFCURVE",
"473 38 CURVE SMOOTH",
"551 -2 OFFCURVE",
"630 -39 OFFCURVE",
"715 -39 CURVE SMOOTH"
);
},
{
closed = 1;
nodes = (
"858 21 OFFCURVE",
"924 77 OFFCURVE",
"1009 186 CURVE SMOOTH",
"1015 193 OFFCURVE",
"1008 203 OFFCURVE",
"1001 203 CURVE SMOOTH",
"999 203 OFFCURVE",
"996 202 OFFCURVE",
"994 199 CURVE SMOOTH",
"909 90 OFFCURVE",
"848 41 OFFCURVE",
"725 41 CURVE SMOOTH",
"662 41 OFFCURVE",
"598 66 OFFCURVE",
"532 97 CURVE SMOOTH",
"524 101 OFFCURVE",
"518 95 OFFCURVE",
"518 88 CURVE SMOOTH",
"518 85 OFFCURVE",
"520 81 OFFCURVE",
"524 79 CURVE SMOOTH",
"590 48 OFFCURVE",
"658 21 OFFCURVE",
"725 21 CURVE SMOOTH"
);
},
{
closed = 1;
nodes = (
"723 258 LINE SMOOTH",
"730 259 OFFCURVE",
"731 264 OFFCURVE",
"731 269 CURVE SMOOTH",
"730 273 OFFCURVE",
"726 277 OFFCURVE",
"720 276 CURVE SMOOTH",
"448 228 LINE SMOOTH",
"431 225 OFFCURVE",
"421 236 OFFCURVE",
"418 250 CURVE SMOOTH",
"416 263 OFFCURVE",
"422 276 OFFCURVE",
"439 279 CURVE SMOOTH",
"760 336 LINE SMOOTH",
"783 340 OFFCURVE",
"795 329 OFFCURVE",
"797 316 CURVE SMOOTH",
"799 304 OFFCURVE",
"791 289 OFFCURVE",
"769 285 CURVE SMOOTH",
"764 284 OFFCURVE",
"761 279 OFFCURVE",
"762 274 CURVE SMOOTH",
"763 270 OFFCURVE",
"767 266 OFFCURVE",
"772 267 CURVE SMOOTH",
"807 273 OFFCURVE",
"821 299 OFFCURVE",
"818 320 CURVE SMOOTH",
"814 342 OFFCURVE",
"792 360 OFFCURVE",
"757 354 CURVE",
"436 297 LINE SMOOTH",
"407 292 OFFCURVE",
"397 267 OFFCURVE",
"400 247 CURVE SMOOTH",
"404 225 OFFCURVE",
"422 205 OFFCURVE",
"451 211 CURVE SMOOTH"
);
},
{
closed = 1;
nodes = (
"634 342 OFFCURVE",
"656 380 OFFCURVE",
"670 408 CURVE SMOOTH",
"720 507 OFFCURVE",
"860 797 OFFCURVE",
"1006 797 CURVE SMOOTH",
"1025 797 OFFCURVE",
"1045 792 OFFCURVE",
"1065 780 CURVE SMOOTH",
"1095 762 OFFCURVE",
"1109 730 OFFCURVE",
"1109 694 CURVE SMOOTH",
"1109 602 OFFCURVE",
"1027 477 OFFCURVE",
"912 434 CURVE SMOOTH",
"908 432 OFFCURVE",
"906 429 OFFCURVE",
"906 426 CURVE SMOOTH",
"906 420 OFFCURVE",
"910 415 OFFCURVE",
"916 415 CURVE SMOOTH",
"917 415 OFFCURVE",
"918 415 OFFCURVE",
"920 416 CURVE SMOOTH",
"1030 459 OFFCURVE",
"1130 592 OFFCURVE",
"1130 696 CURVE SMOOTH",
"1130 738 OFFCURVE",
"1114 774 OFFCURVE",
"1075 798 CURVE SMOOTH",
"1052 812 OFFCURVE",
"1028 818 OFFCURVE",
"1005 818 CURVE SMOOTH",
"848 818 OFFCURVE",
"706 525 OFFCURVE",
"652 417 CURVE SMOOTH",
"636 386 OFFCURVE",
"613 346 OFFCURVE",
"592 315 CURVE",
"615 314 LINE"
);
},
{
closed = 1;
nodes = (
"478 160 OFFCURVE",
"390 72 OFFCURVE",
"301 47 CURVE SMOOTH",
"273 39 OFFCURVE",
"239 34 OFFCURVE",
"208 34 CURVE SMOOTH",
"183 34 OFFCURVE",
"160 37 OFFCURVE",
"141 44 CURVE SMOOTH",
"105 57 OFFCURVE",
"86 84 OFFCURVE",
"86 103 CURVE SMOOTH",
"86 119 OFFCURVE",
"102 143 OFFCURVE",
"166 143 CURVE SMOOTH",
"180 143 OFFCURVE",
"197 142 OFFCURVE",
"216 139 CURVE SMOOTH",
"269 132 OFFCURVE",
"316 115 OFFCURVE",
"364 93 CURVE SMOOTH",
"372 89 OFFCURVE",
"379 96 OFFCURVE",
"379 102 CURVE SMOOTH",
"379 106 OFFCURVE",
"377 109 OFFCURVE",
"373 111 CURVE SMOOTH",
"323 134 OFFCURVE",
"274 151 OFFCURVE",
"218 159 CURVE SMOOTH",
"199 162 OFFCURVE",
"181 163 OFFCURVE",
"165 163 CURVE SMOOTH",
"99 163 OFFCURVE",
"66 139 OFFCURVE",
"66 103 CURVE SMOOTH",
"66 71 OFFCURVE",
"96 40 OFFCURVE",
"135 26 CURVE SMOOTH",
"157 18 OFFCURVE",
"183 14 OFFCURVE",
"210 14 CURVE SMOOTH",
"243 14 OFFCURVE",
"278 20 OFFCURVE",
"307 28 CURVE SMOOTH",
"407 56 OFFCURVE",
"503 156 OFFCURVE",
"567 244 CURVE",
"539 240 LINE"
);
},
{
closed = 1;
nodes = (
"698 337 OFFCURVE",
"710 358 OFFCURVE",
"720 376 CURVE SMOOTH",
"764 456 OFFCURVE",
"889 694 OFFCURVE",
"973 727 CURVE SMOOTH",
"982 731 OFFCURVE",
"991 732 OFFCURVE",
"999 732 CURVE SMOOTH",
"1018 732 OFFCURVE",
"1032 723 OFFCURVE",
"1038 708 CURVE SMOOTH",
"1041 701 OFFCURVE",
"1043 692 OFFCURVE",
"1043 681 CURVE SMOOTH",
"1043 658 OFFCURVE",
"1034 627 OFFCURVE",
"1011 589 CURVE SMOOTH",
"984 545 OFFCURVE",
"911 498 OFFCURVE",
"878 496 CURVE SMOOTH",
"872 496 OFFCURVE",
"869 491 OFFCURVE",
"869 486 CURVE SMOOTH",
"869 481 OFFCURVE",
"872 476 OFFCURVE",
"879 476 CURVE SMOOTH",
"880 476 LINE SMOOTH",
"921 476 OFFCURVE",
"999 531 OFFCURVE",
"1029 579 CURVE SMOOTH",
"1053 617 OFFCURVE",
"1063 652 OFFCURVE",
"1063 680 CURVE SMOOTH",
"1063 694 OFFCURVE",
"1061 706 OFFCURVE",
"1056 716 CURVE SMOOTH",
"1045 740 OFFCURVE",
"1024 752 OFFCURVE",
"999 752 CURVE SMOOTH",
"989 752 OFFCURVE",
"977 750 OFFCURVE",
"965 745 CURVE SMOOTH",
"873 710 OFFCURVE",
"750 472 OFFCURVE",
"703 386 CURVE SMOOTH",
"690 363 OFFCURVE",
"675 337 OFFCURVE",
"665 322 CURVE",
"692 327 LINE"
);
},
{
closed = 1;
nodes = (
"549 150 OFFCURVE",
"436 28 OFFCURVE",
"324 -5 CURVE SMOOTH",
"291 -15 OFFCURVE",
"252 -21 OFFCURVE",
"214 -21 CURVE SMOOTH",
"129 -21 OFFCURVE",
"46 8 OFFCURVE",
"23 91 CURVE SMOOTH",
"21 97 OFFCURVE",
"20 103 OFFCURVE",
"20 109 CURVE SMOOTH",
"20 158 OFFCURVE",
"76 204 OFFCURVE",
"176 204 CURVE SMOOTH",
"193 204 OFFCURVE",
"212 203 OFFCURVE",
"232 200 CURVE SMOOTH",
"292 191 OFFCURVE",
"350 165 OFFCURVE",
"412 134 CURVE SMOOTH",
"420 130 OFFCURVE",
"427 137 OFFCURVE",
"427 143 CURVE SMOOTH",
"427 147 OFFCURVE",
"425 150 OFFCURVE",
"421 152 CURVE SMOOTH",
"359 183 OFFCURVE",
"298 210 OFFCURVE",
"234 220 CURVE SMOOTH",
"215 223 OFFCURVE",
"196 224 OFFCURVE",
"179 224 CURVE SMOOTH",
"74 224 OFFCURVE",
"0 176 OFFCURVE",
"0 111 CURVE SMOOTH",
"0 103 OFFCURVE",
"2 95 OFFCURVE",
"4 86 CURVE SMOOTH",
"31 -10 OFFCURVE",
"124 -40 OFFCURVE",
"214 -40 CURVE SMOOTH",
"255 -40 OFFCURVE",
"296 -34 OFFCURVE",
"330 -24 CURVE SMOOTH",
"452 11 OFFCURVE",
"570 145 OFFCURVE",
"643 251 CURVE",
"619 253 LINE"
);
}
);
width = 1002;
}
);
unicode = 0141;
},
{
glyphname = M;
lastChange = "2021-11-15 12:52:57 +0000";
layers = (
{
background = {
paths = (
{
closed = 1;
nodes = (
"1165 554 OFFCURVE",
"1161 573 OFFCURVE",
"1148 570 CURVE SMOOTH",
"1015 540 OFFCURVE",
"840 353 OFFCURVE",
"744 256 CURVE SMOOTH",
"635 146 OFFCURVE",
"431 -15 OFFCURVE",
"273 -15 CURVE SMOOTH",
"161 -15 OFFCURVE",
"10 35 OFFCURVE",
"10 160 CURVE SMOOTH",
"10 303 OFFCURVE",
"232 399 OFFCURVE",
"360 399 CURVE SMOOTH",
"421 399 OFFCURVE",
"622 374 OFFCURVE",
"622 286 CURVE SMOOTH",
"622 276 OFFCURVE",
"618 274 OFFCURVE",
"617 274 CURVE",
"611 277 OFFCURVE",
"605 283 OFFCURVE",
"599 287 CURVE SMOOTH",
"532 342 OFFCURVE",
"468 373 OFFCURVE",
"376 373 CURVE SMOOTH",
"279 373 OFFCURVE",
"56 306 OFFCURVE",
"56 174 CURVE SMOOTH",
"56 51 OFFCURVE",
"173 19 OFFCURVE",
"268 19 CURVE SMOOTH",
"435 19 OFFCURVE",
"614 175 OFFCURVE",
"719 287 CURVE SMOOTH",
"777 350 OFFCURVE",
"983 550 OFFCURVE",
"1057 560 CURVE SMOOTH",
"1070 562 OFFCURVE",
"1068 582 OFFCURVE",
"1054 580 CURVE SMOOTH",
"972 569 OFFCURVE",
"760 360 OFFCURVE",
"704 301 CURVE SMOOTH",
"599 188 OFFCURVE",
"425 39 OFFCURVE",
"268 39 CURVE SMOOTH",
"173 39 OFFCURVE",
"76 71 OFFCURVE",
"76 174 CURVE SMOOTH",
"76 284 OFFCURVE",
"276 353 OFFCURVE",
"376 353 CURVE SMOOTH",
"463 353 OFFCURVE",
"523 324 OFFCURVE",
"587 272 CURVE SMOOTH",
"594 266 OFFCURVE",
"607 254 OFFCURVE",
"617 254 CURVE SMOOTH",
"638 254 OFFCURVE",
"642 277 OFFCURVE",
"642 286 CURVE SMOOTH",
"642 391 OFFCURVE",
"434 419 OFFCURVE",
"360 419 CURVE SMOOTH",
"232 419 OFFCURVE",
"-10 323 OFFCURVE",
"-10 160 CURVE SMOOTH",
"-10 15 OFFCURVE",
"163 -35 OFFCURVE",
"273 -35 CURVE SMOOTH",
"440 -35 OFFCURVE",
"650 133 OFFCURVE",
"758 242 CURVE SMOOTH",
"850 335 OFFCURVE",
"1025 522 OFFCURVE",
"1152 551 CURVE SMOOTH"
);
},
{
closed = 1;
nodes = (
"1356 683 OFFCURVE",
"791 721 OFFCURVE",
"688 721 CURVE SMOOTH",
"586 721 OFFCURVE",
"307 705 OFFCURVE",
"307 552 CURVE SMOOTH",
"307 535 OFFCURVE",
"315 514 OFFCURVE",
"336 514 CURVE SMOOTH",
"350 514 OFFCURVE",
"360 524 OFFCURVE",
"368 534 CURVE SMOOTH",
"447 636 OFFCURVE",
"561 642 OFFCURVE",
"677 642 CURVE SMOOTH",
"840 642 OFFCURVE",
"1022 624 OFFCURVE",
"1179 580 CURVE SMOOTH",
"1192 576 OFFCURVE",
"1197 596 OFFCURVE",
"1184 600 CURVE SMOOTH",
"1025 645 OFFCURVE",
"841 662 OFFCURVE",
"677 662 CURVE SMOOTH",
"563 662 OFFCURVE",
"435 654 OFFCURVE",
"358 554 CURVE SMOOTH",
"353 547 OFFCURVE",
"344 534 OFFCURVE",
"336 534 CURVE SMOOTH",
"329 534 OFFCURVE",
"327 547 OFFCURVE",
"327 552 CURVE SMOOTH",
"327 687 OFFCURVE",
"599 701 OFFCURVE",
"688 701 CURVE SMOOTH",
"816 701 OFFCURVE",
"1336 654 OFFCURVE",
"1336 583 CURVE SMOOTH",
"1336 578 OFFCURVE",
"1330 572 OFFCURVE",
"1323 572 CURVE SMOOTH",
"1292 572 OFFCURVE",
"1261 577 OFFCURVE",
"1231 583 CURVE SMOOTH",
"1230 583 OFFCURVE",
"1224 583 OFFCURVE",
"1223 582 CURVE",
"1138 533 OFFCURVE",
"1067 431 OFFCURVE",
"1045 335 CURVE SMOOTH",
"1042 322 OFFCURVE",
"1061 317 OFFCURVE",
"1064 330 CURVE SMOOTH",
"1085 420 OFFCURVE",
"1152 516 OFFCURVE",
"1230 563 CURVE",
"1260 557 OFFCURVE",
"1292 552 OFFCURVE",
"1323 552 CURVE SMOOTH",
"1338 552 OFFCURVE",
"1356 564 OFFCURVE",
"1356 583 CURVE SMOOTH"
);
},
{
closed = 1;
nodes = (
"1645 596 OFFCURVE",
"1643 616 OFFCURVE",
"1630 615 CURVE SMOOTH",
"1313 589 OFFCURVE",
"960 50 OFFCURVE",
"803 50 CURVE SMOOTH",
"792 50 OFFCURVE",
"787 54 OFFCURVE",
"787 61 CURVE SMOOTH",
"787 82 OFFCURVE",
"809 94 OFFCURVE",
"824 102 CURVE SMOOTH",
"944 168 OFFCURVE",
"985 430 OFFCURVE",
"1075 472 CURVE SMOOTH",
"1087 477 OFFCURVE",
"1079 495 OFFCURVE",
"1067 490 CURVE SMOOTH",
"966 443 OFFCURVE",
"928 181 OFFCURVE",
"815 119 CURVE SMOOTH",
"792 107 OFFCURVE",
"767 91 OFFCURVE",
"767 61 CURVE SMOOTH",
"767 38 OFFCURVE",
"787 30 OFFCURVE",
"803 30 CURVE SMOOTH",
"973 30 OFFCURVE",
"1322 570 OFFCURVE",
"1631 595 CURVE SMOOTH"
);
},
{
closed = 1;
nodes = (
"1529 526 OFFCURVE",
"1517 542 OFFCURVE",
"1506 534 CURVE SMOOTH",
"1388 446 OFFCURVE",
"1137 254 OFFCURVE",
"1137 91 CURVE SMOOTH",
"1137 23 OFFCURVE",
"1208 1 OFFCURVE",
"1258 1 CURVE SMOOTH",
"1313 1 OFFCURVE",
"1365 23 OFFCURVE",
"1407 55 CURVE SMOOTH",
"1418 64 OFFCURVE",
"1406 79 OFFCURVE",
"1395 71 CURVE SMOOTH",
"1356 41 OFFCURVE",
"1307 21 OFFCURVE",
"1258 21 CURVE SMOOTH",
"1209 21 OFFCURVE",
"1157 42 OFFCURVE",
"1157 91 CURVE SMOOTH",
"1157 241 OFFCURVE",
"1395 427 OFFCURVE",
"1518 518 CURVE SMOOTH"
);
},
{
closed = 1;
nodes = (
"1959 670 OFFCURVE",
"1809 670 OFFCURVE",
"1776 670 CURVE SMOOTH",
"1628 670 OFFCURVE",
"1476 632 OFFCURVE",
"1352 549 CURVE SMOOTH",
"1294 510 OFFCURVE",
"1239 465 OFFCURVE",
"1187 419 CURVE SMOOTH",
"1138 375 OFFCURVE",
"959 190 OFFCURVE",
"918 174 CURVE SMOOTH",
"906 169 OFFCURVE",
"913 150 OFFCURVE",
"925 155 CURVE SMOOTH",
"949 164 OFFCURVE",
"1007 218 OFFCURVE",
"1063 271 CURVE SMOOTH",
"1162 366 OFFCURVE",
"1248 456 OFFCURVE",
"1363 532 CURVE SMOOTH",
"1484 613 OFFCURVE",
"1632 650 OFFCURVE",
"1776 650 CURVE SMOOTH",
"1795 650 OFFCURVE",
"1939 648 OFFCURVE",
"1939 611 CURVE SMOOTH",
"1939 595 OFFCURVE",
"1909 590 OFFCURVE",
"1898 590 CURVE SMOOTH",
"1860 590 OFFCURVE",
"1824 604 OFFCURVE",
"1785 604 CURVE SMOOTH",
"1742 604 OFFCURVE",
"1703 591 OFFCURVE",
"1667 572 CURVE SMOOTH",
"1537 505 OFFCURVE",
"1220 224 OFFCURVE",
"1220 124 CURVE SMOOTH",
"1220 84 OFFCURVE",
"1257 70 OFFCURVE",
"1286 70 CURVE SMOOTH",
"1351 70 OFFCURVE",
"1441 139 OFFCURVE",
"1477 187 CURVE SMOOTH",
"1485 197 OFFCURVE",
"1469 209 OFFCURVE",
"1461 199 CURVE SMOOTH",
"1426 153 OFFCURVE",
"1342 90 OFFCURVE",
"1286 90 CURVE SMOOTH",
"1260 90 OFFCURVE",
"1240 101 OFFCURVE",
"1240 124 CURVE SMOOTH",
"1240 210 OFFCURVE",
"1503 435 OFFCURVE",
"1578 490 CURVE SMOOTH",
"1641 536 OFFCURVE",
"1708 584 OFFCURVE",
"1785 584 CURVE SMOOTH",
"1824 584 OFFCURVE",
"1860 570 OFFCURVE",
"1898 570 CURVE SMOOTH",
"1922 570 OFFCURVE",
"1959 580 OFFCURVE",
"1959 611 CURVE SMOOTH"
);
}
);
};
layerId = "6B4F01CB-8044-4D82-912B-2C5A8D883AAC";
paths = (
{
closed = 1;
nodes = (
"440 -35 OFFCURVE",
"650 133 OFFCURVE",
"758 242 CURVE SMOOTH",
"850 335 OFFCURVE",
"1025 522 OFFCURVE",
"1152 551 CURVE SMOOTH",
"1157 552 OFFCURVE",
"1160 556 OFFCURVE",
"1160 560 CURVE SMOOTH",
"1160 565 OFFCURVE",
"1156 570 OFFCURVE",
"1151 570 CURVE SMOOTH",
"1148 570 LINE",
"1015 540 OFFCURVE",
"840 353 OFFCURVE",
"744 256 CURVE SMOOTH",
"635 146 OFFCURVE",
"431 -15 OFFCURVE",
"273 -15 CURVE SMOOTH",
"161 -15 OFFCURVE",
"10 35 OFFCURVE",
"10 160 CURVE SMOOTH",
"10 303 OFFCURVE",
"232 399 OFFCURVE",
"360 399 CURVE SMOOTH",
"421 399 OFFCURVE",
"622 374 OFFCURVE",
"622 286 CURVE SMOOTH",
"622 276 OFFCURVE",
"618 274 OFFCURVE",
"617 274 CURVE",
"611 277 OFFCURVE",
"605 283 OFFCURVE",
"599 287 CURVE SMOOTH",
"532 342 OFFCURVE",
"468 373 OFFCURVE",
"376 373 CURVE SMOOTH",
"279 373 OFFCURVE",
"56 306 OFFCURVE",
"56 174 CURVE SMOOTH",
"56 51 OFFCURVE",
"173 19 OFFCURVE",
"268 19 CURVE SMOOTH",
"435 19 OFFCURVE",
"614 175 OFFCURVE",
"719 287 CURVE SMOOTH",
"777 350 OFFCURVE",
"983 550 OFFCURVE",
"1057 560 CURVE SMOOTH",
"1063 561 OFFCURVE",
"1066 566 OFFCURVE",
"1066 570 CURVE SMOOTH",
"1066 575 OFFCURVE",
"1062 580 OFFCURVE",
"1056 580 CURVE SMOOTH",
"1054 580 LINE SMOOTH",
"972 569 OFFCURVE",
"760 360 OFFCURVE",
"704 301 CURVE SMOOTH",
"599 188 OFFCURVE",
"425 39 OFFCURVE",
"268 39 CURVE SMOOTH",
"173 39 OFFCURVE",
"76 71 OFFCURVE",
"76 174 CURVE SMOOTH",
"76 284 OFFCURVE",
"276 353 OFFCURVE",
"376 353 CURVE SMOOTH",
"463 353 OFFCURVE",
"523 324 OFFCURVE",
"587 272 CURVE SMOOTH",
"594 266 OFFCURVE",
"607 254 OFFCURVE",
"617 254 CURVE SMOOTH",
"638 254 OFFCURVE",
"642 277 OFFCURVE",
"642 286 CURVE SMOOTH",
"642 391 OFFCURVE",
"434 419 OFFCURVE",
"360 419 CURVE SMOOTH",
"232 419 OFFCURVE",
"-10 323 OFFCURVE",
"-10 160 CURVE SMOOTH",
"-10 15 OFFCURVE",
"163 -35 OFFCURVE",
"273 -35 CURVE SMOOTH"
);
},
{
closed = 1;
nodes = (
"1085 420 OFFCURVE",
"1152 516 OFFCURVE",
"1230 563 CURVE",
"1260 557 OFFCURVE",
"1292 552 OFFCURVE",
"1323 552 CURVE SMOOTH",
"1338 552 OFFCURVE",
"1356 564 OFFCURVE",
"1356 583 CURVE SMOOTH",
"1356 683 OFFCURVE",
"791 721 OFFCURVE",
"688 721 CURVE SMOOTH",
"586 721 OFFCURVE",
"307 705 OFFCURVE",
"307 552 CURVE SMOOTH",
"307 535 OFFCURVE",
"315 514 OFFCURVE",
"336 514 CURVE SMOOTH",
"350 514 OFFCURVE",
"360 524 OFFCURVE",
"368 534 CURVE SMOOTH",
"447 636 OFFCURVE",
"561 642 OFFCURVE",
"677 642 CURVE SMOOTH",
"840 642 OFFCURVE",
"1022 624 OFFCURVE",
"1179 580 CURVE SMOOTH",
"1187 578 OFFCURVE",
"1192 584 OFFCURVE",
"1192 590 CURVE SMOOTH",
"1192 594 OFFCURVE",
"1189 598 OFFCURVE",
"1184 600 CURVE SMOOTH",
"1025 645 OFFCURVE",
"841 662 OFFCURVE",
"677 662 CURVE SMOOTH",
"563 662 OFFCURVE",
"435 654 OFFCURVE",
"358 554 CURVE SMOOTH",
"353 547 OFFCURVE",
"344 534 OFFCURVE",
"336 534 CURVE SMOOTH",
"329 534 OFFCURVE",
"327 547 OFFCURVE",
"327 552 CURVE SMOOTH",
"327 687 OFFCURVE",
"599 701 OFFCURVE",
"688 701 CURVE SMOOTH",
"816 701 OFFCURVE",
"1336 654 OFFCURVE",
"1336 583 CURVE SMOOTH",
"1336 578 OFFCURVE",
"1330 572 OFFCURVE",
"1323 572 CURVE SMOOTH",
"1292 572 OFFCURVE",
"1261 577 OFFCURVE",
"1231 583 CURVE SMOOTH",
"1230 583 OFFCURVE",
"1224 583 OFFCURVE",
"1223 582 CURVE",
"1138 533 OFFCURVE",
"1067 431 OFFCURVE",
"1045 335 CURVE SMOOTH",
"1043 327 OFFCURVE",
"1049 322 OFFCURVE",
"1055 322 CURVE SMOOTH",
"1059 322 OFFCURVE",
"1063 325 OFFCURVE",
"1064 330 CURVE SMOOTH"
);
},
{
closed = 1;
nodes = (
"973 30 OFFCURVE",
"1322 570 OFFCURVE",
"1631 595 CURVE SMOOTH",
"1638 595 OFFCURVE",
"1641 600 OFFCURVE",
"1641 605 CURVE SMOOTH",
"1641 610 OFFCURVE",
"1637 615 OFFCURVE",
"1631 615 CURVE SMOOTH",
"1630 615 LINE SMOOTH",
"1313 589 OFFCURVE",
"960 50 OFFCURVE",
"803 50 CURVE SMOOTH",
"792 50 OFFCURVE",
"787 54 OFFCURVE",
"787 61 CURVE SMOOTH",
"787 82 OFFCURVE",
"809 94 OFFCURVE",
"824 102 CURVE SMOOTH",
"944 168 OFFCURVE",
"985 430 OFFCURVE",
"1075 472 CURVE SMOOTH",
"1079 474 OFFCURVE",
"1081 477 OFFCURVE",
"1081 480 CURVE SMOOTH",
"1081 486 OFFCURVE",
"1077 491 OFFCURVE",
"1071 491 CURVE SMOOTH",
"1070 491 OFFCURVE",
"1068 491 OFFCURVE",
"1067 490 CURVE",
"966 443 OFFCURVE",
"928 181 OFFCURVE",
"815 119 CURVE SMOOTH",
"792 107 OFFCURVE",
"767 91 OFFCURVE",
"767 61 CURVE SMOOTH",
"767 38 OFFCURVE",
"787 30 OFFCURVE",
"803 30 CURVE SMOOTH"
);
},
{
closed = 1;
nodes = (
"1313 1 OFFCURVE",
"1365 23 OFFCURVE",
"1407 55 CURVE SMOOTH",
"1410 57 OFFCURVE",
"1411 60 OFFCURVE",
"1411 63 CURVE SMOOTH",
"1411 68 OFFCURVE",
"1407 73 OFFCURVE",
"1401 73 CURVE SMOOTH",
"1399 73 OFFCURVE",
"1397 73 OFFCURVE",
"1395 71 CURVE SMOOTH",
"1356 41 OFFCURVE",
"1307 21 OFFCURVE",
"1258 21 CURVE SMOOTH",
"1209 21 OFFCURVE",
"1157 42 OFFCURVE",
"1157 91 CURVE SMOOTH",
"1157 241 OFFCURVE",
"1395 427 OFFCURVE",
"1518 518 CURVE SMOOTH",
"1521 520 OFFCURVE",
"1522 523 OFFCURVE",
"1522 526 CURVE SMOOTH",
"1522 531 OFFCURVE",
"1518 536 OFFCURVE",
"1512 536 CURVE SMOOTH",
"1510 536 OFFCURVE",
"1508 536 OFFCURVE",
"1506 534 CURVE SMOOTH",
"1388 446 OFFCURVE",
"1137 254 OFFCURVE",
"1137 91 CURVE SMOOTH",
"1137 23 OFFCURVE",
"1208 1 OFFCURVE",
"1258 1 CURVE SMOOTH"
);
},
{
closed = 1;
nodes = (
"1351 70 OFFCURVE",
"1441 139 OFFCURVE",
"1477 187 CURVE SMOOTH",
"1483 194 OFFCURVE",
"1476 203 OFFCURVE",
"1468 203 CURVE SMOOTH",
"1466 203 OFFCURVE",
"1463 202 OFFCURVE",
"1461 199 CURVE SMOOTH",
"1426 153 OFFCURVE",
"1342 90 OFFCURVE",
"1286 90 CURVE SMOOTH",
"1260 90 OFFCURVE",
"1240 101 OFFCURVE",
"1240 124 CURVE SMOOTH",
"1240 210 OFFCURVE",
"1503 435 OFFCURVE",
"1578 490 CURVE SMOOTH",
"1641 536 OFFCURVE",
"1708 584 OFFCURVE",
"1785 584 CURVE SMOOTH",
"1824 584 OFFCURVE",
"1860 570 OFFCURVE",
"1898 570 CURVE SMOOTH",
"1922 570 OFFCURVE",
"1959 580 OFFCURVE",
"1959 611 CURVE SMOOTH",
"1959 670 OFFCURVE",
"1809 670 OFFCURVE",
"1776 670 CURVE SMOOTH",
"1628 670 OFFCURVE",
"1476 632 OFFCURVE",
"1352 549 CURVE SMOOTH",
"1294 510 OFFCURVE",
"1239 465 OFFCURVE",
"1187 419 CURVE SMOOTH",
"1138 375 OFFCURVE",
"959 190 OFFCURVE",
"918 174 CURVE SMOOTH",
"914 172 OFFCURVE",
"912 169 OFFCURVE",
"912 165 CURVE SMOOTH",
"912 160 OFFCURVE",
"916 154 OFFCURVE",
"921 154 CURVE SMOOTH",
"922 154 OFFCURVE",
"924 154 OFFCURVE",
"925 155 CURVE",
"949 164 OFFCURVE",
"1007 218 OFFCURVE",
"1063 271 CURVE SMOOTH",
"1162 366 OFFCURVE",
"1248 456 OFFCURVE",
"1363 532 CURVE SMOOTH",
"1484 613 OFFCURVE",
"1632 650 OFFCURVE",
"1776 650 CURVE SMOOTH",
"1795 650 OFFCURVE",
"1939 648 OFFCURVE",
"1939 611 CURVE SMOOTH",
"1939 595 OFFCURVE",
"1909 590 OFFCURVE",
"1898 590 CURVE SMOOTH",
"1860 590 OFFCURVE",
"1824 604 OFFCURVE",
"1785 604 CURVE SMOOTH",
"1742 604 OFFCURVE",
"1703 591 OFFCURVE",
"1667 572 CURVE SMOOTH",
"1537 505 OFFCURVE",
"1220 224 OFFCURVE",
"1220 124 CURVE SMOOTH",
"1220 84 OFFCURVE",
"1257 70 OFFCURVE",
"1286 70 CURVE SMOOTH"
);
}
);
width = 1469;
}
);
note = M;
unicode = 004D;
},
{
glyphname = N;
lastChange = "2021-11-15 12:52:57 +0000";
layers = (
{
anchors = (
{
name = bottom;
position = "{654, 0}";
},
{
name = top;
position = "{1209, 750}";
}
);
background = {
paths = (
{
closed = 1;
nodes = (
"983 543 OFFCURVE",
"969 556 OFFCURVE",
"960 545 CURVE SMOOTH",
"824 377 OFFCURVE",
"723 176 OFFCURVE",
"536 53 CURVE SMOOTH",
"380 -50 OFFCURVE",
"10 -56 OFFCURVE",
"10 160 CURVE SMOOTH",
"10 303 OFFCURVE",
"232 399 OFFCURVE",
"360 399 CURVE SMOOTH",
"421 399 OFFCURVE",
"622 374 OFFCURVE",
"622 286 CURVE SMOOTH",
"622 276 OFFCURVE",
"618 274 OFFCURVE",
"617 274 CURVE",
"610 277 OFFCURVE",
"604 282 OFFCURVE",
"599 286 CURVE SMOOTH",
"531 339 OFFCURVE",
"467 368 OFFCURVE",
"376 368 CURVE SMOOTH",
"280 368 OFFCURVE",
"56 306 OFFCURVE",
"56 174 CURVE SMOOTH",
"56 -42 OFFCURVE",
"408 17 OFFCURVE",
"516 90 CURVE SMOOTH",
"701 214 OFFCURVE",
"787 395 OFFCURVE",
"925 561 CURVE SMOOTH",
"934 571 OFFCURVE",
"919 583 OFFCURVE",
"910 573 CURVE SMOOTH",
"775 410 OFFCURVE",
"686 229 OFFCURVE",
"504 106 CURVE SMOOTH",
"388 28 OFFCURVE",
"76 -4 OFFCURVE",
"76 174 CURVE SMOOTH",
"76 284 OFFCURVE",
"276 348 OFFCURVE",
"376 348 CURVE SMOOTH",
"462 348 OFFCURVE",
"522 321 OFFCURVE",
"587 271 CURVE SMOOTH",
"594 265 OFFCURVE",
"607 254 OFFCURVE",
"617 254 CURVE SMOOTH",
"638 254 OFFCURVE",
"642 277 OFFCURVE",
"642 286 CURVE SMOOTH",
"642 391 OFFCURVE",
"434 419 OFFCURVE",
"360 419 CURVE SMOOTH",
"232 419 OFFCURVE",
"-10 323 OFFCURVE",
"-10 160 CURVE SMOOTH",
"-10 -91 OFFCURVE",
"397 -62 OFFCURVE",
"547 37 CURVE SMOOTH",
"738 162 OFFCURVE",
"835 361 OFFCURVE",
"975 533 CURVE SMOOTH"
);
},
{
closed = 1;
nodes = (
"1038 571 OFFCURVE",
"1044 640 OFFCURVE",
"976 665 CURVE SMOOTH",
"821 722 OFFCURVE",
"313 832 OFFCURVE",
"193 573 CURVE SMOOTH",
"167 517 OFFCURVE",
"244 505 OFFCURVE",
"267 557 CURVE SMOOTH",
"304 642 OFFCURVE",
"458 665 OFFCURVE",
"574 665 CURVE SMOOTH",
"676 665 OFFCURVE",
"793 642 OFFCURVE",
"951 597 CURVE SMOOTH",
"964 593 OFFCURVE",
"970 612 OFFCURVE",
"957 616 CURVE SMOOTH",
"798 661 OFFCURVE",
"679 685 OFFCURVE",
"574 685 CURVE SMOOTH",
"462 685 OFFCURVE",
"291 664 OFFCURVE",
"248 565 CURVE SMOOTH",
"237 540 OFFCURVE",
"196 533 OFFCURVE",
"211 565 CURVE SMOOTH",
"319 798 OFFCURVE",
"773 710 OFFCURVE",
"953 652 CURVE SMOOTH",
"963 649 OFFCURVE",
"973 645 OFFCURVE",
"983 640 CURVE SMOOTH",
"1025 618 OFFCURVE",
"1015 545 OFFCURVE",
"1012 510 CURVE SMOOTH",
"1003 418 OFFCURVE",
"992 311 OFFCURVE",
"975 221 CURVE SMOOTH",
"973 208 OFFCURVE",
"992 204 OFFCURVE",
"995 217 CURVE SMOOTH",
"1012 307 OFFCURVE",
"1023 415 OFFCURVE",
"1032 508 CURVE SMOOTH"
);
},
{
closed = 1;
nodes = (
"1328 820 OFFCURVE",
"1214 534 OFFCURVE",
"1092 325 CURVE SMOOTH",
"1053 258 OFFCURVE",
"1015 203 OFFCURVE",
"971 171 CURVE SMOOTH",
"960 163 OFFCURVE",
"972 147 OFFCURVE",
"983 155 CURVE SMOOTH",
"1031 189 OFFCURVE",
"1071 248 OFFCURVE",
"1110 315 CURVE SMOOTH",
"1227 516 OFFCURVE",
"1339 800 OFFCURVE",
"1623 793 CURVE SMOOTH",
"1650 792 OFFCURVE",
"1645 767 OFFCURVE",
"1618 767 CURVE SMOOTH",
"1489 765 OFFCURVE",
"1388 677 OFFCURVE",
"1310 575 CURVE SMOOTH",
"1241 485 OFFCURVE",
"1193 385 OFFCURVE",
"1137 288 CURVE SMOOTH",
"1061 155 OFFCURVE",
"930 1 OFFCURVE",
"858 -17 CURVE SMOOTH",
"846 -20 OFFCURVE",
"840 -17 OFFCURVE",
"839 -10 CURVE SMOOTH",
"834 10 OFFCURVE",
"853 27 OFFCURVE",
"865 38 CURVE SMOOTH",
"929 97 OFFCURVE",
"961 378 OFFCURVE",
"974 470 CURVE SMOOTH",
"976 483 OFFCURVE",
"956 486 OFFCURVE",
"954 472 CURVE SMOOTH",
"943 388 OFFCURVE",
"909 106 OFFCURVE",
"852 53 CURVE SMOOTH",
"844 46 OFFCURVE",
"834 37 OFFCURVE",
"827 26 CURVE SMOOTH",
"808 -4 OFFCURVE",
"819 -48 OFFCURVE",
"862 -37 CURVE SMOOTH",
"944 -17 OFFCURVE",
"1079 147 OFFCURVE",
"1155 278 CURVE SMOOTH",
"1174 311 OFFCURVE",
"1197 357 OFFCURVE",
"1226 408 CURVE SMOOTH",
"1307 550 OFFCURVE",
"1434 744 OFFCURVE",
"1618 747 CURVE SMOOTH",
"1672 748 OFFCURVE",
"1676 812 OFFCURVE",
"1623 813 CURVE SMOOTH"
);
}
);
};
layerId = "6B4F01CB-8044-4D82-912B-2C5A8D883AAC";
paths = (
{
closed = 1;
nodes = (
"944 -17 OFFCURVE",
"1079 147 OFFCURVE",
"1155 278 CURVE SMOOTH",
"1174 311 OFFCURVE",
"1197 357 OFFCURVE",
"1226 408 CURVE SMOOTH",
"1307 550 OFFCURVE",
"1434 744 OFFCURVE",
"1618 747 CURVE SMOOTH",
"1646 748 OFFCURVE",
"1661 765 OFFCURVE",
"1661 782 CURVE SMOOTH",
"1661 798 OFFCURVE",
"1648 813 OFFCURVE",
"1623 813 CURVE SMOOTH",
"1328 820 OFFCURVE",
"1214 534 OFFCURVE",
"1092 325 CURVE SMOOTH",
"1053 258 OFFCURVE",
"1015 203 OFFCURVE",
"971 171 CURVE SMOOTH",
"968 169 OFFCURVE",
"967 166 OFFCURVE",
"967 163 CURVE SMOOTH",
"967 158 OFFCURVE",
"971 153 OFFCURVE",
"977 153 CURVE SMOOTH",
"979 153 OFFCURVE",
"981 153 OFFCURVE",
"983 155 CURVE",
"1031 189 OFFCURVE",
"1071 248 OFFCURVE",
"1110 315 CURVE SMOOTH",
"1227 516 OFFCURVE",
"1339 800 OFFCURVE",
"1623 793 CURVE SMOOTH",
"1635 793 OFFCURVE",
"1641 787 OFFCURVE",
"1641 781 CURVE SMOOTH",
"1641 774 OFFCURVE",
"1633 767 OFFCURVE",
"1618 767 CURVE SMOOTH",
"1489 765 OFFCURVE",
"1388 677 OFFCURVE",
"1310 575 CURVE SMOOTH",
"1241 485 OFFCURVE",
"1193 385 OFFCURVE",
"1137 288 CURVE SMOOTH",
"1061 155 OFFCURVE",
"930 1 OFFCURVE",
"858 -17 CURVE SMOOTH",
"855 -18 OFFCURVE",
"852 -18 OFFCURVE",
"850 -18 CURVE SMOOTH",
"841 -18 OFFCURVE",
"838 -12 OFFCURVE",
"838 -3 CURVE SMOOTH",
"838 14 OFFCURVE",
"854 28 OFFCURVE",
"865 38 CURVE SMOOTH",
"929 97 OFFCURVE",
"961 378 OFFCURVE",
"974 470 CURVE SMOOTH",
"975 477 OFFCURVE",
"970 481 OFFCURVE",
"964 481 CURVE SMOOTH",
"960 481 OFFCURVE",
"955 478 OFFCURVE",
"954 472 CURVE SMOOTH",
"943 388 OFFCURVE",
"909 106 OFFCURVE",
"852 53 CURVE SMOOTH",
"844 46 OFFCURVE",
"834 37 OFFCURVE",
"827 26 CURVE SMOOTH",
"821 17 OFFCURVE",
"818 6 OFFCURVE",
"818 -4 CURVE SMOOTH",
"818 -23 OFFCURVE",
"828 -39 OFFCURVE",
"849 -39 CURVE SMOOTH",
"853 -39 OFFCURVE",
"857 -38 OFFCURVE",
"862 -37 CURVE SMOOTH"
);
},
{
closed = 1;
nodes = (
"738 162 OFFCURVE",
"835 361 OFFCURVE",
"975 533 CURVE SMOOTH",
"981 540 OFFCURVE",
"975 549 OFFCURVE",
"968 549 CURVE SMOOTH",
"965 549 OFFCURVE",
"962 548 OFFCURVE",
"960 545 CURVE SMOOTH",
"824 377 OFFCURVE",
"723 176 OFFCURVE",
"536 53 CURVE SMOOTH",
"471 10 OFFCURVE",
"368 -16 OFFCURVE",
"271 -16 CURVE SMOOTH",
"135 -16 OFFCURVE",
"10 34 OFFCURVE",
"10 160 CURVE SMOOTH",
"10 303 OFFCURVE",
"232 399 OFFCURVE",
"360 399 CURVE SMOOTH",
"421 399 OFFCURVE",
"622 374 OFFCURVE",
"622 286 CURVE SMOOTH",
"622 276 OFFCURVE",
"618 274 OFFCURVE",
"617 274 CURVE",
"610 277 OFFCURVE",
"604 282 OFFCURVE",
"599 286 CURVE SMOOTH",
"531 339 OFFCURVE",
"467 368 OFFCURVE",
"376 368 CURVE SMOOTH",
"280 368 OFFCURVE",
"56 306 OFFCURVE",
"56 174 CURVE SMOOTH",
"56 61 OFFCURVE",
"152 23 OFFCURVE",
"259 23 CURVE SMOOTH",
"357 23 OFFCURVE",
"464 55 OFFCURVE",
"516 90 CURVE SMOOTH",
"701 214 OFFCURVE",
"787 395 OFFCURVE",
"925 561 CURVE",
"932 568 OFFCURVE",
"925 577 OFFCURVE",
"918 577 CURVE SMOOTH",
"915 577 OFFCURVE",
"912 576 OFFCURVE",
"910 573 CURVE SMOOTH",
"775 410 OFFCURVE",
"686 229 OFFCURVE",
"504 106 CURVE SMOOTH",
"450 70 OFFCURVE",
"354 44 OFFCURVE",
"267 44 CURVE SMOOTH",
"166 44 OFFCURVE",
"76 79 OFFCURVE",
"76 174 CURVE SMOOTH",
"76 284 OFFCURVE",
"276 348 OFFCURVE",
"376 348 CURVE SMOOTH",
"462 348 OFFCURVE",
"522 321 OFFCURVE",
"587 271 CURVE SMOOTH",
"594 265 OFFCURVE",
"607 254 OFFCURVE",
"617 254 CURVE SMOOTH",
"638 254 OFFCURVE",
"642 277 OFFCURVE",
"642 286 CURVE SMOOTH",
"642 391 OFFCURVE",
"434 419 OFFCURVE",
"360 419 CURVE SMOOTH",
"232 419 OFFCURVE",
"-10 323 OFFCURVE",
"-10 160 CURVE SMOOTH",
"-10 17 OFFCURVE",
"122 -35 OFFCURVE",
"264 -35 CURVE SMOOTH",
"371 -35 OFFCURVE",
"483 -6 OFFCURVE",
"547 37 CURVE SMOOTH"
);
},
{
closed = 1;
nodes = (
"1012 307 OFFCURVE",
"1023 415 OFFCURVE",
"1032 508 CURVE SMOOTH",
"1034 526 OFFCURVE",
"1035 544 OFFCURVE",
"1035 562 CURVE SMOOTH",
"1035 607 OFFCURVE",
"1025 647 OFFCURVE",
"976 665 CURVE SMOOTH",
"896 694 OFFCURVE",
"723 738 OFFCURVE",
"558 738 CURVE SMOOTH",
"401 738 OFFCURVE",
"251 699 OFFCURVE",
"193 573 CURVE SMOOTH",
"189 565 OFFCURVE",
"187 558 OFFCURVE",
"187 551 CURVE SMOOTH",
"187 533 OFFCURVE",
"202 524 OFFCURVE",
"219 524 CURVE SMOOTH",
"237 524 OFFCURVE",
"257 534 OFFCURVE",
"267 557 CURVE SMOOTH",
"304 642 OFFCURVE",
"458 665 OFFCURVE",
"574 665 CURVE SMOOTH",
"676 665 OFFCURVE",
"793 642 OFFCURVE",
"951 597 CURVE SMOOTH",
"959 595 OFFCURVE",
"964 601 OFFCURVE",
"964 607 CURVE SMOOTH",
"964 611 OFFCURVE",
"962 614 OFFCURVE",
"957 616 CURVE SMOOTH",
"798 661 OFFCURVE",
"679 685 OFFCURVE",
"574 685 CURVE SMOOTH",
"462 685 OFFCURVE",
"291 664 OFFCURVE",
"248 565 CURVE SMOOTH",
"242 552 OFFCURVE",
"228 544 OFFCURVE",
"218 544 CURVE SMOOTH",
"212 544 OFFCURVE",
"208 547 OFFCURVE",
"208 553 CURVE SMOOTH",
"208 556 OFFCURVE",
"209 560 OFFCURVE",
"211 565 CURVE SMOOTH",
"265 681 OFFCURVE",
"405 718 OFFCURVE",
"554 718 CURVE SMOOTH",
"704 718 OFFCURVE",
"863 681 OFFCURVE",
"953 652 CURVE SMOOTH",
"963 649 OFFCURVE",
"973 645 OFFCURVE",
"983 640 CURVE SMOOTH",
"1009 626 OFFCURVE",
"1015 592 OFFCURVE",
"1015 560 CURVE SMOOTH",
"1015 541 OFFCURVE",
"1013 523 OFFCURVE",
"1012 510 CURVE SMOOTH",
"1003 418 OFFCURVE",
"992 311 OFFCURVE",
"975 221 CURVE SMOOTH",
"974 214 OFFCURVE",
"980 209 OFFCURVE",
"985 209 CURVE SMOOTH",
"990 209 OFFCURVE",
"994 211 OFFCURVE",
"995 217 CURVE SMOOTH"
);
}
);
width = 1188;
}
);
note = N;
unicode = 004E;
},
{
glyphname = Eng;
lastChange = "2021-11-15 12:52:57 +0000";
layers = (
{
background = {
paths = (
{
closed = 1;
nodes = (
"983 543 OFFCURVE",
"969 556 OFFCURVE",
"960 545 CURVE SMOOTH",
"824 377 OFFCURVE",
"723 176 OFFCURVE",
"536 53 CURVE SMOOTH",
"380 -50 OFFCURVE",
"10 -56 OFFCURVE",
"10 160 CURVE SMOOTH",
"10 303 OFFCURVE",
"232 399 OFFCURVE",
"360 399 CURVE SMOOTH",
"421 399 OFFCURVE",
"622 374 OFFCURVE",
"622 286 CURVE SMOOTH",
"622 276 OFFCURVE",
"618 274 OFFCURVE",
"617 274 CURVE",
"610 277 OFFCURVE",
"604 282 OFFCURVE",
"599 286 CURVE SMOOTH",
"531 339 OFFCURVE",
"467 368 OFFCURVE",
"376 368 CURVE SMOOTH",
"280 368 OFFCURVE",
"56 306 OFFCURVE",
"56 174 CURVE SMOOTH",
"56 -42 OFFCURVE",
"408 17 OFFCURVE",
"516 90 CURVE SMOOTH",
"701 214 OFFCURVE",
"787 395 OFFCURVE",
"925 561 CURVE SMOOTH",
"934 571 OFFCURVE",
"919 583 OFFCURVE",
"910 573 CURVE SMOOTH",
"775 410 OFFCURVE",
"686 229 OFFCURVE",
"504 106 CURVE SMOOTH",
"388 28 OFFCURVE",
"76 -4 OFFCURVE",
"76 174 CURVE SMOOTH",
"76 284 OFFCURVE",
"276 348 OFFCURVE",
"376 348 CURVE SMOOTH",
"462 348 OFFCURVE",
"522 321 OFFCURVE",
"587 271 CURVE SMOOTH",
"594 265 OFFCURVE",
"607 254 OFFCURVE",
"617 254 CURVE SMOOTH",
"638 254 OFFCURVE",
"642 277 OFFCURVE",
"642 286 CURVE SMOOTH",
"642 391 OFFCURVE",
"434 419 OFFCURVE",
"360 419 CURVE SMOOTH",
"232 419 OFFCURVE",
"-10 323 OFFCURVE",
"-10 160 CURVE SMOOTH",
"-10 -91 OFFCURVE",
"397 -62 OFFCURVE",
"547 37 CURVE SMOOTH",
"738 162 OFFCURVE",
"835 361 OFFCURVE",
"975 533 CURVE SMOOTH"
);
},
{
closed = 1;
nodes = (
"1038 571 OFFCURVE",
"1044 640 OFFCURVE",
"976 665 CURVE SMOOTH",
"821 722 OFFCURVE",
"313 832 OFFCURVE",
"193 573 CURVE SMOOTH",
"167 517 OFFCURVE",
"244 505 OFFCURVE",
"267 557 CURVE SMOOTH",
"304 642 OFFCURVE",
"458 665 OFFCURVE",
"574 665 CURVE SMOOTH",
"676 665 OFFCURVE",
"793 642 OFFCURVE",
"951 597 CURVE SMOOTH",
"964 593 OFFCURVE",
"970 612 OFFCURVE",
"957 616 CURVE SMOOTH",
"798 661 OFFCURVE",
"679 685 OFFCURVE",
"574 685 CURVE SMOOTH",
"462 685 OFFCURVE",
"291 664 OFFCURVE",
"248 565 CURVE SMOOTH",
"237 540 OFFCURVE",
"196 533 OFFCURVE",
"211 565 CURVE SMOOTH",
"319 798 OFFCURVE",
"773 710 OFFCURVE",
"953 652 CURVE SMOOTH",
"963 649 OFFCURVE",
"973 645 OFFCURVE",
"983 640 CURVE SMOOTH",
"1025 618 OFFCURVE",
"1015 545 OFFCURVE",
"1012 510 CURVE SMOOTH",
"1003 418 OFFCURVE",
"992 311 OFFCURVE",
"975 221 CURVE SMOOTH",
"973 208 OFFCURVE",
"992 204 OFFCURVE",
"995 217 CURVE SMOOTH",
"1012 307 OFFCURVE",
"1023 415 OFFCURVE",
"1032 508 CURVE SMOOTH"
);
},
{
closed = 1;
nodes = (
"1328 820 OFFCURVE",
"1214 534 OFFCURVE",
"1092 325 CURVE SMOOTH",
"1053 258 OFFCURVE",
"1015 203 OFFCURVE",
"971 171 CURVE SMOOTH",
"960 163 OFFCURVE",
"972 147 OFFCURVE",
"983 155 CURVE SMOOTH",
"1031 189 OFFCURVE",
"1071 248 OFFCURVE",
"1110 315 CURVE SMOOTH",
"1227 516 OFFCURVE",
"1339 800 OFFCURVE",
"1623 793 CURVE SMOOTH",
"1650 792 OFFCURVE",
"1645 767 OFFCURVE",
"1618 767 CURVE SMOOTH",
"1489 765 OFFCURVE",
"1388 677 OFFCURVE",
"1310 575 CURVE SMOOTH",
"1253 500 OFFCURVE",
"1210 418 OFFCURVE",
"1165 337 CURVE SMOOTH",
"953 -51 OFFCURVE",
"819 -174 OFFCURVE",
"633 -260 CURVE SMOOTH",
"465 -337 OFFCURVE",
"329 -293 OFFCURVE",
"387 -184 CURVE SMOOTH",
"414 -133 OFFCURVE",
"495 -83 OFFCURVE",
"553 -83 CURVE SMOOTH",
"587 -83 OFFCURVE",
"587 -101 OFFCURVE",
"555 -114 CURVE SMOOTH",
"519 -127 OFFCURVE",
"476 -154 OFFCURVE",
"453 -177 CURVE SMOOTH",
"405 -227 OFFCURVE",
"460 -269 OFFCURVE",
"543 -245 CURVE SMOOTH",
"619 -223 OFFCURVE",
"797 -154 OFFCURVE",
"894 83 CURVE SMOOTH",
"939 185 OFFCURVE",
"963 393 OFFCURVE",
"974 470 CURVE SMOOTH",
"976 483 OFFCURVE",
"956 486 OFFCURVE",
"954 472 CURVE SMOOTH",
"944 398 OFFCURVE",
"917 171 OFFCURVE",
"872 81 CURVE",
"778 -140 OFFCURVE",
"612 -205 OFFCURVE",
"537 -225 CURVE SMOOTH",
"474 -244 OFFCURVE",
"436 -223 OFFCURVE",
"467 -191 CURVE SMOOTH",
"488 -170 OFFCURVE",
"529 -145 OFFCURVE",
"563 -132 CURVE SMOOTH",
"615 -112 OFFCURVE",
"610 -63 OFFCURVE",
"553 -63 CURVE SMOOTH",
"487 -63 OFFCURVE",
"399 -117 OFFCURVE",
"369 -174 CURVE SMOOTH",
"310 -286 OFFCURVE",
"435 -373 OFFCURVE",
"641 -278 CURVE SMOOTH",
"831 -190 OFFCURVE",
"968 -64 OFFCURVE",
"1183 329 CURVE SMOOTH",
"1195 353 OFFCURVE",
"1210 380 OFFCURVE",
"1226 408 CURVE SMOOTH",
"1307 550 OFFCURVE",
"1434 744 OFFCURVE",
"1618 747 CURVE SMOOTH",
"1672 748 OFFCURVE",
"1676 812 OFFCURVE",
"1623 813 CURVE SMOOTH"
);
}
);
};
layerId = "6B4F01CB-8044-4D82-912B-2C5A8D883AAC";
paths = (
{
closed = 1;
nodes = (
"831 -190 OFFCURVE",
"968 -64 OFFCURVE",
"1183 329 CURVE SMOOTH",
"1195 353 OFFCURVE",
"1210 380 OFFCURVE",
"1226 408 CURVE SMOOTH",
"1307 550 OFFCURVE",
"1434 744 OFFCURVE",
"1618 747 CURVE SMOOTH",
"1646 748 OFFCURVE",
"1661 765 OFFCURVE",
"1661 782 CURVE SMOOTH",
"1661 798 OFFCURVE",
"1648 813 OFFCURVE",
"1623 813 CURVE SMOOTH",
"1328 820 OFFCURVE",
"1214 534 OFFCURVE",
"1092 325 CURVE SMOOTH",
"1053 258 OFFCURVE",
"1015 203 OFFCURVE",
"971 171 CURVE SMOOTH",
"968 169 OFFCURVE",
"967 166 OFFCURVE",
"967 163 CURVE SMOOTH",
"967 158 OFFCURVE",
"971 153 OFFCURVE",
"977 153 CURVE SMOOTH",
"979 153 OFFCURVE",
"981 153 OFFCURVE",
"983 155 CURVE",
"1031 189 OFFCURVE",
"1071 248 OFFCURVE",
"1110 315 CURVE SMOOTH",
"1227 516 OFFCURVE",
"1339 800 OFFCURVE",
"1623 793 CURVE SMOOTH",
"1635 793 OFFCURVE",
"1641 787 OFFCURVE",
"1641 781 CURVE SMOOTH",
"1641 774 OFFCURVE",
"1633 767 OFFCURVE",
"1618 767 CURVE SMOOTH",
"1489 765 OFFCURVE",
"1388 677 OFFCURVE",
"1310 575 CURVE SMOOTH",
"1253 500 OFFCURVE",
"1210 418 OFFCURVE",
"1165 337 CURVE SMOOTH",
"953 -51 OFFCURVE",
"819 -174 OFFCURVE",
"633 -260 CURVE SMOOTH",
"575 -287 OFFCURVE",
"521 -299 OFFCURVE",
"477 -299 CURVE SMOOTH",
"414 -299 OFFCURVE",
"373 -274 OFFCURVE",
"373 -231 CURVE SMOOTH",
"373 -217 OFFCURVE",
"378 -201 OFFCURVE",
"387 -184 CURVE SMOOTH",
"414 -133 OFFCURVE",
"495 -83 OFFCURVE",
"553 -83 CURVE SMOOTH",
"570 -83 OFFCURVE",
"579 -88 OFFCURVE",
"579 -94 CURVE SMOOTH",
"579 -100 OFFCURVE",
"571 -108 OFFCURVE",
"555 -114 CURVE SMOOTH",
"519 -127 OFFCURVE",
"476 -154 OFFCURVE",
"453 -177 CURVE SMOOTH",
"441 -190 OFFCURVE",
"435 -202 OFFCURVE",
"435 -213 CURVE SMOOTH",
"435 -236 OFFCURVE",
"460 -252 OFFCURVE",
"497 -252 CURVE SMOOTH",
"511 -252 OFFCURVE",
"526 -250 OFFCURVE",
"543 -245 CURVE SMOOTH",
"619 -223 OFFCURVE",
"797 -154 OFFCURVE",
"894 83 CURVE SMOOTH",
"939 185 OFFCURVE",
"963 393 OFFCURVE",
"974 470 CURVE SMOOTH",
"975 477 OFFCURVE",
"970 481 OFFCURVE",
"964 481 CURVE SMOOTH",
"960 481 OFFCURVE",
"955 478 OFFCURVE",
"954 472 CURVE SMOOTH",
"944 398 OFFCURVE",
"917 171 OFFCURVE",
"872 81 CURVE",
"778 -140 OFFCURVE",
"612 -205 OFFCURVE",
"537 -225 CURVE SMOOTH",
"520 -230 OFFCURVE",
"505 -232 OFFCURVE",
"493 -232 CURVE SMOOTH",
"470 -232 OFFCURVE",
"456 -224 OFFCURVE",
"456 -212 CURVE SMOOTH",
"456 -206 OFFCURVE",
"459 -199 OFFCURVE",
"467 -191 CURVE SMOOTH",
"488 -170 OFFCURVE",
"529 -145 OFFCURVE",
"563 -132 CURVE SMOOTH",
"587 -123 OFFCURVE",
"599 -107 OFFCURVE",
"599 -93 CURVE SMOOTH",
"599 -77 OFFCURVE",
"583 -63 OFFCURVE",
"553 -63 CURVE SMOOTH",
"487 -63 OFFCURVE",
"399 -117 OFFCURVE",
"369 -174 CURVE SMOOTH",
"359 -193 OFFCURVE",
"355 -211 OFFCURVE",
"355 -227 CURVE SMOOTH",
"355 -280 OFFCURVE",
"402 -319 OFFCURVE",
"480 -319 CURVE SMOOTH",
"525 -319 OFFCURVE",
"579 -306 OFFCURVE",
"641 -278 CURVE SMOOTH"
);
},
{
closed = 1;
nodes = (
"738 162 OFFCURVE",
"835 361 OFFCURVE",
"975 533 CURVE SMOOTH",
"981 540 OFFCURVE",
"975 549 OFFCURVE",
"968 549 CURVE SMOOTH",
"965 549 OFFCURVE",
"962 548 OFFCURVE",
"960 545 CURVE SMOOTH",
"824 377 OFFCURVE",
"723 176 OFFCURVE",
"536 53 CURVE SMOOTH",
"471 10 OFFCURVE",
"368 -16 OFFCURVE",
"271 -16 CURVE SMOOTH",
"135 -16 OFFCURVE",
"10 34 OFFCURVE",
"10 160 CURVE SMOOTH",
"10 303 OFFCURVE",
"232 399 OFFCURVE",
"360 399 CURVE SMOOTH",
"421 399 OFFCURVE",
"622 374 OFFCURVE",
"622 286 CURVE SMOOTH",
"622 276 OFFCURVE",
"618 274 OFFCURVE",
"617 274 CURVE",
"610 277 OFFCURVE",
"604 282 OFFCURVE",
"599 286 CURVE SMOOTH",
"531 339 OFFCURVE",
"467 368 OFFCURVE",
"376 368 CURVE SMOOTH",
"280 368 OFFCURVE",
"56 306 OFFCURVE",
"56 174 CURVE SMOOTH",
"56 61 OFFCURVE",
"152 23 OFFCURVE",
"259 23 CURVE SMOOTH",
"357 23 OFFCURVE",
"464 55 OFFCURVE",
"516 90 CURVE SMOOTH",
"701 214 OFFCURVE",
"787 395 OFFCURVE",
"925 561 CURVE",
"932 568 OFFCURVE",
"925 577 OFFCURVE",
"918 577 CURVE SMOOTH",
"915 577 OFFCURVE",
"912 576 OFFCURVE",
"910 573 CURVE SMOOTH",
"775 410 OFFCURVE",
"686 229 OFFCURVE",
"504 106 CURVE SMOOTH",
"450 70 OFFCURVE",
"354 44 OFFCURVE",
"267 44 CURVE SMOOTH",
"166 44 OFFCURVE",
"76 79 OFFCURVE",
"76 174 CURVE SMOOTH",
"76 284 OFFCURVE",
"276 348 OFFCURVE",
"376 348 CURVE SMOOTH",
"462 348 OFFCURVE",
"522 321 OFFCURVE",
"587 271 CURVE SMOOTH",
"594 265 OFFCURVE",
"607 254 OFFCURVE",
"617 254 CURVE SMOOTH",
"638 254 OFFCURVE",
"642 277 OFFCURVE",
"642 286 CURVE SMOOTH",
"642 391 OFFCURVE",
"434 419 OFFCURVE",
"360 419 CURVE SMOOTH",
"232 419 OFFCURVE",
"-10 323 OFFCURVE",
"-10 160 CURVE SMOOTH",
"-10 17 OFFCURVE",
"122 -35 OFFCURVE",
"264 -35 CURVE SMOOTH",
"371 -35 OFFCURVE",
"483 -6 OFFCURVE",
"547 37 CURVE SMOOTH"
);
},
{
closed = 1;
nodes = (
"1012 307 OFFCURVE",
"1023 415 OFFCURVE",
"1032 508 CURVE SMOOTH",
"1034 526 OFFCURVE",
"1035 544 OFFCURVE",
"1035 562 CURVE SMOOTH",
"1035 607 OFFCURVE",
"1025 647 OFFCURVE",
"976 665 CURVE SMOOTH",
"896 694 OFFCURVE",
"723 738 OFFCURVE",
"558 738 CURVE SMOOTH",
"401 738 OFFCURVE",
"251 699 OFFCURVE",
"193 573 CURVE SMOOTH",
"189 565 OFFCURVE",
"187 558 OFFCURVE",
"187 551 CURVE SMOOTH",
"187 533 OFFCURVE",
"202 524 OFFCURVE",
"219 524 CURVE SMOOTH",
"237 524 OFFCURVE",
"257 534 OFFCURVE",
"267 557 CURVE SMOOTH",
"304 642 OFFCURVE",
"458 665 OFFCURVE",
"574 665 CURVE SMOOTH",
"676 665 OFFCURVE",
"793 642 OFFCURVE",
"951 597 CURVE SMOOTH",
"959 595 OFFCURVE",
"964 601 OFFCURVE",
"964 607 CURVE SMOOTH",
"964 611 OFFCURVE",
"962 614 OFFCURVE",
"957 616 CURVE SMOOTH",
"798 661 OFFCURVE",
"679 685 OFFCURVE",
"574 685 CURVE SMOOTH",
"462 685 OFFCURVE",
"291 664 OFFCURVE",
"248 565 CURVE SMOOTH",
"242 552 OFFCURVE",
"228 544 OFFCURVE",
"218 544 CURVE SMOOTH",
"212 544 OFFCURVE",
"208 547 OFFCURVE",
"208 553 CURVE SMOOTH",
"208 556 OFFCURVE",
"209 560 OFFCURVE",
"211 565 CURVE SMOOTH",
"265 681 OFFCURVE",
"405 718 OFFCURVE",
"554 718 CURVE SMOOTH",
"704 718 OFFCURVE",
"863 681 OFFCURVE",
"953 652 CURVE SMOOTH",
"963 649 OFFCURVE",
"973 645 OFFCURVE",
"983 640 CURVE SMOOTH",
"1009 626 OFFCURVE",
"1015 592 OFFCURVE",
"1015 560 CURVE SMOOTH",
"1015 541 OFFCURVE",
"1013 523 OFFCURVE",
"1012 510 CURVE SMOOTH",
"1003 418 OFFCURVE",
"992 311 OFFCURVE",
"975 221 CURVE SMOOTH",
"974 214 OFFCURVE",
"980 209 OFFCURVE",
"985 209 CURVE SMOOTH",
"990 209 OFFCURVE",
"994 211 OFFCURVE",
"995 217 CURVE SMOOTH"
);
}
);
width = 1188;
}
);
unicode = 014A;
},
{
glyphname = O;
lastChange = "2021-11-15 12:52:57 +0000";
layers = (
{
anchors = (
{
name = bottom;
position = "{158, -13}";
},
{
name = center;
position = "{367, 375}";
},
{
name = ogonek;
position = "{261, -9}";
},
{
name = top;
position = "{645, 735}";
},
{
name = topleft;
position = "{20, 750}";
},
{
name = topright;
position = "{776, 691}";
}
);
background = {
paths = (
{
closed = 1;
nodes = (
"676 352 OFFCURVE",
"656 356 OFFCURVE",
"653 343 CURVE SMOOTH",
"612 149 OFFCURVE",
"445 -9 OFFCURVE",
"242 -9 CURVE SMOOTH",
"113 -9 OFFCURVE",
"28 71 OFFCURVE",
"28 201 CURVE SMOOTH",
"28 467 OFFCURVE",
"346 716 OFFCURVE",
"605 716 CURVE SMOOTH",
"939 716 OFFCURVE",
"827 401 OFFCURVE",
"550 401 CURVE SMOOTH",
"484 401 OFFCURVE",
"386 425 OFFCURVE",
"379 493 CURVE SMOOTH",
"378 506 OFFCURVE",
"358 504 OFFCURVE",
"359 491 CURVE SMOOTH",
"368 404 OFFCURVE",
"487 381 OFFCURVE",
"550 381 CURVE SMOOTH",
"856 381 OFFCURVE",
"965 736 OFFCURVE",
"605 736 CURVE SMOOTH",
"338 736 OFFCURVE",
"8 481 OFFCURVE",
"8 201 CURVE SMOOTH",
"8 59 OFFCURVE",
"103 -29 OFFCURVE",
"242 -29 CURVE SMOOTH",
"456 -29 OFFCURVE",
"630 137 OFFCURVE",
"673 339 CURVE SMOOTH"
);
},
{
closed = 1;
nodes = (
"607 351 OFFCURVE",
"588 353 OFFCURVE",
"586 340 CURVE SMOOTH",
"578 273 OFFCURVE",
"412 37 OFFCURVE",
"250 37 CURVE SMOOTH",
"157 37 OFFCURVE",
"107 107 OFFCURVE",
"107 203 CURVE SMOOTH",
"107 412 OFFCURVE",
"386 666 OFFCURVE",
"598 666 CURVE SMOOTH",
"879 666 OFFCURVE",
"735 444 OFFCURVE",
"558 444 CURVE SMOOTH",
"514 444 OFFCURVE",
"423 477 OFFCURVE",
"415 517 CURVE SMOOTH",
"413 530 OFFCURVE",
"393 527 OFFCURVE",
"395 514 CURVE SMOOTH",
"405 456 OFFCURVE",
"515 424 OFFCURVE",
"558 424 CURVE SMOOTH",
"765 424 OFFCURVE",
"905 686 OFFCURVE",
"598 686 CURVE SMOOTH",
"376 686 OFFCURVE",
"87 425 OFFCURVE",
"87 203 CURVE SMOOTH",
"87 100 OFFCURVE",
"142 17 OFFCURVE",
"250 17 CURVE SMOOTH",
"426 17 OFFCURVE",
"598 265 OFFCURVE",
"606 338 CURVE SMOOTH"
);
}
);
};
layerId = "6B4F01CB-8044-4D82-912B-2C5A8D883AAC";
paths = (
{
closed = 1;
nodes = (
"456 -29 OFFCURVE",
"630 137 OFFCURVE",
"673 339 CURVE SMOOTH",
"675 346 OFFCURVE",
"669 351 OFFCURVE",
"663 351 CURVE SMOOTH",
"659 351 OFFCURVE",
"654 349 OFFCURVE",
"653 343 CURVE SMOOTH",
"612 149 OFFCURVE",
"445 -9 OFFCURVE",
"242 -9 CURVE SMOOTH",
"113 -9 OFFCURVE",
"28 71 OFFCURVE",
"28 201 CURVE SMOOTH",
"28 467 OFFCURVE",
"346 716 OFFCURVE",
"605 716 CURVE SMOOTH",
"750 716 OFFCURVE",
"811 657 OFFCURVE",
"811 590 CURVE SMOOTH",
"811 502 OFFCURVE",
"707 401 OFFCURVE",
"550 401 CURVE SMOOTH",
"484 401 OFFCURVE",
"386 425 OFFCURVE",
"379 493 CURVE SMOOTH",
"379 499 OFFCURVE",
"374 502 OFFCURVE",
"369 502 CURVE SMOOTH",
"364 502 OFFCURVE",
"359 498 OFFCURVE",
"359 492 CURVE SMOOTH",
"359 491 LINE SMOOTH",
"359 404 OFFCURVE",
"487 381 OFFCURVE",
"550 381 CURVE SMOOTH",
"721 381 OFFCURVE",
"831 492 OFFCURVE",
"831 590 CURVE SMOOTH",
"831 667 OFFCURVE",
"763 736 OFFCURVE",
"605 736 CURVE SMOOTH",
"338 736 OFFCURVE",
"8 481 OFFCURVE",
"8 201 CURVE SMOOTH",
"8 59 OFFCURVE",
"103 -29 OFFCURVE",
"242 -29 CURVE SMOOTH"
);
},
{
closed = 1;
nodes = (
"426 17 OFFCURVE",
"598 265 OFFCURVE",
"606 338 CURVE SMOOTH",
"607 345 OFFCURVE",
"601 349 OFFCURVE",
"596 349 CURVE SMOOTH",
"591 349 OFFCURVE",
"587 346 OFFCURVE",
"586 340 CURVE SMOOTH",
"578 273 OFFCURVE",
"412 37 OFFCURVE",
"250 37 CURVE SMOOTH",
"157 37 OFFCURVE",
"107 107 OFFCURVE",
"107 203 CURVE SMOOTH",
"107 412 OFFCURVE",
"386 666 OFFCURVE",
"598 666 CURVE SMOOTH",
"712 666 OFFCURVE",
"756 629 OFFCURVE",
"756 586 CURVE SMOOTH",
"756 522 OFFCURVE",
"663 444 OFFCURVE",
"558 444 CURVE SMOOTH",
"514 444 OFFCURVE",
"423 477 OFFCURVE",
"415 517 CURVE SMOOTH",
"414 523 OFFCURVE",
"410 525 OFFCURVE",
"405 525 CURVE SMOOTH",
"400 525 OFFCURVE",
"395 522 OFFCURVE",
"395 516 CURVE SMOOTH",
"395 514 LINE SMOOTH",
"395 455 OFFCURVE",
"515 424 OFFCURVE",
"558 424 CURVE SMOOTH",
"679 424 OFFCURVE",
"776 513 OFFCURVE",
"776 587 CURVE SMOOTH",
"776 640 OFFCURVE",
"726 686 OFFCURVE",
"598 686 CURVE SMOOTH",
"376 686 OFFCURVE",
"87 425 OFFCURVE",
"87 203 CURVE SMOOTH",
"87 100 OFFCURVE",
"142 17 OFFCURVE",
"250 17 CURVE SMOOTH"
);
}
);
width = 733;
}
);
note = O;
unicode = 004F;
},
{
glyphname = Oslash;
lastChange = "2021-11-15 12:52:57 +0000";
layers = (
{
anchors = (
{
name = bottom;
position = "{367, 0}";
},
{
name = top;
position = "{612, 750}";
}
);
background = {
paths = (
{
closed = 1;
nodes = (
"676 352 OFFCURVE",
"656 356 OFFCURVE",
"653 343 CURVE SMOOTH",
"620 184 OFFCURVE",
"502 50 OFFCURVE",
"348 6 CURVE SMOOTH",
"336 2 OFFCURVE",
"341 -17 OFFCURVE",
"354 -13 CURVE SMOOTH",
"515 33 OFFCURVE",
"638 174 OFFCURVE",
"673 339 CURVE SMOOTH"
);
},
{
closed = 1;
nodes = (
"738 874 OFFCURVE",
"694 747 OFFCURVE",
"666 737 CURVE",
"646 737 OFFCURVE",
"625 736 OFFCURVE",
"605 736 CURVE SMOOTH",
"338 736 OFFCURVE",
"8 481 OFFCURVE",
"8 201 CURVE SMOOTH",
"8 92 OFFCURVE",
"64 13 OFFCURVE",
"155 -16 CURVE",
"156 -17 OFFCURVE",
"156 -18 OFFCURVE",
"157 -20 CURVE",
"160 -35 OFFCURVE",
"95 -143 OFFCURVE",
"85 -158 CURVE SMOOTH",
"47 -220 OFFCURVE",
"134 -252 OFFCURVE",
"169 -182 CURVE SMOOTH",
"179 -162 OFFCURVE",
"233 -41 OFFCURVE",
"248 -28 CURVE",
"247 -28 OFFCURVE",
"246 -28 OFFCURVE",
"245 -29 CURVE",
"258 -29 OFFCURVE",
"258 -9 OFFCURVE",
"245 -9 CURVE SMOOTH",
"241 -9 OFFCURVE",
"237 -12 OFFCURVE",
"236 -13 CURVE SMOOTH",
"215 -30 OFFCURVE",
"164 -148 OFFCURVE",
"151 -173 CURVE SMOOTH",
"130 -216 OFFCURVE",
"78 -208 OFFCURVE",
"102 -169 CURVE SMOOTH",
"122 -138 OFFCURVE",
"154 -76 OFFCURVE",
"172 -42 CURVE SMOOTH",
"180 -28 OFFCURVE",
"179 -3 OFFCURVE",
"161 3 CURVE SMOOTH",
"79 30 OFFCURVE",
"28 100 OFFCURVE",
"28 201 CURVE SMOOTH",
"28 467 OFFCURVE",
"346 716 OFFCURVE",
"605 716 CURVE SMOOTH",
"625 716 OFFCURVE",
"645 717 OFFCURVE",
"665 717 CURVE SMOOTH",
"691 716 OFFCURVE",
"741 803 OFFCURVE",
"754 819 CURVE SMOOTH",
"767 835 OFFCURVE",
"780 838 OFFCURVE",
"787 835 CURVE SMOOTH",
"813 826 OFFCURVE",
"749 748 OFFCURVE",
"743 738 CURVE SMOOTH",
"735 727 OFFCURVE",
"752 716 OFFCURVE",
"759 727 CURVE SMOOTH",
"774 750 OFFCURVE",
"849 835 OFFCURVE",
"794 854 CURVE SMOOTH"
);
},
{
closed = 1;
nodes = (
"607 351 OFFCURVE",
"588 353 OFFCURVE",
"586 340 CURVE SMOOTH",
"578 273 OFFCURVE",
"412 37 OFFCURVE",
"250 37 CURVE SMOOTH",
"157 37 OFFCURVE",
"107 107 OFFCURVE",
"107 203 CURVE SMOOTH",
"107 412 OFFCURVE",
"386 666 OFFCURVE",
"598 666 CURVE SMOOTH",
"879 666 OFFCURVE",
"735 444 OFFCURVE",
"558 444 CURVE SMOOTH",
"514 444 OFFCURVE",
"423 477 OFFCURVE",
"415 517 CURVE SMOOTH",
"413 530 OFFCURVE",
"393 527 OFFCURVE",
"395 514 CURVE SMOOTH",
"405 456 OFFCURVE",
"515 424 OFFCURVE",
"558 424 CURVE SMOOTH",
"765 424 OFFCURVE",
"905 686 OFFCURVE",
"598 686 CURVE SMOOTH",
"376 686 OFFCURVE",
"87 425 OFFCURVE",
"87 203 CURVE SMOOTH",
"87 100 OFFCURVE",
"142 17 OFFCURVE",
"250 17 CURVE SMOOTH",
"426 17 OFFCURVE",
"598 265 OFFCURVE",
"606 338 CURVE SMOOTH"
);
},
{
closed = 1;
nodes = (
"725 718 OFFCURVE",
"717 700 OFFCURVE",
"729 695 CURVE SMOOTH",
"907 621 OFFCURVE",
"774 401 OFFCURVE",
"550 401 CURVE SMOOTH",
"484 401 OFFCURVE",
"386 425 OFFCURVE",
"379 493 CURVE SMOOTH",
"378 506 OFFCURVE",
"358 504 OFFCURVE",
"359 491 CURVE SMOOTH",
"368 404 OFFCURVE",
"487 381 OFFCURVE",
"550 381 CURVE SMOOTH",
"799 381 OFFCURVE",
"935 631 OFFCURVE",
"737 713 CURVE SMOOTH"
);
}
);
};
layerId = "6B4F01CB-8044-4D82-912B-2C5A8D883AAC";
paths = (
{
closed = 1;
nodes = (
"179 -162 OFFCURVE",
"233 -41 OFFCURVE",
"248 -28 CURVE",
"247 -28 OFFCURVE",
"246 -28 OFFCURVE",
"245 -29 CURVE",
"252 -29 OFFCURVE",
"255 -24 OFFCURVE",
"255 -19 CURVE SMOOTH",
"255 -14 OFFCURVE",
"252 -9 OFFCURVE",
"245 -9 CURVE SMOOTH",
"241 -9 OFFCURVE",
"237 -12 OFFCURVE",
"236 -13 CURVE SMOOTH",
"215 -30 OFFCURVE",
"164 -148 OFFCURVE",
"151 -173 CURVE SMOOTH",
"141 -193 OFFCURVE",
"125 -202 OFFCURVE",
"113 -202 CURVE SMOOTH",
"103 -202 OFFCURVE",
"96 -197 OFFCURVE",
"96 -187 CURVE SMOOTH",
"96 -182 OFFCURVE",
"98 -176 OFFCURVE",
"102 -169 CURVE SMOOTH",
"122 -138 OFFCURVE",
"154 -76 OFFCURVE",
"172 -42 CURVE SMOOTH",
"175 -37 OFFCURVE",
"177 -30 OFFCURVE",
"177 -23 CURVE SMOOTH",
"177 -12 OFFCURVE",
"172 -1 OFFCURVE",
"161 3 CURVE SMOOTH",
"79 30 OFFCURVE",
"28 100 OFFCURVE",
"28 201 CURVE SMOOTH",
"28 467 OFFCURVE",
"346 716 OFFCURVE",
"605 716 CURVE SMOOTH",
"625 716 OFFCURVE",
"645 717 OFFCURVE",
"665 717 CURVE SMOOTH",
"691 716 OFFCURVE",
"741 803 OFFCURVE",
"754 819 CURVE SMOOTH",
"767 835 OFFCURVE",
"780 838 OFFCURVE",
"787 835 CURVE SMOOTH",
"791 833 OFFCURVE",
"793 830 OFFCURVE",
"793 825 CURVE SMOOTH",
"793 802 OFFCURVE",
"748 746 OFFCURVE",
"743 738 CURVE SMOOTH",
"737 730 OFFCURVE",
"744 722 OFFCURVE",
"751 722 CURVE SMOOTH",
"754 722 OFFCURVE",
"757 724 OFFCURVE",
"759 727 CURVE SMOOTH",
"770 744 OFFCURVE",
"814 795 OFFCURVE",
"814 828 CURVE SMOOTH",
"814 840 OFFCURVE",
"808 849 OFFCURVE",
"794 854 CURVE SMOOTH",
"790 855 OFFCURVE",
"786 856 OFFCURVE",
"782 856 CURVE SMOOTH",
"732 856 OFFCURVE",
"692 746 OFFCURVE",
"666 737 CURVE",
"646 737 OFFCURVE",
"625 736 OFFCURVE",
"605 736 CURVE SMOOTH",
"338 736 OFFCURVE",
"8 481 OFFCURVE",
"8 201 CURVE SMOOTH",
"8 92 OFFCURVE",
"64 13 OFFCURVE",
"155 -16 CURVE",
"156 -17 OFFCURVE",
"156 -18 OFFCURVE",
"157 -20 CURVE",
"160 -35 OFFCURVE",
"95 -143 OFFCURVE",
"85 -158 CURVE SMOOTH",
"78 -169 OFFCURVE",
"75 -179 OFFCURVE",
"75 -187 CURVE SMOOTH",
"75 -208 OFFCURVE",
"92 -222 OFFCURVE",
"113 -222 CURVE SMOOTH",
"133 -222 OFFCURVE",
"155 -210 OFFCURVE",
"169 -182 CURVE SMOOTH"
);
},
{
closed = 1;
nodes = (
"515 33 OFFCURVE",
"638 174 OFFCURVE",
"673 339 CURVE SMOOTH",
"675 346 OFFCURVE",
"669 351 OFFCURVE",
"663 351 CURVE SMOOTH",
"659 351 OFFCURVE",
"654 349 OFFCURVE",
"653 343 CURVE SMOOTH",
"620 184 OFFCURVE",
"502 50 OFFCURVE",
"348 6 CURVE SMOOTH",
"343 4 OFFCURVE",
"341 0 OFFCURVE",
"341 -4 CURVE SMOOTH",
"341 -9 OFFCURVE",
"345 -14 OFFCURVE",
"351 -14 CURVE SMOOTH",
"352 -14 OFFCURVE",
"353 -13 OFFCURVE",
"354 -13 CURVE"
);
},
{
closed = 1;
nodes = (
"426 17 OFFCURVE",
"598 265 OFFCURVE",
"606 338 CURVE SMOOTH",
"607 345 OFFCURVE",
"601 349 OFFCURVE",
"596 349 CURVE SMOOTH",
"591 349 OFFCURVE",
"587 346 OFFCURVE",
"586 340 CURVE SMOOTH",
"578 273 OFFCURVE",
"412 37 OFFCURVE",
"250 37 CURVE SMOOTH",
"157 37 OFFCURVE",
"107 107 OFFCURVE",
"107 203 CURVE SMOOTH",
"107 412 OFFCURVE",
"386 666 OFFCURVE",
"598 666 CURVE SMOOTH",
"712 666 OFFCURVE",
"756 629 OFFCURVE",
"756 586 CURVE SMOOTH",
"756 522 OFFCURVE",
"663 444 OFFCURVE",
"558 444 CURVE SMOOTH",
"514 444 OFFCURVE",
"423 477 OFFCURVE",
"415 517 CURVE SMOOTH",
"414 523 OFFCURVE",
"410 525 OFFCURVE",
"405 525 CURVE SMOOTH",
"400 525 OFFCURVE",
"395 522 OFFCURVE",
"395 516 CURVE SMOOTH",
"395 514 LINE SMOOTH",
"395 455 OFFCURVE",
"515 424 OFFCURVE",
"558 424 CURVE SMOOTH",
"679 424 OFFCURVE",
"776 513 OFFCURVE",
"776 587 CURVE SMOOTH",
"776 640 OFFCURVE",
"726 686 OFFCURVE",
"598 686 CURVE SMOOTH",
"376 686 OFFCURVE",
"87 425 OFFCURVE",
"87 203 CURVE SMOOTH",
"87 100 OFFCURVE",
"142 17 OFFCURVE",
"250 17 CURVE SMOOTH"
);
},
{
closed = 1;
nodes = (
"716 381 OFFCURVE",
"832 492 OFFCURVE",
"832 591 CURVE SMOOTH",
"832 640 OFFCURVE",
"803 686 OFFCURVE",
"737 713 CURVE SMOOTH",
"729 716 OFFCURVE",
"723 710 OFFCURVE",
"723 703 CURVE SMOOTH",
"723 700 OFFCURVE",
"725 697 OFFCURVE",
"729 695 CURVE SMOOTH",
"787 671 OFFCURVE",
"812 632 OFFCURVE",
"812 590 CURVE SMOOTH",
"812 502 OFFCURVE",
"702 401 OFFCURVE",
"550 401 CURVE SMOOTH",
"484 401 OFFCURVE",
"386 425 OFFCURVE",
"379 493 CURVE SMOOTH",
"379 499 OFFCURVE",
"374 502 OFFCURVE",
"369 502 CURVE SMOOTH",
"364 502 OFFCURVE",
"359 498 OFFCURVE",
"359 492 CURVE SMOOTH",
"359 491 LINE SMOOTH",
"359 404 OFFCURVE",
"487 381 OFFCURVE",
"550 381 CURVE SMOOTH"
);
}
);
width = 733;
}
);
note = Oslash;
unicode = 00D8;
},
{
glyphname = OE;
lastChange = "2021-11-15 12:52:57 +0000";
layers = (
{
background = {
paths = (
{
closed = 1;
nodes = (
"939 716 OFFCURVE",
"827 401 OFFCURVE",
"550 401 CURVE SMOOTH",
"484 401 OFFCURVE",
"386 425 OFFCURVE",
"379 493 CURVE SMOOTH",
"378 506 OFFCURVE",
"358 504 OFFCURVE",
"359 491 CURVE SMOOTH",
"368 404 OFFCURVE",
"487 381 OFFCURVE",
"550 381 CURVE SMOOTH",
"856 381 OFFCURVE",
"965 736 OFFCURVE",
"605 736 CURVE SMOOTH",
"338 736 OFFCURVE",
"8 481 OFFCURVE",
"8 201 CURVE SMOOTH",
"8 59 OFFCURVE",
"103 -29 OFFCURVE",
"242 -29 CURVE SMOOTH",
"327 -29 OFFCURVE",
"407 -2 OFFCURVE",
"474 42 CURVE SMOOTH",
"485 50 OFFCURVE",
"474 67 OFFCURVE",
"462 59 CURVE SMOOTH",
"398 17 OFFCURVE",
"323 -9 OFFCURVE",
"242 -9 CURVE SMOOTH",
"113 -9 OFFCURVE",
"28 71 OFFCURVE",
"28 201 CURVE SMOOTH",
"28 467 OFFCURVE",
"346 716 OFFCURVE",
"605 716 CURVE SMOOTH"
);
},
{
closed = 1;
nodes = (
"678 384 OFFCURVE",
"659 392 OFFCURVE",
"654 379 CURVE SMOOTH",
"598 234 OFFCURVE",
"413 37 OFFCURVE",
"250 37 CURVE SMOOTH",
"157 37 OFFCURVE",
"107 107 OFFCURVE",
"107 203 CURVE SMOOTH",
"107 412 OFFCURVE",
"386 666 OFFCURVE",
"598 666 CURVE SMOOTH",
"879 666 OFFCURVE",
"735 444 OFFCURVE",
"558 444 CURVE SMOOTH",
"514 444 OFFCURVE",
"423 477 OFFCURVE",
"415 517 CURVE SMOOTH",
"413 530 OFFCURVE",
"393 527 OFFCURVE",
"395 514 CURVE SMOOTH",
"405 456 OFFCURVE",
"515 424 OFFCURVE",
"558 424 CURVE SMOOTH",
"765 424 OFFCURVE",
"905 686 OFFCURVE",
"598 686 CURVE SMOOTH",
"376 686 OFFCURVE",
"87 425 OFFCURVE",
"87 203 CURVE SMOOTH",
"87 100 OFFCURVE",
"142 17 OFFCURVE",
"250 17 CURVE SMOOTH",
"425 17 OFFCURVE",
"615 224 OFFCURVE",
"673 372 CURVE SMOOTH"
);
},
{
closed = 1;
nodes = (
"1143 365 OFFCURVE",
"1106 344 OFFCURVE",
"1093 340 CURVE SMOOTH",
"998 310 OFFCURVE",
"761 310 OFFCURVE",
"707 311 CURVE SMOOTH",
"706 311 OFFCURVE",
"700 309 OFFCURVE",
"700 308 CURVE",
"667 270 OFFCURVE",
"500 74 OFFCURVE",
"631 51 CURVE SMOOTH",
"694 40 OFFCURVE",
"934 82 OFFCURVE",
"985 102 CURVE SMOOTH",
"999 108 OFFCURVE",
"1005 106 OFFCURVE",
"1006 105 CURVE",
"1011 91 OFFCURVE",
"992 71 OFFCURVE",
"980 67 CURVE SMOOTH",
"869 27 OFFCURVE",
"699 11 OFFCURVE",
"601 11 CURVE SMOOTH",
"541 11 OFFCURVE",
"504 27 OFFCURVE",
"521 92 CURVE SMOOTH",
"525 105 OFFCURVE",
"505 110 OFFCURVE",
"502 97 CURVE SMOOTH",
"478 10 OFFCURVE",
"539 -9 OFFCURVE",
"601 -9 CURVE SMOOTH",
"700 -9 OFFCURVE",
"873 8 OFFCURVE",
"987 49 CURVE SMOOTH",
"1037 67 OFFCURVE",
"1047 148 OFFCURVE",
"978 120 CURVE SMOOTH",
"930 101 OFFCURVE",
"693 60 OFFCURVE",
"635 70 CURVE SMOOTH",
"608 75 OFFCURVE",
"596 87 OFFCURVE",
"604 118 CURVE SMOOTH",
"620 179 OFFCURVE",
"664 236 OFFCURVE",
"712 291 CURVE",
"773 290 OFFCURVE",
"1003 291 OFFCURVE",
"1099 321 CURVE SMOOTH",
"1172 344 OFFCURVE",
"1182 426 OFFCURVE",
"1115 402 CURVE SMOOTH",
"1034 374 OFFCURVE",
"842 379 OFFCURVE",
"751 379 CURVE SMOOTH",
"738 379 OFFCURVE",
"738 359 OFFCURVE",
"751 359 CURVE SMOOTH",
"845 359 OFFCURVE",
"1037 354 OFFCURVE",
"1121 383 CURVE SMOOTH",
"1135 388 OFFCURVE",
"1139 386 OFFCURVE",
"1140 386 CURVE"
);
},
{
closed = 1;
nodes = (
"977 572 OFFCURVE",
"920 621 OFFCURVE",
"882 598 CURVE SMOOTH",
"871 591 OFFCURVE",
"881 574 OFFCURVE",
"892 581 CURVE SMOOTH",
"909 591 OFFCURVE",
"944 572 OFFCURVE",
"924 556 CURVE SMOOTH",
"877 519 OFFCURVE",
"829 457 OFFCURVE",
"783 413 CURVE SMOOTH",
"773 404 OFFCURVE",
"787 390 OFFCURVE",
"796 399 CURVE SMOOTH",
"831 432 OFFCURVE",
"856 459 OFFCURVE",
"877 482 CURVE SMOOTH",
"899 505 OFFCURVE",
"916 524 OFFCURVE",
"937 540 CURVE SMOOTH"
);
},
{
closed = 1;
nodes = (
"1232 664 OFFCURVE",
"1197 732 OFFCURVE",
"1137 694 CURVE SMOOTH",
"1116 680 OFFCURVE",
"1078 670 OFFCURVE",
"1021 673 CURVE SMOOTH",
"888 680 OFFCURVE",
"797 777 OFFCURVE",
"656 764 CURVE SMOOTH",
"643 763 OFFCURVE",
"645 743 OFFCURVE",
"658 744 CURVE SMOOTH",
"760 753 OFFCURVE",
"832 703 OFFCURVE",
"922 673 CURVE SMOOTH",
"986 651 OFFCURVE",
"1089 639 OFFCURVE",
"1148 677 CURVE SMOOTH",
"1185 701 OFFCURVE",
"1198 668 OFFCURVE",
"1164 648 CURVE SMOOTH",
"1125 625 OFFCURVE",
"1070 612 OFFCURVE",
"1003 616 CURVE SMOOTH",
"946 620 OFFCURVE",
"896 640 OFFCURVE",
"843 662 CURVE SMOOTH",
"831 667 OFFCURVE",
"824 648 OFFCURVE",
"836 643 CURVE SMOOTH",
"862 633 OFFCURVE",
"887 623 OFFCURVE",
"914 614 CURVE SMOOTH",
"997 588 OFFCURVE",
"1097 586 OFFCURVE",
"1174 631 CURVE SMOOTH"
);
}
);
};
layerId = "6B4F01CB-8044-4D82-912B-2C5A8D883AAC";
paths = (
{
closed = 1;
nodes = (
"327 -29 OFFCURVE",
"407 -2 OFFCURVE",
"474 42 CURVE SMOOTH",
"477 44 OFFCURVE",
"478 47 OFFCURVE",
"478 50 CURVE SMOOTH",
"478 56 OFFCURVE",
"474 61 OFFCURVE",
"468 61 CURVE SMOOTH",
"466 61 OFFCURVE",
"464 60 OFFCURVE",
"462 59 CURVE SMOOTH",
"398 17 OFFCURVE",
"323 -9 OFFCURVE",
"242 -9 CURVE SMOOTH",
"113 -9 OFFCURVE",
"28 71 OFFCURVE",
"28 201 CURVE SMOOTH",
"28 467 OFFCURVE",
"346 716 OFFCURVE",
"605 716 CURVE SMOOTH",
"750 716 OFFCURVE",
"811 657 OFFCURVE",
"811 590 CURVE SMOOTH",
"811 502 OFFCURVE",
"707 401 OFFCURVE",
"550 401 CURVE SMOOTH",
"484 401 OFFCURVE",
"386 425 OFFCURVE",
"379 493 CURVE SMOOTH",
"379 499 OFFCURVE",
"374 502 OFFCURVE",
"369 502 CURVE SMOOTH",
"364 502 OFFCURVE",
"359 498 OFFCURVE",
"359 492 CURVE SMOOTH",
"359 491 LINE SMOOTH",
"368 404 OFFCURVE",
"487 381 OFFCURVE",
"550 381 CURVE SMOOTH",
"721 381 OFFCURVE",
"831 492 OFFCURVE",
"831 590 CURVE SMOOTH",
"831 667 OFFCURVE",
"763 736 OFFCURVE",
"605 736 CURVE SMOOTH",
"338 736 OFFCURVE",
"8 481 OFFCURVE",
"8 201 CURVE SMOOTH",
"8 59 OFFCURVE",
"103 -29 OFFCURVE",
"242 -29 CURVE SMOOTH"
);
},
{
closed = 1;
nodes = (
"425 17 OFFCURVE",
"615 224 OFFCURVE",
"673 372 CURVE SMOOTH",
"676 380 OFFCURVE",
"670 386 OFFCURVE",
"663 386 CURVE SMOOTH",
"659 386 OFFCURVE",
"656 384 OFFCURVE",
"654 379 CURVE SMOOTH",
"598 234 OFFCURVE",
"413 37 OFFCURVE",
"250 37 CURVE SMOOTH",
"157 37 OFFCURVE",
"107 107 OFFCURVE",
"107 203 CURVE SMOOTH",
"107 412 OFFCURVE",
"386 666 OFFCURVE",
"598 666 CURVE SMOOTH",
"712 666 OFFCURVE",
"756 629 OFFCURVE",
"756 586 CURVE SMOOTH",
"756 522 OFFCURVE",
"663 444 OFFCURVE",
"558 444 CURVE SMOOTH",
"514 444 OFFCURVE",
"423 477 OFFCURVE",
"415 517 CURVE SMOOTH",
"414 523 OFFCURVE",
"410 525 OFFCURVE",
"405 525 CURVE SMOOTH",
"400 525 OFFCURVE",
"395 522 OFFCURVE",
"395 516 CURVE SMOOTH",
"395 514 LINE SMOOTH",
"405 456 OFFCURVE",
"515 424 OFFCURVE",
"558 424 CURVE SMOOTH",
"679 424 OFFCURVE",
"776 513 OFFCURVE",
"776 587 CURVE SMOOTH",
"776 640 OFFCURVE",
"726 686 OFFCURVE",
"598 686 CURVE SMOOTH",
"376 686 OFFCURVE",
"87 425 OFFCURVE",
"87 203 CURVE SMOOTH",
"87 100 OFFCURVE",
"142 17 OFFCURVE",
"250 17 CURVE SMOOTH"
);
},
{
closed = 1;
nodes = (
"700 -9 OFFCURVE",
"873 8 OFFCURVE",
"987 49 CURVE SMOOTH",
"1012 58 OFFCURVE",
"1027 83 OFFCURVE",
"1027 102 CURVE SMOOTH",
"1027 115 OFFCURVE",
"1020 126 OFFCURVE",
"1003 126 CURVE SMOOTH",
"996 126 OFFCURVE",
"988 124 OFFCURVE",
"978 120 CURVE SMOOTH",
"935 103 OFFCURVE",
"741 68 OFFCURVE",
"659 68 CURVE SMOOTH",
"649 68 OFFCURVE",
"641 69 OFFCURVE",
"635 70 CURVE SMOOTH",
"614 74 OFFCURVE",
"602 82 OFFCURVE",
"602 101 CURVE SMOOTH",
"602 106 OFFCURVE",
"602 112 OFFCURVE",
"604 118 CURVE SMOOTH",
"620 179 OFFCURVE",
"664 236 OFFCURVE",
"712 291 CURVE",
"744 291 LINE SMOOTH",
"831 291 OFFCURVE",
"1016 295 OFFCURVE",
"1099 321 CURVE SMOOTH",
"1139 334 OFFCURVE",
"1160 364 OFFCURVE",
"1160 384 CURVE SMOOTH",
"1160 397 OFFCURVE",
"1152 406 OFFCURVE",
"1137 406 CURVE SMOOTH",
"1131 406 OFFCURVE",
"1123 405 OFFCURVE",
"1115 402 CURVE SMOOTH",
"1055 381 OFFCURVE",
"935 379 OFFCURVE",
"840 379 CURVE SMOOTH",
"751 379 LINE SMOOTH",
"745 379 OFFCURVE",
"741 374 OFFCURVE",
"741 369 CURVE SMOOTH",
"741 364 OFFCURVE",
"745 359 OFFCURVE",
"751 359 CURVE SMOOTH",
"839 359 LINE SMOOTH",
"936 359 OFFCURVE",
"1059 361 OFFCURVE",
"1121 383 CURVE SMOOTH",
"1129 386 OFFCURVE",
"1133 386 OFFCURVE",
"1136 386 CURVE SMOOTH",
"1140 386 LINE",
"1143 365 OFFCURVE",
"1106 344 OFFCURVE",
"1093 340 CURVE SMOOTH",
"1013 315 OFFCURVE",
"831 311 OFFCURVE",
"744 311 CURVE SMOOTH",
"707 311 LINE SMOOTH",
"706 311 OFFCURVE",
"700 309 OFFCURVE",
"700 308 CURVE",
"676 281 OFFCURVE",
"582 170 OFFCURVE",
"582 102 CURVE SMOOTH",
"582 71 OFFCURVE",
"602 49 OFFCURVE",
"659 49 CURVE SMOOTH",
"746 49 OFFCURVE",
"940 84 OFFCURVE",
"985 102 CURVE SMOOTH",
"993 105 OFFCURVE",
"998 106 OFFCURVE",
"1001 106 CURVE SMOOTH",
"1004 106 OFFCURVE",
"1006 105 OFFCURVE",
"1006 105 CURVE",
"1011 91 OFFCURVE",
"992 71 OFFCURVE",
"980 67 CURVE SMOOTH",
"869 27 OFFCURVE",
"699 11 OFFCURVE",
"601 11 CURVE SMOOTH",
"551 11 OFFCURVE",
"517 22 OFFCURVE",
"517 64 CURVE SMOOTH",
"517 72 OFFCURVE",
"518 81 OFFCURVE",
"521 92 CURVE SMOOTH",
"523 100 OFFCURVE",
"517 105 OFFCURVE",
"511 105 CURVE SMOOTH",
"507 105 OFFCURVE",
"503 102 OFFCURVE",
"502 97 CURVE SMOOTH",
"498 84 OFFCURVE",
"497 72 OFFCURVE",
"497 62 CURVE SMOOTH",
"497 5 OFFCURVE",
"548 -9 OFFCURVE",
"601 -9 CURVE SMOOTH"
);
},
{
closed = 1;
nodes = (
"831 432 OFFCURVE",
"856 459 OFFCURVE",
"877 482 CURVE SMOOTH",
"899 505 OFFCURVE",
"916 524 OFFCURVE",
"937 540 CURVE SMOOTH",
"947 548 OFFCURVE",
"951 556 OFFCURVE",
"951 565 CURVE SMOOTH",
"951 585 OFFCURVE",
"927 604 OFFCURVE",
"904 604 CURVE SMOOTH",
"896 604 OFFCURVE",
"889 602 OFFCURVE",
"882 598 CURVE SMOOTH",
"879 596 OFFCURVE",
"877 593 OFFCURVE",
"877 589 CURVE SMOOTH",
"877 584 OFFCURVE",
"881 579 OFFCURVE",
"887 579 CURVE SMOOTH",
"888 579 OFFCURVE",
"890 580 OFFCURVE",
"892 581 CURVE SMOOTH",
"895 583 OFFCURVE",
"899 584 OFFCURVE",
"903 584 CURVE SMOOTH",
"916 584 OFFCURVE",
"930 576 OFFCURVE",
"930 566 CURVE SMOOTH",
"930 563 OFFCURVE",
"928 559 OFFCURVE",
"924 556 CURVE SMOOTH",
"877 519 OFFCURVE",
"829 457 OFFCURVE",
"783 413 CURVE SMOOTH",
"775 406 OFFCURVE",
"782 396 OFFCURVE",
"789 396 CURVE SMOOTH",
"792 396 OFFCURVE",
"794 397 OFFCURVE",
"796 399 CURVE SMOOTH"
);
},
{
closed = 1;
nodes = (
"951 602 OFFCURVE",
"991 596 OFFCURVE",
"1032 596 CURVE SMOOTH",
"1082 596 OFFCURVE",
"1131 606 OFFCURVE",
"1174 631 CURVE SMOOTH",
"1195 643 OFFCURVE",
"1204 659 OFFCURVE",
"1204 674 CURVE SMOOTH",
"1204 691 OFFCURVE",
"1191 705 OFFCURVE",
"1171 705 CURVE SMOOTH",
"1161 705 OFFCURVE",
"1149 702 OFFCURVE",
"1137 694 CURVE SMOOTH",
"1119 682 OFFCURVE",
"1087 672 OFFCURVE",
"1041 672 CURVE SMOOTH",
"905 672 OFFCURVE",
"816 765 OFFCURVE",
"682 765 CURVE SMOOTH",
"673 765 OFFCURVE",
"665 765 OFFCURVE",
"656 764 CURVE SMOOTH",
"650 764 OFFCURVE",
"647 759 OFFCURVE",
"647 754 CURVE SMOOTH",
"647 749 OFFCURVE",
"651 744 OFFCURVE",
"657 744 CURVE SMOOTH",
"658 744 LINE SMOOTH",
"666 745 OFFCURVE",
"674 745 OFFCURVE",
"682 745 CURVE SMOOTH",
"772 745 OFFCURVE",
"839 701 OFFCURVE",
"922 673 CURVE SMOOTH",
"956 661 OFFCURVE",
"1001 652 OFFCURVE",
"1045 652 CURVE SMOOTH",
"1083 652 OFFCURVE",
"1120 659 OFFCURVE",
"1148 677 CURVE SMOOTH",
"1157 683 OFFCURVE",
"1165 685 OFFCURVE",
"1171 685 CURVE SMOOTH",
"1179 685 OFFCURVE",
"1184 680 OFFCURVE",
"1184 674 CURVE SMOOTH",
"1184 666 OFFCURVE",
"1178 656 OFFCURVE",
"1164 648 CURVE SMOOTH",
"1130 628 OFFCURVE",
"1083 615 OFFCURVE",
"1027 615 CURVE SMOOTH",
"960 615 OFFCURVE",
"903 637 OFFCURVE",
"843 662 CURVE SMOOTH",
"835 665 OFFCURVE",
"830 659 OFFCURVE",
"830 652 CURVE SMOOTH",
"830 649 OFFCURVE",
"832 645 OFFCURVE",
"836 643 CURVE SMOOTH",
"862 633 OFFCURVE",
"887 623 OFFCURVE",
"914 614 CURVE SMOOTH"
);
}
);
width = 1087;
}
);
note = OE;
unicode = 0152;
},
{
glyphname = P;
lastChange = "2021-11-15 12:52:57 +0000";
layers = (
{
background = {
paths = (
{
closed = 1;
nodes = (
"768 594 OFFCURVE",
"750 602 OFFCURVE",
"744 590 CURVE SMOOTH",
"668 420 OFFCURVE",
"548 109 OFFCURVE",
"389 24 CURVE SMOOTH",
"367 12 OFFCURVE",
"352 40 OFFCURVE",
"355 49 CURVE",
"436 98 OFFCURVE",
"497 192 OFFCURVE",
"573 340 CURVE SMOOTH",
"605 403 OFFCURVE",
"672 536 OFFCURVE",
"698 595 CURVE SMOOTH",
"704 607 OFFCURVE",
"685 615 OFFCURVE",
"680 603 CURVE SMOOTH",
"654 544 OFFCURVE",
"587 412 OFFCURVE",
"555 350 CURVE SMOOTH",
"478 201 OFFCURVE",
"420 112 OFFCURVE",
"345 66 CURVE SMOOTH",
"318 50 OFFCURVE",
"351 -20 OFFCURVE",
"399 6 CURVE SMOOTH",
"564 95 OFFCURVE",
"684 407 OFFCURVE",
"763 582 CURVE SMOOTH"
);
},
{
closed = 1;
nodes = (
"1092 846 OFFCURVE",
"-6 794 OFFCURVE",
"-6 324 CURVE SMOOTH",
"-6 86 OFFCURVE",
"317 79 OFFCURVE",
"451 278 CURVE SMOOTH",
"501 353 OFFCURVE",
"548 504 OFFCURVE",
"497 551 CURVE SMOOTH",
"483 565 OFFCURVE",
"433 552 OFFCURVE",
"447 529 CURVE SMOOTH",
"463 502 OFFCURVE",
"444 387 OFFCURVE",
"394 313 CURVE SMOOTH",
"301 174 OFFCURVE",
"78 170 OFFCURVE",
"78 322 CURVE SMOOTH",
"78 702 OFFCURVE",
"982 728 OFFCURVE",
"982 501 CURVE SMOOTH",
"982 395 OFFCURVE",
"833 331 OFFCURVE",
"694 331 CURVE SMOOTH",
"681 331 OFFCURVE",
"681 311 OFFCURVE",
"694 311 CURVE SMOOTH",
"832 311 OFFCURVE",
"1002 375 OFFCURVE",
"1002 501 CURVE SMOOTH",
"1002 759 OFFCURVE",
"58 726 OFFCURVE",
"58 322 CURVE SMOOTH",
"58 124 OFFCURVE",
"323 172 OFFCURVE",
"411 302 CURVE SMOOTH",
"459 374 OFFCURVE",
"485 491 OFFCURVE",
"467 534 CURVE",
"470 535 OFFCURVE",
"481 538 OFFCURVE",
"483 537 CURVE",
"520 502 OFFCURVE",
"487 367 OFFCURVE",
"434 289 CURVE SMOOTH",
"300 90 OFFCURVE",
"14 124 OFFCURVE",
"14 324 CURVE SMOOTH",
"14 769 OFFCURVE",
"1072 816 OFFCURVE",
"1072 497 CURVE SMOOTH",
"1072 355 OFFCURVE",
"930 275 OFFCURVE",
"676 275 CURVE SMOOTH",
"663 275 OFFCURVE",
"663 255 OFFCURVE",
"676 255 CURVE SMOOTH",
"930 255 OFFCURVE",
"1092 335 OFFCURVE",
"1092 497 CURVE SMOOTH"
);
}
);
};
layerId = "6B4F01CB-8044-4D82-912B-2C5A8D883AAC";
paths = (
{
closed = 1;
nodes = (
"930 255 OFFCURVE",
"1092 335 OFFCURVE",
"1092 497 CURVE SMOOTH",
"1092 647 OFFCURVE",
"888 723 OFFCURVE",
"656 723 CURVE SMOOTH",
"349 723 OFFCURVE",
"-6 591 OFFCURVE",
"-6 324 CURVE SMOOTH",
"-6 198 OFFCURVE",
"85 137 OFFCURVE",
"190 137 CURVE SMOOTH",
"283 137 OFFCURVE",
"388 185 OFFCURVE",
"451 278 CURVE SMOOTH",
"486 330 OFFCURVE",
"519 419 OFFCURVE",
"519 484 CURVE SMOOTH",
"519 513 OFFCURVE",
"513 537 OFFCURVE",
"497 551 CURVE SMOOTH",
"493 555 OFFCURVE",
"486 557 OFFCURVE",
"479 557 CURVE SMOOTH",
"463 557 OFFCURVE",
"445 549 OFFCURVE",
"445 537 CURVE SMOOTH",
"445 534 OFFCURVE",
"445 532 OFFCURVE",
"447 529 CURVE SMOOTH",
"451 523 OFFCURVE",
"453 512 OFFCURVE",
"453 498 CURVE SMOOTH",
"453 451 OFFCURVE",
"432 370 OFFCURVE",
"394 313 CURVE SMOOTH",
"348 244 OFFCURVE",
"270 208 OFFCURVE",
"203 208 CURVE SMOOTH",
"135 208 OFFCURVE",
"78 245 OFFCURVE",
"78 322 CURVE SMOOTH",
"78 545 OFFCURVE",
"388 646 OFFCURVE",
"645 646 CURVE SMOOTH",
"827 646 OFFCURVE",
"982 595 OFFCURVE",
"982 501 CURVE SMOOTH",
"982 395 OFFCURVE",
"833 331 OFFCURVE",
"694 331 CURVE SMOOTH",
"688 331 OFFCURVE",
"684 326 OFFCURVE",
"684 321 CURVE SMOOTH",
"684 316 OFFCURVE",
"688 311 OFFCURVE",
"694 311 CURVE SMOOTH",
"832 311 OFFCURVE",
"1002 375 OFFCURVE",
"1002 501 CURVE SMOOTH",
"1002 609 OFFCURVE",
"836 666 OFFCURVE",
"643 666 CURVE SMOOTH",
"376 666 OFFCURVE",
"58 557 OFFCURVE",
"58 322 CURVE SMOOTH",
"58 227 OFFCURVE",
"119 189 OFFCURVE",
"192 189 CURVE SMOOTH",
"271 189 OFFCURVE",
"365 234 OFFCURVE",
"411 302 CURVE SMOOTH",
"449 358 OFFCURVE",
"473 443 OFFCURVE",
"473 497 CURVE SMOOTH",
"473 512 OFFCURVE",
"471 525 OFFCURVE",
"467 534 CURVE",
"470 535 OFFCURVE",
"478 537 OFFCURVE",
"482 537 CURVE SMOOTH",
"483 537 LINE",
"494 527 OFFCURVE",
"499 508 OFFCURVE",
"499 484 CURVE SMOOTH",
"499 427 OFFCURVE",
"471 344 OFFCURVE",
"434 289 CURVE SMOOTH",
"373 198 OFFCURVE",
"280 156 OFFCURVE",
"197 156 CURVE SMOOTH",
"98 156 OFFCURVE",
"14 215 OFFCURVE",
"14 324 CURVE SMOOTH",
"14 579 OFFCURVE",
"360 703 OFFCURVE",
"657 703 CURVE SMOOTH",
"878 703 OFFCURVE",
"1072 633 OFFCURVE",
"1072 497 CURVE SMOOTH",
"1072 355 OFFCURVE",
"930 275 OFFCURVE",
"676 275 CURVE SMOOTH",
"670 275 OFFCURVE",
"666 270 OFFCURVE",
"666 265 CURVE SMOOTH",
"666 260 OFFCURVE",
"670 255 OFFCURVE",
"676 255 CURVE SMOOTH"
);
},
{
closed = 1;
nodes = (
"564 95 OFFCURVE",
"684 407 OFFCURVE",
"763 582 CURVE SMOOTH",
"766 590 OFFCURVE",
"760 596 OFFCURVE",
"753 596 CURVE SMOOTH",
"750 596 OFFCURVE",
"746 594 OFFCURVE",
"744 590 CURVE SMOOTH",
"668 420 OFFCURVE",
"548 109 OFFCURVE",
"389 24 CURVE SMOOTH",
"385 22 OFFCURVE",
"382 21 OFFCURVE",
"378 21 CURVE SMOOTH",
"362 21 OFFCURVE",
"353 42 OFFCURVE",
"355 49 CURVE",
"436 98 OFFCURVE",
"497 192 OFFCURVE",
"573 340 CURVE SMOOTH",
"605 403 OFFCURVE",
"672 536 OFFCURVE",
"698 595 CURVE SMOOTH",
"702 603 OFFCURVE",
"695 609 OFFCURVE",
"689 609 CURVE SMOOTH",
"685 609 OFFCURVE",
"682 607 OFFCURVE",
"680 603 CURVE SMOOTH",
"654 544 OFFCURVE",
"587 412 OFFCURVE",
"555 350 CURVE SMOOTH",
"478 201 OFFCURVE",
"420 112 OFFCURVE",
"345 66 CURVE SMOOTH",
"338 62 OFFCURVE",
"335 54 OFFCURVE",
"335 46 CURVE SMOOTH",
"335 26 OFFCURVE",
"353 0 OFFCURVE",
"378 0 CURVE SMOOTH",
"385 0 OFFCURVE",
"392 2 OFFCURVE",
"399 6 CURVE SMOOTH"
);
}
);
width = 1043;
}
);
note = P;
unicode = 0050;
},
{
glyphname = Thorn;
lastChange = "2021-11-15 12:52:57 +0000";
layers = (
{
background = {
paths = (
{
closed = 1;
nodes = (
"21 172 OFFCURVE",
"-164 -167 OFFCURVE",
"-242 -168 CURVE SMOOTH",
"-340 -170 OFFCURVE",
"-296 -259 OFFCURVE",
"-235 -258 CURVE SMOOTH",
"-102 -255 OFFCURVE",
"10 18 OFFCURVE",
"154 229 CURVE SMOOTH",
"212 313 OFFCURVE",
"286 416 OFFCURVE",
"365 416 CURVE SMOOTH",
"408 416 OFFCURVE",
"425 376 OFFCURVE",
"377 315 CURVE SMOOTH",
"318 241 OFFCURVE",
"203 152 OFFCURVE",
"151 152 CURVE SMOOTH",
"138 152 OFFCURVE",
"138 132 OFFCURVE",
"151 132 CURVE SMOOTH",
"213 132 OFFCURVE",
"331 224 OFFCURVE",
"393 304 CURVE SMOOTH",
"452 381 OFFCURVE",
"427 438 OFFCURVE",
"366 438 CURVE SMOOTH",
"277 438 OFFCURVE",
"204 335 OFFCURVE",
"139 241 CURVE SMOOTH",
"-2 35 OFFCURVE",
"-116 -236 OFFCURVE",
"-235 -238 CURVE SMOOTH",
"-268 -239 OFFCURVE",
"-313 -190 OFFCURVE",
"-241 -188 CURVE SMOOTH",
"-152 -187 OFFCURVE",
"16 133 OFFCURVE",
"198 421 CURVE",
"208 435 OFFCURVE",
"196 453 OFFCURVE",
"181 430 CURVE"
);
},
{
closed = 1;
nodes = (
"505 445 OFFCURVE",
"471 493 OFFCURVE",
"409 493 CURVE SMOOTH",
"371 493 OFFCURVE",
"334 483 OFFCURVE",
"316 465 CURVE SMOOTH",
"307 456 OFFCURVE",
"321 441 OFFCURVE",
"330 451 CURVE SMOOTH",
"344 465 OFFCURVE",
"376 473 OFFCURVE",
"409 473 CURVE SMOOTH",
"457 473 OFFCURVE",
"485 437 OFFCURVE",
"485 389 CURVE SMOOTH",
"485 261 OFFCURVE",
"259 100 OFFCURVE",
"134 100 CURVE SMOOTH",
"121 100 OFFCURVE",
"121 80 OFFCURVE",
"134 80 CURVE SMOOTH",
"269 80 OFFCURVE",
"505 249 OFFCURVE",
"505 389 CURVE SMOOTH"
);
},
{
closed = 1;
nodes = (
"643 711 OFFCURVE",
"591 725 OFFCURVE",
"568 725 CURVE SMOOTH",
"409 725 OFFCURVE",
"317 591 OFFCURVE",
"217 478 CURVE SMOOTH",
"209 468 OFFCURVE",
"224 455 OFFCURVE",
"233 465 CURVE SMOOTH",
"326 571 OFFCURVE",
"420 705 OFFCURVE",
"568 705 CURVE SMOOTH",
"592 705 OFFCURVE",
"623 691 OFFCURVE",
"623 672 CURVE SMOOTH",
"623 653 OFFCURVE",
"594 655 OFFCURVE",
"582 655 CURVE SMOOTH",
"490 655 OFFCURVE",
"390 552 OFFCURVE",
"381 541 CURVE SMOOTH",
"372 531 OFFCURVE",
"382 508 OFFCURVE",
"398 529 CURVE SMOOTH",
"407 541 OFFCURVE",
"501 635 OFFCURVE",
"582 635 CURVE SMOOTH",
"607 635 OFFCURVE",
"643 636 OFFCURVE",
"643 672 CURVE SMOOTH"
);
}
);
};
layerId = "6B4F01CB-8044-4D82-912B-2C5A8D883AAC";
paths = (
{
closed = 1;
nodes = (
"-104 -258 OFFCURVE",
"9 16 OFFCURVE",
"154 229 CURVE SMOOTH",
"212 313 OFFCURVE",
"286 416 OFFCURVE",
"365 416 CURVE SMOOTH",
"390 416 OFFCURVE",
"406 403 OFFCURVE",
"406 380 CURVE SMOOTH",
"406 363 OFFCURVE",
"397 341 OFFCURVE",
"377 315 CURVE SMOOTH",
"318 241 OFFCURVE",
"203 152 OFFCURVE",
"151 152 CURVE SMOOTH",
"145 152 OFFCURVE",
"141 147 OFFCURVE",
"141 142 CURVE SMOOTH",
"141 137 OFFCURVE",
"145 132 OFFCURVE",
"151 132 CURVE SMOOTH",
"213 132 OFFCURVE",
"331 224 OFFCURVE",
"393 304 CURVE SMOOTH",
"416 334 OFFCURVE",
"427 362 OFFCURVE",
"427 384 CURVE SMOOTH",
"427 417 OFFCURVE",
"403 438 OFFCURVE",
"366 438 CURVE SMOOTH",
"277 438 OFFCURVE",
"204 335 OFFCURVE",
"139 241 CURVE SMOOTH",
"-3 33 OFFCURVE",
"-118 -238 OFFCURVE",
"-237 -238 CURVE SMOOTH",
"-256 -238 OFFCURVE",
"-280 -221 OFFCURVE",
"-280 -206 CURVE SMOOTH",
"-280 -197 OFFCURVE",
"-269 -189 OFFCURVE",
"-241 -188 CURVE SMOOTH",
"-152 -187 OFFCURVE",
"16 133 OFFCURVE",
"198 421 CURVE SMOOTH",
"201 425 OFFCURVE",
"202 428 OFFCURVE",
"202 432 CURVE SMOOTH",
"202 437 OFFCURVE",
"199 441 OFFCURVE",
"195 441 CURVE SMOOTH",
"191 441 OFFCURVE",
"186 438 OFFCURVE",
"181 430 CURVE SMOOTH",
"21 172 OFFCURVE",
"-164 -167 OFFCURVE",
"-242 -168 CURVE SMOOTH",
"-283 -169 OFFCURVE",
"-299 -185 OFFCURVE",
"-299 -204 CURVE SMOOTH",
"-299 -229 OFFCURVE",
"-270 -258 OFFCURVE",
"-236 -258 CURVE SMOOTH"
);
},
{
closed = 1;
nodes = (
"269 80 OFFCURVE",
"505 249 OFFCURVE",
"505 389 CURVE SMOOTH",
"505 445 OFFCURVE",
"471 493 OFFCURVE",
"409 493 CURVE SMOOTH",
"371 493 OFFCURVE",
"334 483 OFFCURVE",
"316 465 CURVE SMOOTH",
"309 458 OFFCURVE",
"316 448 OFFCURVE",
"323 448 CURVE SMOOTH",
"326 448 OFFCURVE",
"328 449 OFFCURVE",
"330 451 CURVE SMOOTH",
"344 465 OFFCURVE",
"376 473 OFFCURVE",
"409 473 CURVE SMOOTH",
"457 473 OFFCURVE",
"485 437 OFFCURVE",
"485 389 CURVE SMOOTH",
"485 261 OFFCURVE",
"259 100 OFFCURVE",
"134 100 CURVE SMOOTH",
"128 100 OFFCURVE",
"124 95 OFFCURVE",
"124 90 CURVE SMOOTH",
"124 85 OFFCURVE",
"128 80 OFFCURVE",
"134 80 CURVE SMOOTH"
);
},
{
closed = 1;
nodes = (
"326 571 OFFCURVE",
"420 705 OFFCURVE",
"568 705 CURVE SMOOTH",
"592 705 OFFCURVE",
"623 691 OFFCURVE",
"623 672 CURVE SMOOTH",
"623 653 OFFCURVE",
"594 655 OFFCURVE",
"582 655 CURVE SMOOTH",
"490 655 OFFCURVE",
"390 552 OFFCURVE",
"381 541 CURVE SMOOTH",
"379 538 OFFCURVE",
"378 535 OFFCURVE",
"378 532 CURVE SMOOTH",
"378 526 OFFCURVE",
"381 520 OFFCURVE",
"386 520 CURVE SMOOTH",
"389 520 OFFCURVE",
"393 523 OFFCURVE",
"398 529 CURVE SMOOTH",
"407 541 OFFCURVE",
"501 635 OFFCURVE",
"582 635 CURVE SMOOTH",
"607 635 OFFCURVE",
"643 636 OFFCURVE",
"643 672 CURVE SMOOTH",
"643 711 OFFCURVE",
"591 725 OFFCURVE",
"568 725 CURVE SMOOTH",
"409 725 OFFCURVE",
"317 591 OFFCURVE",
"217 478 CURVE SMOOTH",
"211 471 OFFCURVE",
"218 461 OFFCURVE",
"225 461 CURVE SMOOTH",
"228 461 OFFCURVE",
"231 462 OFFCURVE",
"233 465 CURVE SMOOTH"
);
}
);
width = 493;
}
);
unicode = 00DE;
},
